{
DisplayStrings = (
sksjhsoshsuzsvsjsfgsosbsisgbsisingsj,
"I love normal sentences. No better way to put words together.",
"nyc, today"
);
date = "2015-10-15 14:20:12 +0000";
designer = "Mirco Monsees";
designerURL = mircomonsees.com;
familyName = "Project Gin";
featurePrefixes = (
{
automatic = 1;
code = "languagesystem DFLT dflt;\012";
name = Languagesystems;
}
);
features = (
{
automatic = 1;
code = "sub L I by L_I.dlig;\012sub T h by T_h.dlig;\012sub c t by c_t.dlig;\012sub l l by l_l.dlig;\012sub s p by s_p.dlig;\012sub s t by s_t.dlig;\012";
name = dlig;
},
{
automatic = 1;
code = "sub f b by f_b.liga;\012sub f f by f_f.liga;\012sub f f b by f_f_b.liga;\012sub f f h by f_f_h.liga;\012sub f f i by f_f_i.liga;\012sub f f j by f_f_j.liga;\012sub f f k by f_f_k.liga;\012sub f f l by f_f_l.liga;\012sub f h by f_h.liga;\012sub f j by f_j.liga;\012sub f k by f_k.liga;\012sub f i by fi.liga;\012sub f l by fl.liga;\012";
name = liga;
}
);
fontMaster = (
{
alignmentZones = (
"{700, -50}",
"{480, 5}",
"{480, -45}",
"{350, 1}",
"{0, 50}",
"{0, -5}"
);
ascender = 740;
capHeight = 700;
descender = -250;
id = "71FD7A9F-05F5-4D76-8D4F-547475A05E4C";
italicAngle = 6;
userData = {
GSCornerRadius = 19;
};
xHeight = 480;
}
);
glyphs = (
{
glyphname = A;
lastChange = "2015-11-20 21:02:15 +0000";
layers = (
{
background = {
paths = (
{
closed = 1;
nodes = (
"275 337 LINE",
"312 243 OFFCURVE",
"361 130 OFFCURVE",
"383 82 CURVE SMOOTH",
"388 71 OFFCURVE",
"400 59 OFFCURVE",
"423 49 CURVE",
"343 49 LINE",
"338 0 LINE",
"605 0 LINE",
"610 47 LINE",
"562 55 LINE",
"494 158 OFFCURVE",
"416 314 OFFCURVE",
"374 399 CURVE"
);
},
{
closed = 1;
nodes = (
"453 562 OFFCURVE",
"370 442 OFFCURVE",
"328 392 CURVE",
"363 316 LINE",
"431 409 OFFCURVE",
"557 586 OFFCURVE",
"586 615 CURVE SMOOTH",
"610 639 OFFCURVE",
"634 650 OFFCURVE",
"661 650 CURVE",
"666 700 LINE",
"432 700 LINE",
"427 653 LINE",
"481 645 LINE"
);
},
{
closed = 1;
nodes = (
"210 113 OFFCURVE",
"299 253 OFFCURVE",
"330 303 CURVE",
"281 368 LINE",
"221 275 OFFCURVE",
"110 112 OFFCURVE",
"79 85 CURVE SMOOTH",
"51 61 OFFCURVE",
"27 50 OFFCURVE",
"0 50 CURVE",
"-5 0 LINE",
"218 0 LINE",
"223 47 LINE",
"176 55 LINE"
);
},
{
closed = 1;
nodes = (
"373 390 LINE",
"332 474 OFFCURVE",
"306 522 OFFCURVE",
"286 574 CURVE SMOOTH",
"272 610 OFFCURVE",
"258 651 OFFCURVE",
"317 651 CURVE",
"322 700 LINE",
"65 700 LINE",
"60 653 LINE",
"107 643 LINE",
"180 505 OFFCURVE",
"239 390 OFFCURVE",
"270 323 CURVE"
);
}
);
};
layerId = "71FD7A9F-05F5-4D76-8D4F-547475A05E4C";
name = "Regular Italic";
paths = (
{
closed = 1;
nodes = (
"335 696 LINE",
"338 684 OFFCURVE",
"336 649 OFFCURVE",
"342 620 CURVE",
"374 458 OFFCURVE",
"458 97 OFFCURVE",
"461 88 CURVE SMOOTH",
"466 71 OFFCURVE",
"486 57 OFFCURVE",
"509 50 CURVE",
"418 50 LINE",
"413 0 LINE",
"666 0 LINE",
"676 47 LINE",
"625 54 LINE",
"590 116 OFFCURVE",
"457 636 OFFCURVE",
"436 712 CURVE"
);
},
{
closed = 1;
nodes = (
"162 206 LINE",
"477 205 LINE",
"480 278 LINE",
"165 280 LINE"
);
},
{
closed = 1;
nodes = (
"177 79 OFFCURVE",
"202 143 OFFCURVE",
"240 248 CURVE SMOOTH",
"276 346 OFFCURVE",
"390 641 OFFCURVE",
"432 709 CURVE",
"335 696 LINE",
"220 418 OFFCURVE",
"139 199 OFFCURVE",
"93 119 CURVE SMOOTH",
"57 57 OFFCURVE",
"30 50 OFFCURVE",
"1 50 CURVE",
"-5 0 LINE",
"213 1 LINE",
"222 47 LINE",
"172 59 LINE"
);
}
);
width = 706;
}
);
leftKerningGroup = A;
rightKerningGroup = A;
unicode = 0041;
},
{
glyphname = B;
lastChange = "2015-11-20 19:40:41 +0000";
layers = (
{
background = {
paths = (
{
closed = 1;
nodes = (
"551 66 OFFCURVE",
"537 65 OFFCURVE",
"526 63 CURVE",
"477 116 OFFCURVE",
"428 215 OFFCURVE",
"403 309 CURVE",
"484 345 OFFCURVE",
"551 443 OFFCURVE",
"544 544 CURVE SMOOTH",
"530 753 OFFCURVE",
"201 703 OFFCURVE",
"77 699 CURVE",
"71 653 LINE",
"118 644 LINE",
"129 604 OFFCURVE",
"117 466 OFFCURVE",
"100 326 CURVE SMOOTH",
"79 158 OFFCURVE",
"65 96 OFFCURVE",
"69 85 CURVE SMOOTH",
"72 76 OFFCURVE",
"104 59 OFFCURVE",
"128 50 CURVE",
"10 51 LINE",
"4 0 LINE",
"284 0 LINE",
"288 47 LINE",
"232 55 LINE",
"212 108 OFFCURVE",
"209 161 OFFCURVE",
"222 289 CURVE",
"238 287 OFFCURVE",
"264 285 OFFCURVE",
"291 285 CURVE",
"301 248 OFFCURVE",
"339 58 OFFCURVE",
"374 32 CURVE SMOOTH",
"383 25 OFFCURVE",
"455 -1 OFFCURVE",
"508 -1 CURVE",
"543 7 OFFCURVE",
"570 25 OFFCURVE",
"575 28 CURVE",
"571 74 LINE"
);
}
);
};
layerId = "71FD7A9F-05F5-4D76-8D4F-547475A05E4C";
name = "Regular Italic";
paths = (
{
closed = 1;
nodes = (
"255 618 OFFCURVE",
"263 635 OFFCURVE",
"285 636 CURVE SMOOTH",
"416 641 OFFCURVE",
"473 453 OFFCURVE",
"362 382 CURVE",
"320 378 OFFCURVE",
"268 383 OFFCURVE",
"233 395 CURVE",
"240 462 OFFCURVE",
"241 504 OFFCURVE",
"248 562 CURVE SMOOTH"
);
},
{
closed = 1;
nodes = (
"332 318 LINE",
"376 311 OFFCURVE",
"399 283 OFFCURVE",
"410 232 CURVE SMOOTH",
"434 121 OFFCURVE",
"367 70 OFFCURVE",
"293 70 CURVE",
"239 85 LINE",
"221 111 OFFCURVE",
"216 175 OFFCURVE",
"229 303 CURVE",
"269 296 OFFCURVE",
"332 304 OFFCURVE",
"368 316 CURVE",
"506 373 OFFCURVE",
"562 468 OFFCURVE",
"538 572 CURVE SMOOTH",
"511 693 OFFCURVE",
"366 704 OFFCURVE",
"208 703 CURVE SMOOTH",
"161 703 OFFCURVE",
"118 701 OFFCURVE",
"71 700 CURVE",
"63 653 LINE",
"113 642 LINE",
"124 599 OFFCURVE",
"116 494 OFFCURVE",
"99 326 CURVE SMOOTH",
"82 137 OFFCURVE",
"67 96 OFFCURVE",
"72 85 CURVE SMOOTH",
"75 76 OFFCURVE",
"103 59 OFFCURVE",
"132 50 CURVE",
"19 50 LINE",
"15 0 LINE",
"279 -1 LINE SMOOTH",
"406 -1 OFFCURVE",
"570 71 OFFCURVE",
"541 257 CURVE SMOOTH",
"532 310 OFFCURVE",
"490 368 OFFCURVE",
"419 366 CURVE"
);
}
);
width = 578;
}
);
leftKerningGroup = I;
leftMetricsKey = I;
rightMetricsKey = "=I+20";
unicode = 0042;
},
{
glyphname = C;
lastChange = "2015-11-20 21:27:55 +0000";
layers = (
{
background = {
paths = (
{
closed = 1;
nodes = (
"528 674 OFFCURVE",
"452 738 OFFCURVE",
"283 701 CURVE SMOOTH",
"26 645 OFFCURVE",
"-25 229 OFFCURVE",
"101 81 CURVE SMOOTH",
"174 -4 OFFCURVE",
"258 -34 OFFCURVE",
"400 -2 CURVE SMOOTH",
"638 51 OFFCURVE",
"709 458 OFFCURVE",
"576 617 CURVE SMOOTH"
);
},
{
closed = 1;
nodes = (
"302 68 OFFCURVE",
"253 98 OFFCURVE",
"219 175 CURVE SMOOTH",
"148 332 OFFCURVE",
"169 544 OFFCURVE",
"306 629 CURVE",
"365 629 OFFCURVE",
"422 608 OFFCURVE",
"461 519 CURVE SMOOTH",
"526 371 OFFCURVE",
"512 155 OFFCURVE",
"372 68 CURVE"
);
}
);
};
layerId = "71FD7A9F-05F5-4D76-8D4F-547475A05E4C";
name = "Regular Italic";
paths = (
{
closed = 1;
nodes = (
"547 58 LINE",
"522 37 OFFCURVE",
"454 -5 OFFCURVE",
"329 -11 CURVE SMOOTH",
"200 -16 OFFCURVE",
"75 50 OFFCURVE",
"43 217 CURVE SMOOTH",
"-1 457 OFFCURVE",
"118 720 OFFCURVE",
"367 711 CURVE SMOOTH",
"455 708 OFFCURVE",
"554 674 OFFCURVE",
"585 637 CURVE",
"554 490 LINE",
"512 479 LINE",
"511 486 OFFCURVE",
"478 612 OFFCURVE",
"311 634 CURVE",
"234 612 OFFCURVE",
"148 481 OFFCURVE",
"190 271 CURVE SMOOTH",
"211 171 OFFCURVE",
"259 86 OFFCURVE",
"367 71 CURVE SMOOTH",
"431 63 OFFCURVE",
"498 91 OFFCURVE",
"533 124 CURVE"
);
}
);
width = 570;
}
);
leftKerningGroup = O;
leftMetricsKey = O;
rightMetricsKey = "=O-20";
unicode = 0043;
},
{
glyphname = D;
lastChange = "2015-11-20 19:45:40 +0000";
layers = (
{
background = {
paths = (
{
closed = 1;
nodes = (
"324 318 LINE",
"368 311 OFFCURVE",
"391 283 OFFCURVE",
"401 232 CURVE SMOOTH",
"423 121 OFFCURVE",
"355 70 OFFCURVE",
"281 70 CURVE",
"227 85 LINE",
"210 111 OFFCURVE",
"206 175 OFFCURVE",
"221 303 CURVE",
"261 296 OFFCURVE",
"324 304 OFFCURVE",
"360 316 CURVE",
"499 373 OFFCURVE",
"557 468 OFFCURVE",
"535 572 CURVE SMOOTH",
"510 693 OFFCURVE",
"365 704 OFFCURVE",
"207 703 CURVE SMOOTH",
"160 703 OFFCURVE",
"113 701 OFFCURVE",
"66 700 CURVE",
"61 653 LINE",
"111 642 LINE",
"121 599 OFFCURVE",
"111 494 OFFCURVE",
"92 326 CURVE SMOOTH",
"71 137 OFFCURVE",
"56 96 OFFCURVE",
"60 85 CURVE SMOOTH",
"63 76 OFFCURVE",
"91 59 OFFCURVE",
"120 50 CURVE",
"7 50 LINE",
"2 0 LINE",
"266 -1 LINE SMOOTH",
"393 -1 OFFCURVE",
"558 71 OFFCURVE",
"532 257 CURVE SMOOTH",
"524 310 OFFCURVE",
"483 368 OFFCURVE",
"412 366 CURVE"
);
}
);
};
layerId = "71FD7A9F-05F5-4D76-8D4F-547475A05E4C";
name = "Regular Italic";
paths = (
{
closed = 1;
nodes = (
"589 663 OFFCURVE",
"458 702 OFFCURVE",
"270 703 CURVE SMOOTH",
"234 703 OFFCURVE",
"150 703 OFFCURVE",
"71 700 CURVE",
"63 653 LINE",
"113 641 LINE",
"124 607 OFFCURVE",
"112 476 OFFCURVE",
"104 371 CURVE SMOOTH",
"95 254 OFFCURVE",
"70 96 OFFCURVE",
"75 85 CURVE SMOOTH",
"78 76 OFFCURVE",
"109 59 OFFCURVE",
"133 50 CURVE",
"22 50 LINE",
"18 0 LINE",
"289 -3 LINE SMOOTH",
"509 -5 OFFCURVE",
"658 195 OFFCURVE",
"616 479 CURVE SMOOTH"
);
},
{
closed = 1;
nodes = (
"352 632 OFFCURVE",
"443 593 OFFCURVE",
"470 459 CURVE SMOOTH",
"512 252 OFFCURVE",
"421 79 OFFCURVE",
"301 69 CURVE",
"231 85 LINE",
"200 135 OFFCURVE",
"228 389 OFFCURVE",
"251 559 CURVE SMOOTH",
"259 619 OFFCURVE",
"262 630 OFFCURVE",
"287 632 CURVE"
);
}
);
width = 641;
}
);
leftKerningGroup = I;
leftMetricsKey = I;
rightKerningGroup = O;
rightMetricsKey = O;
unicode = 0044;
},
{
glyphname = E;
lastChange = "2015-11-20 19:22:06 +0000";
layers = (
{
background = {
paths = (
{
closed = 1;
nodes = (
"69 700 LINE",
"64 653 LINE",
"110 644 LINE",
"121 605 OFFCURVE",
"110 484 OFFCURVE",
"104 426 CURVE SMOOTH",
"88 263 OFFCURVE",
"58 104 OFFCURVE",
"61 89 CURVE SMOOTH",
"64 74 OFFCURVE",
"98 58 OFFCURVE",
"121 50 CURVE",
"2 50 LINE",
"-3 0 LINE",
"291 0 LINE",
"295 47 LINE",
"227 57 LINE",
"203 106 OFFCURVE",
"209 196 OFFCURVE",
"219 323 CURVE",
"332 317 LINE",
"344 271 LINE",
"386 275 LINE",
"389 296 OFFCURVE",
"398 403 OFFCURVE",
"389 403 CURVE SMOOTH",
"383 403 OFFCURVE",
"222 396 OFFCURVE",
"226 396 CURVE",
"240 533 OFFCURVE",
"251 565 OFFCURVE",
"264 615 CURVE",
"360 615 LINE",
"457 615 OFFCURVE",
"480 588 OFFCURVE",
"485 532 CURVE",
"535 542 LINE",
"523 699 LINE"
);
},
{
closed = 1;
nodes = (
"69 700 LINE",
"64 653 LINE",
"110 644 LINE",
"121 605 OFFCURVE",
"110 484 OFFCURVE",
"104 426 CURVE SMOOTH",
"88 263 OFFCURVE",
"58 104 OFFCURVE",
"61 89 CURVE SMOOTH",
"64 74 OFFCURVE",
"98 58 OFFCURVE",
"121 50 CURVE",
"2 50 LINE",
"-3 0 LINE",
"291 0 LINE",
"295 47 LINE",
"227 57 LINE",
"203 106 OFFCURVE",
"209 196 OFFCURVE",
"219 323 CURVE",
"332 317 LINE",
"344 271 LINE",
"386 275 LINE",
"389 296 OFFCURVE",
"398 403 OFFCURVE",
"389 403 CURVE SMOOTH",
"383 403 OFFCURVE",
"222 396 OFFCURVE",
"226 396 CURVE",
"240 533 OFFCURVE",
"251 565 OFFCURVE",
"264 615 CURVE",
"360 615 LINE",
"457 615 OFFCURVE",
"480 588 OFFCURVE",
"485 532 CURVE",
"535 542 LINE",
"523 699 LINE"
);
}
);
};
guideLines = (
{
angle = 12;
position = "{476, 529}";
},
{
angle = -12;
position = "{457, 175}";
},
{
angle = 84;
position = "{471, 548}";
}
);
layerId = "71FD7A9F-05F5-4D76-8D4F-547475A05E4C";
name = "Regular Italic";
paths = (
{
closed = 1;
nodes = (
"72 700 LINE",
"63 653 LINE",
"112 642 LINE",
"122 602 OFFCURVE",
"111 484 OFFCURVE",
"106 427 CURVE SMOOTH",
"90 249 OFFCURVE",
"60 101 OFFCURVE",
"63 88 CURVE SMOOTH",
"66 74 OFFCURVE",
"104 56 OFFCURVE",
"123 50 CURVE",
"3 51 LINE",
"-2 0 LINE",
"496 -1 LINE",
"528 163 LINE",
"484 173 LINE",
"480 166 OFFCURVE",
"473 115 OFFCURVE",
"409 94 CURVE SMOOTH",
"370 81 OFFCURVE",
"303 80 OFFCURVE",
"229 81 CURVE",
"200 114 OFFCURVE",
"212 228 OFFCURVE",
"223 331 CURVE",
"345 325 LINE",
"355 279 LINE",
"395 282 LINE",
"401 325 OFFCURVE",
"411 410 OFFCURVE",
"396 410 CURVE SMOOTH",
"388 410 OFFCURVE",
"225 404 OFFCURVE",
"231 404 CURVE",
"234 455 OFFCURVE",
"254 569 OFFCURVE",
"266 613 CURVE",
"381 613 LINE",
"475 610 OFFCURVE",
"503 580 OFFCURVE",
"509 527 CURVE",
"557 537 LINE",
"544 699 LINE"
);
}
);
width = 546;
}
);
leftKerningGroup = I;
leftMetricsKey = I;
rightMetricsKey = I;
unicode = 0045;
},
{
glyphname = F;
lastChange = "2015-11-20 19:22:06 +0000";
layers = (
{
background = {
paths = (
{
closed = 1;
nodes = (
"64 700 LINE",
"59 653 LINE",
"108 644 LINE",
"118 604 OFFCURVE",
"107 484 OFFCURVE",
"102 427 CURVE SMOOTH",
"86 249 OFFCURVE",
"56 101 OFFCURVE",
"59 88 CURVE SMOOTH",
"62 74 OFFCURVE",
"100 56 OFFCURVE",
"119 50 CURVE",
"-1 51 LINE",
"-6 0 LINE",
"502 -1 LINE",
"524 163 LINE",
"480 173 LINE",
"476 166 OFFCURVE",
"469 108 OFFCURVE",
"405 87 CURVE SMOOTH",
"366 74 OFFCURVE",
"299 73 OFFCURVE",
"225 74 CURVE",
"196 107 OFFCURVE",
"207 232 OFFCURVE",
"218 335 CURVE",
"302 335 LINE",
"369 335 OFFCURVE",
"359 286 OFFCURVE",
"359 274 CURVE",
"399 277 LINE",
"405 320 OFFCURVE",
"412 412 OFFCURVE",
"397 412 CURVE SMOOTH",
"389 412 OFFCURVE",
"220 408 OFFCURVE",
"226 408 CURVE",
"229 459 OFFCURVE",
"248 578 OFFCURVE",
"260 622 CURVE",
"375 622 LINE",
"469 619 OFFCURVE",
"499 580 OFFCURVE",
"505 527 CURVE",
"553 537 LINE",
"540 699 LINE"
);
}
);
};
guideLines = (
{
angle = -18;
position = "{147, 37}";
},
{
angle = 12;
position = "{367, 263}";
},
{
angle = -85;
position = "{461, 608}";
}
);
layerId = "71FD7A9F-05F5-4D76-8D4F-547475A05E4C";
name = "Regular Italic";
paths = (
{
closed = 1;
nodes = (
"72 700 LINE",
"63 653 LINE",
"109 644 LINE",
"121 605 OFFCURVE",
"112 484 OFFCURVE",
"107 426 CURVE SMOOTH",
"94 263 OFFCURVE",
"66 104 OFFCURVE",
"70 89 CURVE SMOOTH",
"73 74 OFFCURVE",
"107 58 OFFCURVE",
"130 50 CURVE",
"12 50 LINE",
"7 0 LINE",
"293 0 LINE",
"302 47 LINE",
"232 57 LINE",
"207 106 OFFCURVE",
"212 196 OFFCURVE",
"219 323 CURVE",
"333 317 LINE",
"345 271 LINE",
"387 275 LINE",
"390 296 OFFCURVE",
"397 403 OFFCURVE",
"388 403 CURVE SMOOTH",
"382 403 OFFCURVE",
"221 396 OFFCURVE",
"225 396 CURVE",
"237 533 OFFCURVE",
"247 565 OFFCURVE",
"259 615 CURVE",
"355 615 LINE",
"452 615 OFFCURVE",
"476 588 OFFCURVE",
"482 532 CURVE",
"532 542 LINE",
"517 699 LINE"
);
}
);
width = 505;
}
);
leftKerningGroup = I;
leftMetricsKey = I;
rightMetricsKey = "=E-5";
unicode = 0046;
},
{
glyphname = G;
lastChange = "2015-11-20 19:44:07 +0000";
layers = (
{
background = {
paths = (
{
closed = 1;
nodes = (
"556 79 LINE",
"531 54 OFFCURVE",
"466 -1 OFFCURVE",
"332 -5 CURVE SMOOTH",
"204 -9 OFFCURVE",
"80 55 OFFCURVE",
"52 220 CURVE SMOOTH",
"12 457 OFFCURVE",
"134 716 OFFCURVE",
"382 707 CURVE SMOOTH",
"469 704 OFFCURVE",
"565 671 OFFCURVE",
"595 634 CURVE",
"561 489 LINE",
"519 478 LINE",
"518 485 OFFCURVE",
"490 607 OFFCURVE",
"327 628 CURVE",
"249 607 OFFCURVE",
"161 481 OFFCURVE",
"201 274 CURVE SMOOTH",
"220 175 OFFCURVE",
"264 91 OFFCURVE",
"372 84 CURVE SMOOTH",
"435 80 OFFCURVE",
"513 107 OFFCURVE",
"543 140 CURVE"
);
}
);
};
layerId = "71FD7A9F-05F5-4D76-8D4F-547475A05E4C";
name = "Regular Italic";
paths = (
{
closed = 1;
nodes = (
"157 713 OFFCURVE",
"18 499 OFFCURVE",
"49 239 CURVE SMOOTH",
"69 73 OFFCURVE",
"181 8 OFFCURVE",
"290 -2 CURVE SMOOTH",
"385 -11 OFFCURVE",
"493 15 OFFCURVE",
"548 53 CURVE",
"549 130 OFFCURVE",
"559 234 OFFCURVE",
"566 256 CURVE SMOOTH",
"576 282 OFFCURVE",
"598 288 OFFCURVE",
"605 288 CURVE",
"610 338 LINE",
"527 335 OFFCURVE",
"488 336 OFFCURVE",
"409 339 CURVE",
"400 291 LINE",
"453 275 LINE",
"451 220 OFFCURVE",
"448 112 OFFCURVE",
"404 72 CURVE",
"288 68 OFFCURVE",
"214 159 OFFCURVE",
"198 277 CURVE SMOOTH",
"168 493 OFFCURVE",
"251 605 OFFCURVE",
"319 632 CURVE",
"498 610 OFFCURVE",
"521 485 OFFCURVE",
"521 478 CURVE",
"566 488 LINE",
"602 632 LINE",
"573 669 OFFCURVE",
"476 706 OFFCURVE",
"370 708 CURVE SMOOTH"
);
}
);
width = 625;
}
);
leftKerningGroup = O;
rightKerningGroup = I;
unicode = 0047;
},
{
glyphname = H;
lastChange = "2015-11-20 19:22:06 +0000";
layers = (
{
background = {
paths = (
{
closed = 1;
nodes = (
"535 671 OFFCURVE",
"464 732 OFFCURVE",
"298 696 CURVE SMOOTH",
"46 641 OFFCURVE",
"-8 234 OFFCURVE",
"116 89 CURVE SMOOTH",
"187 6 OFFCURVE",
"269 -23 OFFCURVE",
"409 8 CURVE SMOOTH",
"642 60 OFFCURVE",
"710 458 OFFCURVE",
"581 615 CURVE SMOOTH"
);
},
{
closed = 1;
nodes = (
"313 77 OFFCURVE",
"264 104 OFFCURVE",
"230 179 CURVE SMOOTH",
"161 333 OFFCURVE",
"181 544 OFFCURVE",
"316 627 CURVE",
"373 627 OFFCURVE",
"432 609 OFFCURVE",
"470 522 CURVE SMOOTH",
"534 377 OFFCURVE",
"518 162 OFFCURVE",
"381 77 CURVE"
);
}
);
};
layerId = "71FD7A9F-05F5-4D76-8D4F-547475A05E4C";
name = "Regular Italic";
paths = (
{
closed = 1;
nodes = (
"71 700 LINE",
"63 653 LINE",
"109 644 LINE",
"120 619 OFFCURVE",
"111 480 OFFCURVE",
"99 348 CURVE SMOOTH",
"87 212 OFFCURVE",
"68 104 OFFCURVE",
"70 88 CURVE SMOOTH",
"72 79 OFFCURVE",
"89 66 OFFCURVE",
"129 50 CURVE",
"11 50 LINE",
"7 0 LINE",
"282 0 LINE",
"290 47 LINE",
"235 55 LINE",
"206 104 OFFCURVE",
"209 212 OFFCURVE",
"220 349 CURVE SMOOTH",
"231 480 OFFCURVE",
"249 598 OFFCURVE",
"261 620 CURVE SMOOTH",
"273 640 OFFCURVE",
"290 648 OFFCURVE",
"313 650 CURVE",
"317 699 LINE"
);
},
{
closed = 1;
nodes = (
"443 700 LINE",
"434 653 LINE",
"480 644 LINE",
"491 619 OFFCURVE",
"481 480 OFFCURVE",
"471 354 CURVE SMOOTH",
"460 219 OFFCURVE",
"439 104 OFFCURVE",
"442 88 CURVE SMOOTH",
"443 79 OFFCURVE",
"460 66 OFFCURVE",
"500 50 CURVE",
"389 50 LINE",
"385 0 LINE",
"649 0 LINE",
"657 47 LINE",
"601 55 LINE",
"577 97 OFFCURVE",
"582 219 OFFCURVE",
"591 351 CURVE SMOOTH",
"600 480 OFFCURVE",
"615 598 OFFCURVE",
"627 620 CURVE SMOOTH",
"639 640 OFFCURVE",
"654 648 OFFCURVE",
"677 650 CURVE",
"682 699 LINE"
);
},
{
closed = 1;
nodes = (
"199 313 LINE",
"505 319 LINE",
"504 396 LINE",
"211 396 LINE"
);
}
);
width = 687;
}
);
leftKerningGroup = I;
leftMetricsKey = I;
rightKerningGroup = I;
rightMetricsKey = I;
unicode = 0048;
},
{
glyphname = I;
lastChange = "2015-11-20 20:24:21 +0000";
layers = (
{
background = {
paths = (
{
closed = 1;
nodes = (
"448 175 LINE",
"445 172 OFFCURVE",
"435 96 OFFCURVE",
"376 74 CURVE SMOOTH",
"333 58 OFFCURVE",
"276 58 OFFCURVE",
"225 61 CURVE",
"207 150 OFFCURVE",
"218 278 OFFCURVE",
"235 433 CURVE SMOOTH",
"243 505 OFFCURVE",
"253 614 OFFCURVE",
"282 637 CURVE SMOOTH",
"299 650 OFFCURVE",
"316 649 OFFCURVE",
"323 650 CURVE",
"328 700 LINE",
"223 697 OFFCURVE",
"166 697 OFFCURVE",
"68 700 CURVE",
"64 650 LINE",
"75 650 OFFCURVE",
"93 646 OFFCURVE",
"104 634 CURVE SMOOTH",
"128 608 OFFCURVE",
"116 510 OFFCURVE",
"106 418 CURVE SMOOTH",
"93 299 OFFCURVE",
"62 102 OFFCURVE",
"64 88 CURVE SMOOTH",
"68 77 OFFCURVE",
"84 67 OFFCURVE",
"120 51 CURVE",
"1 53 LINE",
"-5 0 LINE",
"157 4 OFFCURVE",
"217 4 OFFCURVE",
"472 0 CURVE",
"482 89 OFFCURVE",
"496 159 OFFCURVE",
"497 165 CURVE"
);
}
);
};
guideLines = (
{
angle = 84;
position = "{119, 426}";
}
);
layerId = "71FD7A9F-05F5-4D76-8D4F-547475A05E4C";
name = "Regular Italic";
paths = (
{
closed = 1;
nodes = (
"72 700 LINE",
"63 653 LINE",
"110 644 LINE",
"121 619 OFFCURVE",
"113 487 OFFCURVE",
"108 427 CURVE SMOOTH",
"96 292 OFFCURVE",
"69 104 OFFCURVE",
"72 88 CURVE SMOOTH",
"73 79 OFFCURVE",
"81 62 OFFCURVE",
"119 50 CURVE",
"13 50 LINE",
"8 0 LINE",
"289 0 LINE",
"294 47 LINE",
"238 55 LINE",
"203 114 OFFCURVE",
"222 321 OFFCURVE",
"232 443 CURVE SMOOTH",
"242 556 OFFCURVE",
"252 598 OFFCURVE",
"264 620 CURVE SMOOTH",
"276 640 OFFCURVE",
"293 648 OFFCURVE",
"316 650 CURVE",
"321 699 LINE"
);
}
);
width = 324;
}
);
leftKerningGroup = I;
rightKerningGroup = I;
unicode = 0049;
},
{
glyphname = J;
lastChange = "2015-11-20 18:56:02 +0000";
layers = (
{
background = {
paths = (
{
closed = 1;
nodes = (
"197 504 OFFCURVE",
"114 515 OFFCURVE",
"83 512 CURVE",
"73 471 LINE",
"109 442 LINE",
"112 430 OFFCURVE",
"114 394 OFFCURVE",
"113 371 CURVE SMOOTH",
"111 335 OFFCURVE",
"106 226 OFFCURVE",
"102 179 CURVE",
"73 -23 OFFCURVE",
"58 -66 OFFCURVE",
"37 -94 CURVE",
"25 -94 OFFCURVE",
"11 -88 OFFCURVE",
"-13 -74 CURVE",
"-30 -118 LINE",
"-6 -138 OFFCURVE",
"22 -152 OFFCURVE",
"41 -158 CURVE",
"148 -132 OFFCURVE",
"178 -78 OFFCURVE",
"202 148 CURVE",
"215 282 OFFCURVE",
"239 463 OFFCURVE",
"237 487 CURVE"
);
}
);
};
layerId = "71FD7A9F-05F5-4D76-8D4F-547475A05E4C";
name = "Regular Italic";
paths = (
{
closed = 1;
nodes = (
"74 700 LINE",
"65 653 LINE",
"113 644 LINE",
"125 619 OFFCURVE",
"121 489 OFFCURVE",
"116 429 CURVE",
"87 46 OFFCURVE",
"67 -34 OFFCURVE",
"34 -94 CURVE",
"16 -92 OFFCURVE",
"-2 -84 OFFCURVE",
"-18 -75 CURVE",
"-34 -118 LINE",
"-12 -137 OFFCURVE",
"17 -151 OFFCURVE",
"37 -158 CURVE",
"152 -130 OFFCURVE",
"206 -40 OFFCURVE",
"213 83 CURVE SMOOTH",
"232 400 OFFCURVE",
"249 598 OFFCURVE",
"262 620 CURVE SMOOTH",
"274 640 OFFCURVE",
"288 648 OFFCURVE",
"311 650 CURVE",
"316 699 LINE"
);
}
);
width = 300;
}
);
leftKerningGroup = I;
rightKerningGroup = I;
unicode = 004A;
},
{
glyphname = K;
lastChange = "2015-11-20 21:22:41 +0000";
layers = (
{
background = {
paths = (
{
closed = 1;
nodes = (
"71 700 LINE",
"66 653 LINE",
"112 644 LINE",
"123 619 OFFCURVE",
"111 480 OFFCURVE",
"97 348 CURVE SMOOTH",
"83 212 OFFCURVE",
"62 104 OFFCURVE",
"64 88 CURVE SMOOTH",
"65 79 OFFCURVE",
"82 66 OFFCURVE",
"122 50 CURVE",
"4 50 LINE",
"-1 0 LINE",
"280 0 LINE",
"284 47 LINE",
"228 55 LINE",
"200 104 OFFCURVE",
"204 212 OFFCURVE",
"218 349 CURVE SMOOTH",
"231 480 OFFCURVE",
"251 598 OFFCURVE",
"264 620 CURVE SMOOTH",
"276 640 OFFCURVE",
"293 648 OFFCURVE",
"316 650 CURVE",
"321 699 LINE"
);
},
{
closed = 1;
nodes = (
"442 700 LINE",
"437 653 LINE",
"483 644 LINE",
"494 619 OFFCURVE",
"481 480 OFFCURVE",
"469 354 CURVE SMOOTH",
"456 219 OFFCURVE",
"433 104 OFFCURVE",
"435 88 CURVE SMOOTH",
"436 79 OFFCURVE",
"453 66 OFFCURVE",
"493 50 CURVE",
"382 50 LINE",
"377 0 LINE",
"651 0 LINE",
"655 47 LINE",
"599 55 LINE",
"576 97 OFFCURVE",
"583 219 OFFCURVE",
"594 351 CURVE SMOOTH",
"605 480 OFFCURVE",
"622 598 OFFCURVE",
"635 620 CURVE SMOOTH",
"647 640 OFFCURVE",
"662 648 OFFCURVE",
"685 650 CURVE",
"690 699 LINE"
);
},
{
closed = 1;
nodes = (
"196 308 LINE",
"502 314 LINE",
"503 396 LINE",
"210 396 LINE"
);
}
);
};
layerId = "71FD7A9F-05F5-4D76-8D4F-547475A05E4C";
name = "Regular Italic";
paths = (
{
closed = 1;
nodes = (
"304 352 LINE",
"311 272 OFFCURVE",
"387 52 OFFCURVE",
"413 32 CURVE SMOOTH",
"422 25 OFFCURVE",
"494 -1 OFFCURVE",
"547 -1 CURVE",
"582 7 OFFCURVE",
"609 25 OFFCURVE",
"614 28 CURVE",
"610 74 LINE",
"590 66 OFFCURVE",
"576 65 OFFCURVE",
"565 63 CURVE",
"513 119 OFFCURVE",
"414 326 OFFCURVE",
"391 425 CURVE"
);
},
{
closed = 1;
nodes = (
"74 700 LINE",
"65 653 LINE",
"111 644 LINE",
"122 619 OFFCURVE",
"111 487 OFFCURVE",
"105 427 CURVE SMOOTH",
"91 292 OFFCURVE",
"61 104 OFFCURVE",
"63 88 CURVE SMOOTH",
"64 79 OFFCURVE",
"72 62 OFFCURVE",
"110 50 CURVE",
"3 50 LINE",
"-2 0 LINE",
"283 0 LINE",
"291 47 LINE",
"235 55 LINE",
"201 114 OFFCURVE",
"223 286 OFFCURVE",
"236 408 CURVE SMOOTH",
"248 521 OFFCURVE",
"258 598 OFFCURVE",
"271 620 CURVE SMOOTH",
"283 640 OFFCURVE",
"300 648 OFFCURVE",
"323 650 CURVE",
"328 699 LINE"
);
},
{
closed = 1;
nodes = (
"445 584 OFFCURVE",
"296 400 OFFCURVE",
"215 312 CURVE",
"211 203 LINE",
"362 372 LINE",
"443 465 OFFCURVE",
"547 586 OFFCURVE",
"576 615 CURVE SMOOTH",
"600 639 OFFCURVE",
"624 650 OFFCURVE",
"651 650 CURVE",
"656 700 LINE",
"434 700 LINE",
"425 651 LINE",
"475 642 LINE"
);
}
);
width = 636;
}
);
leftKerningGroup = I;
rightKerningGroup = X;
unicode = 004B;
},
{
glyphname = L;
lastChange = "2015-11-20 19:41:34 +0000";
layers = (
{
background = {
paths = (
{
closed = 1;
nodes = (
"66 700 LINE",
"61 653 LINE",
"107 644 LINE",
"118 619 OFFCURVE",
"107 485 OFFCURVE",
"101 427 CURVE SMOOTH",
"87 290 OFFCURVE",
"56 103 OFFCURVE",
"58 88 CURVE SMOOTH",
"60 77 OFFCURVE",
"82 64 OFFCURVE",
"117 50 CURVE",
"-1 50 LINE",
"-6 0 LINE",
"279 0 LINE",
"283 47 LINE",
"227 55 LINE",
"193 114 OFFCURVE",
"215 322 OFFCURVE",
"228 443 CURVE SMOOTH",
"240 559 OFFCURVE",
"250 595 OFFCURVE",
"263 620 CURVE SMOOTH",
"274 641 OFFCURVE",
"298 649 OFFCURVE",
"315 650 CURVE",
"320 699 LINE"
);
}
);
};
guideLines = (
{
angle = -12;
position = "{438, 184}";
}
);
layerId = "71FD7A9F-05F5-4D76-8D4F-547475A05E4C";
name = "Regular Italic";
paths = (
{
closed = 1;
nodes = (
"462 175 LINE",
"425 96 LINE",
"385 81 OFFCURVE",
"265 80 OFFCURVE",
"220 83 CURVE",
"202 172 OFFCURVE",
"209 275 OFFCURVE",
"226 433 CURVE SMOOTH",
"235 513 OFFCURVE",
"245 608 OFFCURVE",
"274 634 CURVE SMOOTH",
"285 644 OFFCURVE",
"304 650 OFFCURVE",
"315 650 CURVE",
"320 700 LINE",
"72 700 LINE",
"63 653 LINE",
"110 644 LINE",
"119 611 OFFCURVE",
"113 510 OFFCURVE",
"103 418 CURVE SMOOTH",
"88 282 OFFCURVE",
"59 107 OFFCURVE",
"62 87 CURVE SMOOTH",
"64 78 OFFCURVE",
"71 72 OFFCURVE",
"120 50 CURVE",
"3 50 LINE",
"-2 0 LINE",
"486 0 LINE",
"496 89 OFFCURVE",
"510 159 OFFCURVE",
"511 165 CURVE"
);
}
);
width = 511;
}
);
leftKerningGroup = I;
leftMetricsKey = I;
rightKerningGroup = L;
unicode = 004C;
},
{
glyphname = M;
lastChange = "2015-11-20 21:08:04 +0000";
layers = (
{
background = {
paths = (
{
closed = 1;
nodes = (
"491 87 LINE",
"476 169 OFFCURVE",
"370 610 OFFCURVE",
"366 617 CURVE SMOOTH",
"359 628 OFFCURVE",
"342 642 OFFCURVE",
"319 650 CURVE",
"412 650 LINE",
"417 700 LINE",
"156 700 LINE",
"147 653 LINE",
"201 645 LINE",
"225 613 OFFCURVE",
"270 448 OFFCURVE",
"303 327 CURVE SMOOTH",
"332 220 OFFCURVE",
"372 44 OFFCURVE",
"385 0 CURVE"
);
},
{
closed = 1;
nodes = (
"615 608 OFFCURVE",
"571 463 OFFCURVE",
"552 412 CURVE SMOOTH",
"452 144 OFFCURVE",
"408 44 OFFCURVE",
"387 0 CURVE",
"498 0 LINE",
"585 270 OFFCURVE",
"689 545 OFFCURVE",
"708 592 CURVE SMOOTH",
"727 638 OFFCURVE",
"763 650 OFFCURVE",
"793 650 CURVE",
"798 700 LINE",
"547 700 LINE",
"538 653 LINE",
"605 640 LINE"
);
}
);
};
layerId = "71FD7A9F-05F5-4D76-8D4F-547475A05E4C";
name = "Regular Italic";
paths = (
{
closed = 1;
nodes = (
"258 480 LINE",
"301 329 OFFCURVE",
"390 6 OFFCURVE",
"393 0 CURVE",
"471 161 LINE",
"346 700 LINE",
"341 695 LINE",
"344 700 LINE",
"207 642 LINE"
);
},
{
closed = 1;
nodes = (
"542 163 OFFCURVE",
"603 321 OFFCURVE",
"658 484 CURVE",
"665 328 OFFCURVE",
"676 90 OFFCURVE",
"678 85 CURVE SMOOTH",
"682 74 OFFCURVE",
"694 60 OFFCURVE",
"723 50 CURVE",
"631 50 LINE",
"626 0 LINE",
"878 0 LINE",
"886 47 LINE",
"835 54 LINE",
"805 139 OFFCURVE",
"788 458 OFFCURVE",
"776 589 CURVE SMOOTH",
"772 633 OFFCURVE",
"797 650 OFFCURVE",
"824 650 CURVE",
"830 700 LINE",
"642 700 LINE",
"587 526 OFFCURVE",
"526 352 OFFCURVE",
"458 178 CURVE",
"435 119 OFFCURVE",
"419 59 OFFCURVE",
"393 0 CURVE",
"490 0 LINE"
);
},
{
closed = 1;
nodes = (
"200 88 OFFCURVE",
"213 193 OFFCURVE",
"219 243 CURVE SMOOTH",
"231 339 OFFCURVE",
"247 429 OFFCURVE",
"262 541 CURVE",
"278 596 OFFCURVE",
"322 680 OFFCURVE",
"346 700 CURVE",
"158 700 LINE",
"149 653 LINE",
"205 642 LINE",
"165 387 OFFCURVE",
"124 163 OFFCURVE",
"106 120 CURVE SMOOTH",
"81 61 OFFCURVE",
"47 50 OFFCURVE",
"21 50 CURVE",
"15 0 LINE",
"254 0 LINE",
"263 49 LINE",
"210 58 LINE"
);
}
);
width = 931;
}
);
leftKerningGroup = A;
rightKerningGroup = A;
unicode = 004D;
},
{
glyphname = N;
lastChange = "2015-11-20 21:29:02 +0000";
layers = (
{
layerId = "71FD7A9F-05F5-4D76-8D4F-547475A05E4C";
name = "Regular Italic";
paths = (
{
closed = 1;
nodes = (
"204 493 LINE",
"281 342 OFFCURVE",
"447 6 OFFCURVE",
"451 0 CURVE",
"502 171 LINE",
"236 700 LINE",
"232 695 LINE",
"234 700 LINE",
"123 642 LINE"
);
},
{
closed = 1;
nodes = (
"177 88 OFFCURVE",
"184 186 OFFCURVE",
"188 236 CURVE SMOOTH",
"199 383 OFFCURVE",
"226 642 OFFCURVE",
"236 700 CURVE",
"73 700 LINE",
"64 653 LINE",
"116 642 LINE",
"124 508 OFFCURVE",
"93 163 OFFCURVE",
"79 120 CURVE SMOOTH",
"60 61 OFFCURVE",
"26 50 OFFCURVE",
"0 50 CURVE",
"-5 0 LINE",
"243 0 LINE",
"252 49 LINE",
"191 58 LINE"
);
},
{
closed = 1;
nodes = (
"501 612 OFFCURVE",
"494 514 OFFCURVE",
"490 464 CURVE SMOOTH",
"460 111 OFFCURVE",
"430 108 OFFCURVE",
"453 0 CURVE",
"541 0 LINE",
"559 286 OFFCURVE",
"580 523 OFFCURVE",
"599 580 CURVE SMOOTH",
"618 639 OFFCURVE",
"659 650 OFFCURVE",
"685 650 CURVE",
"690 700 LINE",
"442 700 LINE",
"433 651 LINE",
"487 642 LINE"
);
}
);
width = 652;
}
);
leftKerningGroup = I;
leftMetricsKey = I;
rightKerningGroup = I;
rightMetricsKey = I;
unicode = 004E;
},
{
glyphname = O;
lastChange = "2015-11-20 21:01:17 +0000";
layers = (
{
background = {
paths = (
{
closed = 1;
nodes = (
"533 667 OFFCURVE",
"462 731 OFFCURVE",
"303 699 CURVE SMOOTH",
"32 644 OFFCURVE",
"-36 268 OFFCURVE",
"112 86 CURVE SMOOTH",
"181 2 OFFCURVE",
"287 -30 OFFCURVE",
"409 10 CURVE SMOOTH",
"683 102 OFFCURVE",
"699 459 OFFCURVE",
"577 612 CURVE SMOOTH"
);
},
{
closed = 1;
nodes = (
"310 110 OFFCURVE",
"271 134 OFFCURVE",
"241 209 CURVE SMOOTH",
"187 341 OFFCURVE",
"204 530 OFFCURVE",
"315 592 CURVE",
"367 592 OFFCURVE",
"409 576 OFFCURVE",
"441 501 CURVE SMOOTH",
"495 378 OFFCURVE",
"492 184 OFFCURVE",
"370 110 CURVE"
);
}
);
};
layerId = "71FD7A9F-05F5-4D76-8D4F-547475A05E4C";
name = "Regular Italic";
paths = (
{
closed = 1;
nodes = (
"528 674 OFFCURVE",
"452 738 OFFCURVE",
"283 701 CURVE SMOOTH",
"26 645 OFFCURVE",
"-25 229 OFFCURVE",
"101 81 CURVE SMOOTH",
"174 -4 OFFCURVE",
"258 -34 OFFCURVE",
"400 -2 CURVE SMOOTH",
"638 51 OFFCURVE",
"709 458 OFFCURVE",
"576 617 CURVE SMOOTH"
);
},
{
closed = 1;
nodes = (
"302 68 OFFCURVE",
"253 98 OFFCURVE",
"219 175 CURVE SMOOTH",
"148 332 OFFCURVE",
"169 544 OFFCURVE",
"306 629 CURVE",
"365 629 OFFCURVE",
"422 608 OFFCURVE",
"461 519 CURVE SMOOTH",
"526 371 OFFCURVE",
"512 155 OFFCURVE",
"372 68 CURVE"
);
}
);
width = 654;
}
);
leftKerningGroup = O;
rightKerningGroup = O;
unicode = 004F;
},
{
glyphname = P;
lastChange = "2015-11-20 21:29:19 +0000";
layers = (
{
background = {
paths = (
{
closed = 1;
nodes = (
"541 66 OFFCURVE",
"527 65 OFFCURVE",
"516 63 CURVE",
"467 116 OFFCURVE",
"418 215 OFFCURVE",
"393 309 CURVE",
"474 345 OFFCURVE",
"541 443 OFFCURVE",
"534 544 CURVE SMOOTH",
"520 753 OFFCURVE",
"191 703 OFFCURVE",
"67 699 CURVE",
"61 653 LINE",
"108 644 LINE",
"119 604 OFFCURVE",
"107 466 OFFCURVE",
"90 326 CURVE SMOOTH",
"69 158 OFFCURVE",
"55 96 OFFCURVE",
"59 85 CURVE SMOOTH",
"62 76 OFFCURVE",
"94 59 OFFCURVE",
"118 50 CURVE",
"0 51 LINE",
"-6 0 LINE",
"274 0 LINE",
"278 47 LINE",
"222 55 LINE",
"202 108 OFFCURVE",
"199 161 OFFCURVE",
"212 289 CURVE",
"228 287 OFFCURVE",
"254 285 OFFCURVE",
"281 285 CURVE",
"291 248 OFFCURVE",
"329 58 OFFCURVE",
"364 32 CURVE SMOOTH",
"373 25 OFFCURVE",
"445 -1 OFFCURVE",
"498 -1 CURVE",
"533 7 OFFCURVE",
"560 25 OFFCURVE",
"565 28 CURVE",
"561 74 LINE"
);
},
{
closed = 1;
nodes = (
"251 628 OFFCURVE",
"258 639 OFFCURVE",
"282 639 CURVE SMOOTH",
"430 639 OFFCURVE",
"451 404 OFFCURVE",
"329 363 CURVE",
"309 363 OFFCURVE",
"268 367 OFFCURVE",
"219 385 CURVE",
"226 453 OFFCURVE",
"234 510 OFFCURVE",
"239 547 CURVE SMOOTH"
);
}
);
};
guideLines = (
{
angle = 84;
position = "{597, 311}";
}
);
layerId = "71FD7A9F-05F5-4D76-8D4F-547475A05E4C";
name = "Regular Italic";
paths = (
{
closed = 1;
nodes = (
"357 714 OFFCURVE",
"174 702 OFFCURVE",
"71 700 CURVE",
"63 653 LINE",
"109 644 LINE",
"119 622 OFFCURVE",
"109 481 OFFCURVE",
"103 421 CURVE SMOOTH",
"92 309 OFFCURVE",
"57 101 OFFCURVE",
"60 88 CURVE",
"62 76 OFFCURVE",
"85 62 OFFCURVE",
"119 50 CURVE",
"3 50 LINE",
"-2 0 LINE",
"277 0 LINE",
"286 47 LINE",
"230 55 LINE",
"208 89 OFFCURVE",
"210 150 OFFCURVE",
"217 264 CURVE",
"248 257 OFFCURVE",
"287 254 OFFCURVE",
"318 260 CURVE SMOOTH",
"530 301 OFFCURVE",
"616 589 OFFCURVE",
"448 670 CURVE SMOOTH"
);
},
{
closed = 1;
nodes = (
"258 349 OFFCURVE",
"222 366 CURVE",
"246 627 OFFCURVE",
"250 635 OFFCURVE",
"282 638 CURVE SMOOTH",
"411 650 OFFCURVE",
"458 422 OFFCURVE",
"339 346 CURVE",
"302 344 OFFCURVE"
);
}
);
width = 533;
}
);
leftKerningGroup = I;
leftMetricsKey = I;
rightKerningGroup = T;
rightMetricsKey = O;
unicode = 0050;
},
{
glyphname = Q;
lastChange = "2015-11-20 21:13:31 +0000";
layers = (
{
background = {
paths = (
{
closed = 1;
nodes = (
"528 674 OFFCURVE",
"452 738 OFFCURVE",
"283 701 CURVE SMOOTH",
"26 645 OFFCURVE",
"-25 229 OFFCURVE",
"101 81 CURVE SMOOTH",
"174 -4 OFFCURVE",
"258 -34 OFFCURVE",
"400 -2 CURVE SMOOTH",
"638 51 OFFCURVE",
"709 458 OFFCURVE",
"576 617 CURVE SMOOTH"
);
},
{
closed = 1;
nodes = (
"302 68 OFFCURVE",
"253 98 OFFCURVE",
"219 175 CURVE SMOOTH",
"148 332 OFFCURVE",
"169 544 OFFCURVE",
"306 629 CURVE",
"365 629 OFFCURVE",
"422 608 OFFCURVE",
"461 519 CURVE SMOOTH",
"526 371 OFFCURVE",
"512 155 OFFCURVE",
"372 68 CURVE"
);
}
);
};
layerId = "71FD7A9F-05F5-4D76-8D4F-547475A05E4C";
name = "Regular Italic";
paths = (
{
closed = 1;
nodes = (
"527 677 OFFCURVE",
"454 740 OFFCURVE",
"285 703 CURVE SMOOTH",
"28 647 OFFCURVE",
"-27 232 OFFCURVE",
"100 84 CURVE SMOOTH",
"172 -1 OFFCURVE",
"256 -30 OFFCURVE",
"398 1 CURVE SMOOTH",
"636 54 OFFCURVE",
"705 460 OFFCURVE",
"574 620 CURVE SMOOTH"
);
},
{
closed = 1;
nodes = (
"300 72 OFFCURVE",
"250 99 OFFCURVE",
"216 176 CURVE SMOOTH",
"145 333 OFFCURVE",
"166 548 OFFCURVE",
"303 632 CURVE",
"362 632 OFFCURVE",
"422 614 OFFCURVE",
"460 525 CURVE SMOOTH",
"526 378 OFFCURVE",
"509 158 OFFCURVE",
"370 72 CURVE"
);
},
{
closed = 1;
nodes = (
"323 -45 OFFCURVE",
"526 -202 OFFCURVE",
"634 -191 CURVE",
"687 -169 OFFCURVE",
"741 -119 OFFCURVE",
"761 -91 CURVE",
"732 -55 LINE",
"716 -70 OFFCURVE",
"695 -83 OFFCURVE",
"680 -88 CURVE",
"616 -73 OFFCURVE",
"270 61 OFFCURVE",
"234 138 CURVE",
"183 109 LINE"
);
}
);
width = 654;
}
);
leftKerningGroup = O;
leftMetricsKey = O;
rightKerningGroup = O;
rightMetricsKey = "=O-167";
unicode = 0051;
},
{
glyphname = R;
lastChange = "2015-11-20 21:11:13 +0000";
layers = (
{
background = {
paths = (
{
closed = 1;
nodes = (
"506 389 OFFCURVE",
"550 474 OFFCURVE",
"530 572 CURVE SMOOTH",
"505 695 OFFCURVE",
"369 704 OFFCURVE",
"202 703 CURVE SMOOTH",
"155 703 OFFCURVE",
"108 701 OFFCURVE",
"61 700 CURVE",
"56 653 LINE",
"106 642 LINE",
"116 599 OFFCURVE",
"106 494 OFFCURVE",
"87 326 CURVE SMOOTH",
"66 137 OFFCURVE",
"51 96 OFFCURVE",
"55 85 CURVE SMOOTH",
"58 76 OFFCURVE",
"86 59 OFFCURVE",
"115 50 CURVE",
"2 50 LINE",
"-3 0 LINE",
"261 -1 LINE SMOOTH",
"388 -1 OFFCURVE",
"553 71 OFFCURVE",
"527 257 CURVE SMOOTH",
"520 305 OFFCURVE",
"489 355 OFFCURVE",
"426 363 CURVE"
);
},
{
closed = 1;
nodes = (
"249 615 OFFCURVE",
"257 632 OFFCURVE",
"279 633 CURVE SMOOTH",
"421 640 OFFCURVE",
"459 425 OFFCURVE",
"347 390 CURVE",
"293 385 OFFCURVE",
"256 394 OFFCURVE",
"221 403 CURVE",
"229 470 OFFCURVE",
"233 501 OFFCURVE",
"241 559 CURVE SMOOTH"
);
},
{
closed = 1;
nodes = (
"222 85 LINE",
"205 111 OFFCURVE",
"200 189 OFFCURVE",
"215 317 CURVE",
"234 318 LINE SMOOTH",
"336 323 OFFCURVE",
"381 309 OFFCURVE",
"396 232 CURVE SMOOTH",
"418 121 OFFCURVE",
"350 70 OFFCURVE",
"276 70 CURVE"
);
}
);
};
guideLines = (
{
position = "{476, 480}";
}
);
layerId = "71FD7A9F-05F5-4D76-8D4F-547475A05E4C";
name = "Regular Italic";
paths = (
{
closed = 1;
nodes = (
"543 66 OFFCURVE",
"529 65 OFFCURVE",
"518 63 CURVE",
"469 116 OFFCURVE",
"420 215 OFFCURVE",
"395 309 CURVE",
"476 345 OFFCURVE",
"543 443 OFFCURVE",
"536 544 CURVE SMOOTH",
"522 753 OFFCURVE",
"195 703 OFFCURVE",
"71 699 CURVE",
"63 653 LINE",
"110 644 LINE",
"121 604 OFFCURVE",
"109 466 OFFCURVE",
"92 326 CURVE SMOOTH",
"71 158 OFFCURVE",
"57 96 OFFCURVE",
"61 85 CURVE SMOOTH",
"64 76 OFFCURVE",
"96 59 OFFCURVE",
"120 50 CURVE",
"2 51 LINE",
"-4 0 LINE",
"270 0 LINE",
"278 47 LINE",
"224 55 LINE",
"204 108 OFFCURVE",
"201 161 OFFCURVE",
"214 289 CURVE",
"230 287 OFFCURVE",
"256 285 OFFCURVE",
"283 285 CURVE",
"293 248 OFFCURVE",
"331 58 OFFCURVE",
"366 32 CURVE SMOOTH",
"375 25 OFFCURVE",
"447 -1 OFFCURVE",
"500 -1 CURVE",
"535 7 OFFCURVE",
"562 25 OFFCURVE",
"567 28 CURVE",
"563 74 LINE"
);
},
{
closed = 1;
nodes = (
"253 628 OFFCURVE",
"260 639 OFFCURVE",
"284 639 CURVE SMOOTH",
"432 639 OFFCURVE",
"453 404 OFFCURVE",
"331 363 CURVE",
"311 363 OFFCURVE",
"270 367 OFFCURVE",
"221 385 CURVE",
"228 453 OFFCURVE",
"236 510 OFFCURVE",
"241 547 CURVE SMOOTH"
);
}
);
width = 589;
}
);
leftKerningGroup = I;
leftMetricsKey = I;
unicode = 0052;
},
{
glyphname = S;
lastChange = "2015-11-20 18:54:59 +0000";
layers = (
{
background = {
paths = (
{
closed = 1;
nodes = (
"501 79 LINE",
"476 54 OFFCURVE",
"406 -4 OFFCURVE",
"272 -8 CURVE SMOOTH",
"144 -12 OFFCURVE",
"17 68 OFFCURVE",
"-13 245 CURVE SMOOTH",
"-52 474 OFFCURVE",
"96 709 OFFCURVE",
"326 709 CURVE SMOOTH",
"420 709 OFFCURVE",
"513 670 OFFCURVE",
"541 632 CURVE",
"527 578 OFFCURVE",
"514 533 OFFCURVE",
"504 482 CURVE",
"463 478 LINE",
"462 485 OFFCURVE",
"442 612 OFFCURVE",
"272 633 CURVE",
"200 610 OFFCURVE",
"116 447 OFFCURVE",
"151 270 CURVE SMOOTH",
"173 158 OFFCURVE",
"238 90 OFFCURVE",
"326 78 CURVE SMOOTH",
"387 70 OFFCURVE",
"458 107 OFFCURVE",
"488 140 CURVE"
);
}
);
};
layerId = "71FD7A9F-05F5-4D76-8D4F-547475A05E4C";
name = "Regular Italic";
paths = (
{
closed = 1;
nodes = (
"423 32 OFFCURVE",
"488 104 OFFCURVE",
"497 197 CURVE SMOOTH",
"507 310 OFFCURVE",
"392 367 OFFCURVE",
"327 396 CURVE SMOOTH",
"225 442 OFFCURVE",
"169 488 OFFCURVE",
"169 510 CURVE",
"182 558 OFFCURVE",
"229 619 OFFCURVE",
"264 627 CURVE",
"335 616 OFFCURVE",
"405 589 OFFCURVE",
"434 478 CURVE",
"478 488 LINE",
"485 517 OFFCURVE",
"502 604 OFFCURVE",
"509 632 CURVE",
"461 679 OFFCURVE",
"384 713 OFFCURVE",
"285 706 CURVE SMOOTH",
"167 698 OFFCURVE",
"69 622 OFFCURVE",
"57 493 CURVE SMOOTH",
"47 379 OFFCURVE",
"147 322 OFFCURVE",
"222 289 CURVE SMOOTH",
"319 245 OFFCURVE",
"385 208 OFFCURVE",
"386 182 CURVE",
"372 128 OFFCURVE",
"325 84 OFFCURVE",
"286 65 CURVE",
"190 71 OFFCURVE",
"110 115 OFFCURVE",
"87 214 CURVE",
"73 208 OFFCURVE",
"57 202 OFFCURVE",
"43 195 CURVE",
"34 161 OFFCURVE",
"15 74 OFFCURVE",
"11 62 CURVE",
"81 -18 OFFCURVE",
"238 -42 OFFCURVE",
"365 9 CURVE SMOOTH"
);
}
);
width = 532;
}
);
leftKerningGroup = I;
leftMetricsKey = O;
rightKerningGroup = I;
rightMetricsKey = O;
unicode = 0053;
},
{
glyphname = T;
lastChange = "2015-11-20 18:56:45 +0000";
layers = (
{
guideLines = (
{
position = "{410, 637}";
}
);
layerId = "71FD7A9F-05F5-4D76-8D4F-547475A05E4C";
name = "Regular Italic";
paths = (
{
closed = 1;
nodes = (
"80 700 LINE",
"45 528 LINE",
"94 517 LINE",
"113 610 OFFCURVE",
"157 623 OFFCURVE",
"271 623 CURVE",
"278 584 OFFCURVE",
"268 480 OFFCURVE",
"263 427 CURVE SMOOTH",
"253 319 OFFCURVE",
"218 103 OFFCURVE",
"220 88 CURVE",
"222 77 OFFCURVE",
"244 64 OFFCURVE",
"279 50 CURVE",
"161 50 LINE",
"156 0 LINE",
"441 0 LINE",
"445 47 LINE",
"389 55 LINE",
"357 111 OFFCURVE",
"374 296 OFFCURVE",
"390 443 CURVE SMOOTH",
"399 526 OFFCURVE",
"409 601 OFFCURVE",
"437 623 CURVE",
"465 623 LINE SMOOTH",
"551 623 OFFCURVE",
"587 574 OFFCURVE",
"591 518 CURVE",
"640 529 LINE",
"628 700 LINE"
);
}
);
width = 615;
}
);
leftKerningGroup = T;
rightKerningGroup = T;
unicode = 0054;
},
{
glyphname = U;
lastChange = "2015-11-20 18:54:12 +0000";
layers = (
{
background = {
paths = (
{
closed = 1;
nodes = (
"533 671 OFFCURVE",
"459 733 OFFCURVE",
"293 697 CURVE SMOOTH",
"41 642 OFFCURVE",
"-9 234 OFFCURVE",
"115 89 CURVE SMOOTH",
"186 6 OFFCURVE",
"268 -23 OFFCURVE",
"408 8 CURVE SMOOTH",
"641 60 OFFCURVE",
"711 459 OFFCURVE",
"580 615 CURVE SMOOTH"
);
},
{
closed = 1;
nodes = (
"312 77 OFFCURVE",
"262 104 OFFCURVE",
"228 179 CURVE SMOOTH",
"159 333 OFFCURVE",
"181 543 OFFCURVE",
"316 626 CURVE",
"373 626 OFFCURVE",
"431 608 OFFCURVE",
"469 521 CURVE SMOOTH",
"533 376 OFFCURVE",
"517 162 OFFCURVE",
"380 77 CURVE"
);
}
);
};
guideLines = (
{
angle = 84;
position = "{74, 327}";
},
{
angle = 84;
position = "{341, 321}";
},
{
angle = 84;
position = "{613, 295}";
}
);
layerId = "71FD7A9F-05F5-4D76-8D4F-547475A05E4C";
name = "Regular Italic";
paths = (
{
closed = 1;
nodes = (
"427 652 LINE",
"484 643 LINE",
"493 571 OFFCURVE",
"482 445 OFFCURVE",
"461 257 CURVE SMOOTH",
"454 190 OFFCURVE",
"419 119 OFFCURVE",
"383 98 CURVE",
"278 87 OFFCURVE",
"236 142 OFFCURVE",
"218 209 CURVE SMOOTH",
"201 273 OFFCURVE",
"225 586 OFFCURVE",
"246 614 CURVE SMOOTH",
"262 636 OFFCURVE",
"289 648 OFFCURVE",
"309 650 CURVE",
"314 699 LINE",
"59 700 LINE",
"50 653 LINE",
"103 641 LINE",
"91 485 OFFCURVE",
"82 380 OFFCURVE",
"74 271 CURVE SMOOTH",
"68 189 OFFCURVE",
"81 127 OFFCURVE",
"113 82 CURVE SMOOTH",
"174 -4 OFFCURVE",
"302 -34 OFFCURVE",
"410 14 CURVE SMOOTH",
"498 53 OFFCURVE",
"555 157 OFFCURVE",
"567 280 CURVE SMOOTH",
"579 404 OFFCURVE",
"585 505 OFFCURVE",
"596 572 CURVE SMOOTH",
"602 610 OFFCURVE",
"637 648 OFFCURVE",
"678 650 CURVE",
"683 700 LINE",
"436 701 LINE"
);
}
);
width = 680;
}
);
leftKerningGroup = I;
rightKerningGroup = I;
unicode = 0055;
},
{
glyphname = V;
lastChange = "2015-11-20 20:59:55 +0000";
layers = (
{
background = {
paths = (
{
closed = 1;
nodes = (
"689 193 LINE",
"659 344 OFFCURVE",
"604 594 OFFCURVE",
"602 605 CURVE SMOOTH",
"598 634 OFFCURVE",
"611 650 OFFCURVE",
"644 650 CURVE",
"649 700 LINE",
"406 700 LINE",
"397 653 LINE",
"444 643 LINE",
"485 519 OFFCURVE",
"543 278 OFFCURVE",
"609 0 CURVE",
"611 0 LINE",
"710 58 LINE"
);
},
{
closed = 1;
nodes = (
"453 424 OFFCURVE",
"410 304 OFFCURVE",
"367 193 CURVE",
"343 349 OFFCURVE",
"287 613 OFFCURVE",
"284 618 CURVE SMOOTH",
"278 629 OFFCURVE",
"268 641 OFFCURVE",
"246 651 CURVE",
"327 651 LINE",
"332 700 LINE",
"89 700 LINE",
"80 653 LINE",
"131 647 LINE",
"164 569 OFFCURVE",
"264 110 OFFCURVE",
"283 0 CURVE",
"388 0 LINE",
"558 511 LINE",
"491 538 LINE"
);
},
{
closed = 1;
nodes = (
"820 614 OFFCURVE",
"790 518 OFFCURVE",
"774 468 CURVE SMOOTH",
"656 87 OFFCURVE",
"655 75 OFFCURVE",
"609 0 CURVE",
"713 0 LINE",
"803 276 OFFCURVE",
"890 534 OFFCURVE",
"909 580 CURVE SMOOTH",
"934 640 OFFCURVE",
"973 650 OFFCURVE",
"999 650 CURVE",
"1004 700 LINE",
"758 700 LINE",
"749 653 LINE",
"812 644 LINE"
);
}
);
};
layerId = "71FD7A9F-05F5-4D76-8D4F-547475A05E4C";
name = "Regular Italic";
paths = (
{
closed = 1;
nodes = (
"387 87 LINE",
"372 169 OFFCURVE",
"266 610 OFFCURVE",
"262 617 CURVE SMOOTH",
"255 628 OFFCURVE",
"238 642 OFFCURVE",
"215 650 CURVE",
"308 650 LINE",
"313 700 LINE",
"52 700 LINE",
"43 653 LINE",
"97 645 LINE",
"121 613 OFFCURVE",
"166 448 OFFCURVE",
"199 327 CURVE SMOOTH",
"228 220 OFFCURVE",
"268 44 OFFCURVE",
"281 0 CURVE"
);
},
{
closed = 1;
nodes = (
"511 608 OFFCURVE",
"467 463 OFFCURVE",
"448 412 CURVE SMOOTH",
"348 144 OFFCURVE",
"304 44 OFFCURVE",
"283 0 CURVE",
"394 0 LINE",
"481 270 OFFCURVE",
"585 545 OFFCURVE",
"604 592 CURVE SMOOTH",
"623 638 OFFCURVE",
"659 650 OFFCURVE",
"689 650 CURVE",
"694 700 LINE",
"443 700 LINE",
"434 653 LINE",
"501 640 LINE"
);
}
);
width = 666;
}
);
leftKerningGroup = V;
rightKerningGroup = V;
unicode = 0056;
},
{
glyphname = W;
lastChange = "2015-11-20 21:02:36 +0000";
layers = (
{
background = {
paths = (
{
closed = 1;
nodes = (
"357 87 LINE",
"340 169 OFFCURVE",
"231 610 OFFCURVE",
"227 617 CURVE SMOOTH",
"220 628 OFFCURVE",
"203 642 OFFCURVE",
"180 650 CURVE",
"272 650 LINE",
"277 700 LINE",
"21 700 LINE",
"13 653 LINE",
"67 645 LINE",
"91 613 OFFCURVE",
"139 448 OFFCURVE",
"174 327 CURVE SMOOTH",
"205 220 OFFCURVE",
"248 44 OFFCURVE",
"262 0 CURVE"
);
},
{
closed = 1;
nodes = (
"468 608 OFFCURVE",
"425 463 OFFCURVE",
"409 412 CURVE SMOOTH",
"327 144 OFFCURVE",
"284 44 OFFCURVE",
"264 0 CURVE",
"362 0 LINE",
"444 270 OFFCURVE",
"541 536 OFFCURVE",
"559 583 CURVE",
"429 678 LINE",
"430 665 LINE",
"391 653 LINE",
"458 640 LINE"
);
},
{
closed = 1;
nodes = (
"788 608 OFFCURVE",
"744 463 OFFCURVE",
"729 412 CURVE SMOOTH",
"650 144 OFFCURVE",
"608 44 OFFCURVE",
"588 0 CURVE",
"686 0 LINE",
"768 270 OFFCURVE",
"864 545 OFFCURVE",
"882 592 CURVE SMOOTH",
"900 638 OFFCURVE",
"935 650 OFFCURVE",
"965 650 CURVE",
"970 700 LINE",
"719 700 LINE",
"711 653 LINE",
"778 640 LINE"
);
},
{
closed = 1;
nodes = (
"655 394 LINE",
"614 478 OFFCURVE",
"579 521 OFFCURVE",
"569 574 CURVE SMOOTH",
"562 610 OFFCURVE",
"546 651 OFFCURVE",
"605 651 CURVE",
"610 700 LINE",
"357 700 LINE",
"348 653 LINE",
"395 643 LINE",
"468 505 OFFCURVE",
"523 388 OFFCURVE",
"554 321 CURVE"
);
}
);
};
guideLines = (
{
position = "{713, 211}";
}
);
layerId = "71FD7A9F-05F5-4D76-8D4F-547475A05E4C";
name = "Regular Italic";
paths = (
{
closed = 1;
nodes = (
"652 193 LINE",
"622 344 OFFCURVE",
"567 594 OFFCURVE",
"565 605 CURVE SMOOTH",
"561 634 OFFCURVE",
"574 650 OFFCURVE",
"607 650 CURVE",
"612 700 LINE",
"369 700 LINE",
"360 653 LINE",
"407 643 LINE",
"448 519 OFFCURVE",
"506 278 OFFCURVE",
"572 0 CURVE",
"574 0 LINE",
"673 58 LINE"
);
},
{
closed = 1;
nodes = (
"416 424 OFFCURVE",
"373 304 OFFCURVE",
"330 193 CURVE",
"306 349 OFFCURVE",
"250 613 OFFCURVE",
"247 618 CURVE SMOOTH",
"241 629 OFFCURVE",
"231 641 OFFCURVE",
"209 651 CURVE",
"290 651 LINE",
"295 700 LINE",
"52 700 LINE",
"43 653 LINE",
"94 647 LINE",
"127 569 OFFCURVE",
"227 110 OFFCURVE",
"246 0 CURVE",
"351 0 LINE",
"521 511 LINE",
"454 538 LINE"
);
},
{
closed = 1;
nodes = (
"783 614 OFFCURVE",
"753 518 OFFCURVE",
"737 468 CURVE SMOOTH",
"619 87 OFFCURVE",
"618 75 OFFCURVE",
"572 0 CURVE",
"676 0 LINE",
"766 276 OFFCURVE",
"853 534 OFFCURVE",
"872 580 CURVE SMOOTH",
"897 640 OFFCURVE",
"936 650 OFFCURVE",
"962 650 CURVE",
"967 700 LINE",
"721 700 LINE",
"712 653 LINE",
"775 644 LINE"
);
}
);
width = 939;
}
);
leftKerningGroup = V;
leftMetricsKey = V;
rightKerningGroup = V;
rightMetricsKey = V;
unicode = 0057;
},
{
glyphname = X;
lastChange = "2015-11-20 21:26:22 +0000";
layers = (
{
background = {
paths = (
{
closed = 1;
nodes = (
"402 193 LINE",
"371 344 OFFCURVE",
"320 611 OFFCURVE",
"317 617 CURVE",
"310 628 OFFCURVE",
"300 640 OFFCURVE",
"277 650 CURVE",
"362 650 LINE",
"367 700 LINE",
"122 700 LINE",
"117 653 LINE",
"163 647 LINE",
"196 544 OFFCURVE",
"256 278 OFFCURVE",
"318 0 CURVE",
"320 0 LINE",
"426 58 LINE"
);
},
{
closed = 1;
nodes = (
"167 425 OFFCURVE",
"130 309 OFFCURVE",
"84 198 CURVE",
"55 354 OFFCURVE",
"-2 613 OFFCURVE",
"-5 618 CURVE SMOOTH",
"-12 629 OFFCURVE",
"-22 641 OFFCURVE",
"-45 651 CURVE",
"35 651 LINE",
"40 700 LINE",
"-211 700 LINE",
"-216 653 LINE",
"-164 647 LINE",
"-129 569 OFFCURVE",
"-17 110 OFFCURVE",
"1 0 CURVE",
"122 0 LINE",
"264 512 LINE",
"201 539 LINE"
);
},
{
closed = 1;
nodes = (
"521 614 OFFCURVE",
"503 518 OFFCURVE",
"488 468 CURVE SMOOTH",
"441 312 OFFCURVE",
"362 75 OFFCURVE",
"318 0 CURVE",
"431 0 LINE",
"519 278 OFFCURVE",
"597 534 OFFCURVE",
"614 580 CURVE SMOOTH",
"637 640 OFFCURVE",
"679 650 OFFCURVE",
"705 650 CURVE",
"710 700 LINE",
"464 700 LINE",
"459 653 LINE",
"511 644 LINE"
);
}
);
};
guideLines = (
{
angle = -96;
position = "{669, 306}";
}
);
layerId = "71FD7A9F-05F5-4D76-8D4F-547475A05E4C";
name = "Regular Italic";
paths = (
{
closed = 1;
nodes = (
"308 341 LINE",
"345 247 OFFCURVE",
"391 130 OFFCURVE",
"413 82 CURVE SMOOTH",
"418 71 OFFCURVE",
"430 59 OFFCURVE",
"453 49 CURVE",
"373 49 LINE",
"368 0 LINE",
"633 0 LINE",
"642 47 LINE",
"592 55 LINE",
"524 158 OFFCURVE",
"449 318 OFFCURVE",
"407 403 CURVE"
);
},
{
closed = 1;
nodes = (
"486 562 OFFCURVE",
"406 444 OFFCURVE",
"364 394 CURVE",
"401 305 LINE",
"469 398 OFFCURVE",
"590 586 OFFCURVE",
"619 615 CURVE SMOOTH",
"643 639 OFFCURVE",
"667 650 OFFCURVE",
"694 650 CURVE",
"699 700 LINE",
"469 700 LINE",
"460 653 LINE",
"514 645 LINE"
);
},
{
closed = 1;
nodes = (
"243 113 OFFCURVE",
"325 239 OFFCURVE",
"356 289 CURVE",
"312 361 LINE",
"254 268 OFFCURVE",
"143 112 OFFCURVE",
"112 85 CURVE SMOOTH",
"84 61 OFFCURVE",
"60 50 OFFCURVE",
"33 50 CURVE",
"28 0 LINE",
"249 0 LINE",
"258 47 LINE",
"209 55 LINE"
);
},
{
closed = 1;
nodes = (
"400 394 LINE",
"359 478 OFFCURVE",
"337 521 OFFCURVE",
"318 574 CURVE SMOOTH",
"305 610 OFFCURVE",
"291 651 OFFCURVE",
"350 651 CURVE",
"355 700 LINE",
"102 700 LINE",
"93 653 LINE",
"140 643 LINE",
"213 505 OFFCURVE",
"268 388 OFFCURVE",
"299 321 CURVE"
);
}
);
width = 672;
}
);
leftKerningGroup = X;
rightKerningGroup = X;
unicode = 0058;
},
{
glyphname = Y;
lastChange = "2015-11-20 18:55:23 +0000";
layers = (
{
background = {
paths = (
{
closed = 1;
nodes = (
"268 341 LINE",
"305 247 OFFCURVE",
"351 130 OFFCURVE",
"373 82 CURVE SMOOTH",
"378 71 OFFCURVE",
"390 59 OFFCURVE",
"413 49 CURVE",
"333 49 LINE",
"328 0 LINE",
"594 0 LINE",
"599 47 LINE",
"552 55 LINE",
"484 158 OFFCURVE",
"409 318 OFFCURVE",
"367 403 CURVE"
);
},
{
closed = 1;
nodes = (
"446 562 OFFCURVE",
"363 446 OFFCURVE",
"321 396 CURVE",
"356 320 LINE",
"424 413 OFFCURVE",
"550 586 OFFCURVE",
"579 615 CURVE SMOOTH",
"603 639 OFFCURVE",
"627 650 OFFCURVE",
"654 650 CURVE",
"659 700 LINE",
"425 700 LINE",
"420 653 LINE",
"474 645 LINE"
);
},
{
closed = 1;
nodes = (
"203 113 OFFCURVE",
"292 257 OFFCURVE",
"323 307 CURVE",
"274 361 LINE",
"216 268 OFFCURVE",
"103 112 OFFCURVE",
"72 85 CURVE SMOOTH",
"44 61 OFFCURVE",
"20 50 OFFCURVE",
"-7 50 CURVE",
"-12 0 LINE",
"211 0 LINE",
"216 47 LINE",
"169 55 LINE"
);
},
{
closed = 1;
nodes = (
"360 394 LINE",
"319 478 OFFCURVE",
"297 521 OFFCURVE",
"278 574 CURVE SMOOTH",
"265 610 OFFCURVE",
"251 651 OFFCURVE",
"310 651 CURVE",
"315 700 LINE",
"58 700 LINE",
"53 653 LINE",
"100 643 LINE",
"173 505 OFFCURVE",
"228 388 OFFCURVE",
"259 321 CURVE"
);
}
);
};
layerId = "71FD7A9F-05F5-4D76-8D4F-547475A05E4C";
name = "Regular Italic";
paths = (
{
closed = 1;
nodes = (
"271 267 LINE",
"260 158 OFFCURVE",
"244 104 OFFCURVE",
"247 88 CURVE SMOOTH",
"248 79 OFFCURVE",
"256 62 OFFCURVE",
"294 50 CURVE",
"189 50 LINE",
"185 0 LINE",
"451 0 LINE",
"459 47 LINE",
"403 55 LINE",
"391 114 OFFCURVE",
"386 205 OFFCURVE",
"398 283 CURVE"
);
},
{
closed = 1;
nodes = (
"461 587 OFFCURVE",
"337 284 OFFCURVE",
"295 234 CURVE",
"367 209 LINE",
"414 302 OFFCURVE",
"553 586 OFFCURVE",
"581 615 CURVE SMOOTH",
"605 639 OFFCURVE",
"629 650 OFFCURVE",
"656 650 CURVE",
"661 700 LINE",
"449 700 LINE",
"440 653 LINE",
"490 645 LINE"
);
},
{
closed = 1;
nodes = (
"381 319 LINE",
"334 412 OFFCURVE",
"270 583 OFFCURVE",
"265 606 CURVE SMOOTH",
"260 628 OFFCURVE",
"265 651 OFFCURVE",
"306 651 CURVE",
"311 700 LINE",
"62 700 LINE",
"53 653 LINE",
"98 645 LINE",
"207 428 OFFCURVE",
"242 333 OFFCURVE",
"283 216 CURVE"
);
}
);
width = 623;
}
);
leftKerningGroup = V;
rightKerningGroup = V;
unicode = 0059;
},
{
glyphname = Z;
lastChange = "2015-11-20 21:03:13 +0000";
layers = (
{
layerId = "71FD7A9F-05F5-4D76-8D4F-547475A05E4C";
name = "Regular Italic";
paths = (
{
closed = 1;
nodes = (
"372 695 OFFCURVE",
"252 700 OFFCURVE",
"85 700 CURVE",
"39 517 LINE",
"84 507 LINE",
"99 552 OFFCURVE",
"139 565 OFFCURVE",
"233 572 CURVE SMOOTH",
"276 575 OFFCURVE",
"313 577 OFFCURVE",
"357 579 CURVE",
"333 521 OFFCURVE",
"310 487 OFFCURVE",
"234 353 CURVE",
"126 175 OFFCURVE",
"76 112 OFFCURVE",
"38 80 CURVE SMOOTH",
"21 65 OFFCURVE",
"8 55 OFFCURVE",
"-3 50 CURVE",
"9 0 LINE",
"164 7 OFFCURVE",
"333 0 OFFCURVE",
"475 0 CURVE",
"526 185 LINE",
"481 194 LINE",
"467 146 OFFCURVE",
"447 140 OFFCURVE",
"366 133 CURVE SMOOTH",
"318 129 OFFCURVE",
"257 126 OFFCURVE",
"190 123 CURVE",
"230 187 OFFCURVE",
"244 215 OFFCURVE",
"328 351 CURVE SMOOTH",
"413 489 OFFCURVE",
"473 600 OFFCURVE",
"503 624 CURVE SMOOTH",
"516 635 OFFCURVE",
"532 647 OFFCURVE",
"542 653 CURVE",
"527 700 LINE"
);
}
);
width = 542;
}
);
leftKerningGroup = X;
rightKerningGroup = X;
unicode = 005A;
},
{
glyphname = a;
lastChange = "2015-11-20 20:36:28 +0000";
layers = (
{
background = {
paths = (
{
closed = 1;
nodes = (
"103 4 OFFCURVE",
"142 -5 OFFCURVE",
"177 -2 CURVE",
"224 39 OFFCURVE",
"249 70 OFFCURVE",
"293 131 CURVE",
"290 113 OFFCURVE",
"283 39 OFFCURVE",
"291 31 CURVE SMOOTH",
"303 19 OFFCURVE",
"435 -6 OFFCURVE",
"446 -1 CURVE",
"457 43 LINE",
"442 50 OFFCURVE",
"416 73 OFFCURVE",
"417 124 CURVE SMOOTH",
"418 182 OFFCURVE",
"431 333 OFFCURVE",
"444 423 CURVE SMOOTH",
"462 545 OFFCURVE",
"488 673 OFFCURVE",
"481 681 CURVE SMOOTH",
"469 691 OFFCURVE",
"333 740 OFFCURVE",
"320 730 CURVE",
"308 679 LINE",
"326 670 OFFCURVE",
"347 612 OFFCURVE",
"348 564 CURVE SMOOTH",
"349 523 OFFCURVE",
"347 499 OFFCURVE",
"343 450 CURVE",
"298 474 OFFCURVE",
"250 484 OFFCURVE",
"200 482 CURVE",
"28 432 OFFCURVE",
"-31 174 OFFCURVE",
"77 37 CURVE SMOOTH"
);
},
{
closed = 1;
nodes = (
"255 411 OFFCURVE",
"300 379 OFFCURVE",
"327 340 CURVE",
"311 251 LINE",
"284 194 OFFCURVE",
"206 114 OFFCURVE",
"201 109 CURVE",
"190 114 OFFCURVE",
"179 124 OFFCURVE",
"170 146 CURVE SMOOTH",
"137 228 OFFCURVE",
"141 365 OFFCURVE",
"219 415 CURVE"
);
}
);
};
guideLines = (
{
angle = -20;
position = "{404, 503}";
}
);
layerId = "71FD7A9F-05F5-4D76-8D4F-547475A05E4C";
name = "Regular Italic";
paths = (
{
closed = 1;
nodes = (
"266 77 OFFCURVE",
"300 147 OFFCURVE",
"308 153 CURVE",
"308 153 OFFCURVE",
"352 282 OFFCURVE",
"333 289 CURVE",
"317 254 OFFCURVE",
"253 157 OFFCURVE",
"201 110 CURVE",
"194 110 OFFCURVE",
"181 121 OFFCURVE",
"171 144 CURVE SMOOTH",
"132 239 OFFCURVE",
"148 371 OFFCURVE",
"218 414 CURVE",
"268 414 OFFCURVE",
"329 349 OFFCURVE",
"340 316 CURVE",
"340 316 OFFCURVE",
"387 357 OFFCURVE",
"387 413 CURVE",
"345 462 OFFCURVE",
"270 483 OFFCURVE",
"202 483 CURVE",
"28 433 OFFCURVE",
"-27 171 OFFCURVE",
"74 41 CURVE SMOOTH",
"105 1 OFFCURVE",
"138 -3 OFFCURVE",
"176 -3 CURVE"
);
},
{
closed = 1;
nodes = (
"430 5 OFFCURVE",
"456 17 OFFCURVE",
"472 28 CURVE",
"468 74 LINE",
"455 69 OFFCURVE",
"429 62 OFFCURVE",
"414 62 CURVE",
"386 91 OFFCURVE",
"430 322 OFFCURVE",
"438 352 CURVE SMOOTH",
"446 383 OFFCURVE",
"455 424 OFFCURVE",
"466 456 CURVE",
"454 467 OFFCURVE",
"433 475 OFFCURVE",
"420 479 CURVE SMOOTH",
"402 484 OFFCURVE",
"335 399 OFFCURVE",
"330 371 CURVE",
"325 364 OFFCURVE",
"323 362 OFFCURVE",
"322 347 CURVE SMOOTH",
"315 243 OFFCURVE",
"274 68 OFFCURVE",
"290 42 CURVE SMOOTH",
"300 26 OFFCURVE",
"351 -2 OFFCURVE",
"401 -1 CURVE"
);
}
);
width = 504;
}
);
leftKerningGroup = o;
leftMetricsKey = o;
rightKerningGroup = i;
rightMetricsKey = i;
unicode = 0061;
},
{
glyphname = b;
lastChange = "2015-11-20 19:54:09 +0000";
layers = (
{
background = {
paths = (
{
closed = 1;
nodes = (
"217 398 OFFCURVE",
"183 328 OFFCURVE",
"175 322 CURVE",
"175 322 OFFCURVE",
"131 193 OFFCURVE",
"150 186 CURVE",
"166 221 OFFCURVE",
"230 318 OFFCURVE",
"282 365 CURVE",
"289 365 OFFCURVE",
"302 354 OFFCURVE",
"312 331 CURVE SMOOTH",
"351 236 OFFCURVE",
"335 104 OFFCURVE",
"265 61 CURVE",
"215 61 OFFCURVE",
"154 126 OFFCURVE",
"143 159 CURVE",
"143 159 OFFCURVE",
"96 118 OFFCURVE",
"96 62 CURVE",
"138 13 OFFCURVE",
"213 -8 OFFCURVE",
"281 -8 CURVE",
"455 42 OFFCURVE",
"510 304 OFFCURVE",
"409 434 CURVE SMOOTH",
"378 474 OFFCURVE",
"345 478 OFFCURVE",
"307 478 CURVE"
);
},
{
closed = 1;
nodes = (
"53 470 OFFCURVE",
"27 458 OFFCURVE",
"11 447 CURVE",
"15 401 LINE",
"28 406 OFFCURVE",
"54 413 OFFCURVE",
"69 413 CURVE",
"97 384 OFFCURVE",
"53 153 OFFCURVE",
"45 123 CURVE SMOOTH",
"37 92 OFFCURVE",
"28 51 OFFCURVE",
"17 19 CURVE",
"29 8 OFFCURVE",
"50 0 OFFCURVE",
"63 -4 CURVE SMOOTH",
"81 -9 OFFCURVE",
"148 76 OFFCURVE",
"153 104 CURVE",
"158 111 OFFCURVE",
"160 113 OFFCURVE",
"161 128 CURVE SMOOTH",
"168 232 OFFCURVE",
"209 407 OFFCURVE",
"193 433 CURVE SMOOTH",
"183 449 OFFCURVE",
"132 477 OFFCURVE",
"82 476 CURVE"
);
}
);
};
guideLines = (
{
angle = -12;
position = "{183, 724}";
},
{
angle = -20;
position = "{21, -2}";
}
);
layerId = "71FD7A9F-05F5-4D76-8D4F-547475A05E4C";
name = "Regular Italic";
paths = (
{
closed = 1;
nodes = (
"369 480 OFFCURVE",
"345 484 OFFCURVE",
"306 482 CURVE",
"273 457 OFFCURVE",
"215 381 OFFCURVE",
"191 347 CURVE",
"216 543 OFFCURVE",
"240 684 OFFCURVE",
"227 705 CURVE SMOOTH",
"219 718 OFFCURVE",
"81 746 OFFCURVE",
"68 739 CURVE",
"58 697 LINE",
"65 693 OFFCURVE",
"86 678 OFFCURVE",
"100 666 CURVE",
"102 647 OFFCURVE",
"102 606 OFFCURVE",
"100 569 CURVE SMOOTH",
"91 433 OFFCURVE",
"60 203 OFFCURVE",
"45 123 CURVE SMOOTH",
"39 91 OFFCURVE",
"28 49 OFFCURVE",
"16 18 CURVE",
"23 14 OFFCURVE",
"38 2 OFFCURVE",
"59 -3 CURVE SMOOTH",
"72 -6 OFFCURVE",
"79 0 OFFCURVE",
"116 42 CURVE",
"151 17 OFFCURVE",
"220 -11 OFFCURVE",
"284 -4 CURVE",
"460 45 OFFCURVE",
"509 312 OFFCURVE",
"401 442 CURVE SMOOTH"
);
},
{
closed = 1;
nodes = (
"264 63 LINE SMOOTH",
"264 63 OFFCURVE",
"211 68 OFFCURVE",
"158 137 CURVE",
"175 232 LINE",
"208 290 OFFCURVE",
"265 351 OFFCURVE",
"283 368 CURVE",
"290 368 OFFCURVE",
"306 354 OFFCURVE",
"315 329 CURVE SMOOTH",
"345 247 OFFCURVE",
"343 106 OFFCURVE",
"264 63 CURVE"
);
}
);
width = 482;
}
);
leftKerningGroup = l;
leftMetricsKey = l;
rightKerningGroup = o;
rightMetricsKey = o;
unicode = 0062;
},
{
glyphname = c;
lastChange = "2015-11-20 19:29:46 +0000";
layers = (
{
background = {
paths = (
{
closed = 1;
nodes = (
"291 336 OFFCURVE",
"281 410 OFFCURVE",
"221 410 CURVE",
"137 356 OFFCURVE",
"136 219 OFFCURVE",
"167 144 CURVE SMOOTH",
"184 104 OFFCURVE",
"220 79 OFFCURVE",
"248 76 CURVE SMOOTH",
"305 70 OFFCURVE",
"356 106 OFFCURVE",
"372 122 CURVE",
"377 103 OFFCURVE",
"381 87 OFFCURVE",
"384 67 CURVE",
"375 57 OFFCURVE",
"334 23 OFFCURVE",
"290 10 CURVE SMOOTH",
"228 -8 OFFCURVE",
"132 -11 OFFCURVE",
"77 53 CURVE SMOOTH",
"-32 179 OFFCURVE",
"28 433 OFFCURVE",
"207 483 CURVE",
"338 499 OFFCURVE",
"390 441 OFFCURVE",
"402 377 CURVE SMOOTH",
"423 263 OFFCURVE",
"315 152 OFFCURVE",
"143 175 CURVE",
"83 207 OFFCURVE",
"90 206 OFFCURVE",
"137 229 CURVE",
"228 215 OFFCURVE",
"291 280 OFFCURVE",
"291 318 CURVE SMOOTH"
);
},
{
closed = 1;
nodes = (
"-47 439 OFFCURVE",
"-28 481 OFFCURVE",
"-28 481 CURVE",
"-25 487 OFFCURVE",
"123 459 OFFCURVE",
"133 442 CURVE SMOOTH",
"142 427 OFFCURVE",
"126 315 OFFCURVE",
"118 259 CURVE",
"128 304 OFFCURVE",
"167 378 OFFCURVE",
"221 452 CURVE",
"228 458 OFFCURVE",
"273 483 OFFCURVE",
"294 482 CURVE SMOOTH",
"327 480 OFFCURVE",
"356 465 OFFCURVE",
"365 440 CURVE",
"364 428 OFFCURVE",
"325 336 OFFCURVE",
"303 308 CURVE",
"278 326 OFFCURVE",
"253 342 OFFCURVE",
"228 352 CURVE",
"199 326 OFFCURVE",
"150 266 OFFCURVE",
"110 113 CURVE",
"115 44 OFFCURVE",
"114 -3 OFFCURVE",
"98 -4 CURVE SMOOTH",
"60 -6 OFFCURVE",
"-32 17 OFFCURVE",
"-29 37 CURVE SMOOTH",
"-23 79 OFFCURVE",
"7 313 OFFCURVE",
"8 344 CURVE SMOOTH",
"10 395 OFFCURVE",
"-1 411 OFFCURVE",
"-32 430 CURVE SMOOTH"
);
}
);
};
layerId = "71FD7A9F-05F5-4D76-8D4F-547475A05E4C";
name = "Regular Italic";
paths = (
{
closed = 1;
nodes = (
"297 357 OFFCURVE",
"258 381 OFFCURVE",
"230 393 CURVE",
"149 346 OFFCURVE",
"134 216 OFFCURVE",
"166 146 CURVE SMOOTH",
"182 111 OFFCURVE",
"212 79 OFFCURVE",
"249 76 CURVE SMOOTH",
"305 72 OFFCURVE",
"344 91 OFFCURVE",
"362 100 CURVE",
"368 50 LINE",
"340 30 OFFCURVE",
"305 5 OFFCURVE",
"226 -2 CURVE",
"160 -6 OFFCURVE",
"114 13 OFFCURVE",
"74 57 CURVE",
"-28 169 OFFCURVE",
"28 459 OFFCURVE",
"226 483 CURVE",
"294 488 OFFCURVE",
"364 471 OFFCURVE",
"398 430 CURVE",
"387 394 OFFCURVE",
"360 344 OFFCURVE",
"341 321 CURVE"
);
}
);
width = 398;
}
);
leftKerningGroup = o;
leftMetricsKey = o;
unicode = 0063;
},
{
glyphname = d;
lastChange = "2015-11-20 19:22:06 +0000";
layers = (
{
background = {
paths = (
{
closed = 1;
nodes = (
"602 483 LINE",
"522 437 OFFCURVE",
"451 307 OFFCURVE",
"430 276 CURVE",
"453 457 OFFCURVE",
"496 689 OFFCURVE",
"475 708 CURVE SMOOTH",
"463 719 OFFCURVE",
"338 747 OFFCURVE",
"318 740 CURVE",
"308 698 LINE",
"350 668 LINE",
"353 619 OFFCURVE",
"343 479 OFFCURVE",
"328 353 CURVE SMOOTH",
"312 217 OFFCURVE",
"285 45 OFFCURVE",
"283 34 CURVE",
"283 22 OFFCURVE",
"359 -3 OFFCURVE",
"407 -3 CURVE SMOOTH",
"422 -3 OFFCURVE",
"424 43 OFFCURVE",
"417 132 CURVE",
"459 236 OFFCURVE",
"540 334 OFFCURVE",
"568 360 CURVE",
"540 255 OFFCURVE",
"520 75 OFFCURVE",
"539 44 CURVE SMOOTH",
"549 28 OFFCURVE",
"601 -2 OFFCURVE",
"655 -2 CURVE",
"687 7 OFFCURVE",
"706 17 OFFCURVE",
"718 25 CURVE",
"714 70 LINE",
"700 65 OFFCURVE",
"679 59 OFFCURVE",
"664 59 CURVE",
"644 124 OFFCURVE",
"685 371 OFFCURVE",
"705 444 CURVE"
);
}
);
};
guideLines = (
{
position = "{316, 410}";
},
{
angle = -18;
position = "{515, 111}";
},
{
position = "{1183, 374}";
}
);
layerId = "71FD7A9F-05F5-4D76-8D4F-547475A05E4C";
name = "Regular Italic";
paths = (
{
closed = 1;
nodes = (
"254 63 OFFCURVE",
"310 159 OFFCURVE",
"317 167 CURVE",
"317 167 OFFCURVE",
"335 254 OFFCURVE",
"316 261 CURVE",
"298 216 OFFCURVE",
"221 128 OFFCURVE",
"202 111 CURVE",
"195 111 OFFCURVE",
"176 130 OFFCURVE",
"166 160 CURVE SMOOTH",
"139 240 OFFCURVE",
"146 374 OFFCURVE",
"221 417 CURVE",
"268 410 OFFCURVE",
"320 364 OFFCURVE",
"335 328 CURVE",
"335 328 OFFCURVE",
"390 359 OFFCURVE",
"390 415 CURVE",
"359 456 OFFCURVE",
"278 488 OFFCURVE",
"201 484 CURVE",
"27 434 OFFCURVE",
"-29 171 OFFCURVE",
"77 41 CURVE SMOOTH",
"109 2 OFFCURVE",
"139 0 OFFCURVE",
"177 0 CURVE"
);
},
{
closed = 1;
nodes = (
"438 5 OFFCURVE",
"458 15 OFFCURVE",
"476 28 CURVE",
"472 74 LINE",
"457 69 OFFCURVE",
"432 62 OFFCURVE",
"421 62 CURVE",
"398 88 OFFCURVE",
"426 265 OFFCURVE",
"450 432 CURVE SMOOTH",
"463 521 OFFCURVE",
"491 684 OFFCURVE",
"476 707 CURVE SMOOTH",
"469 717 OFFCURVE",
"335 748 OFFCURVE",
"320 740 CURVE",
"310 698 LINE",
"326 688 OFFCURVE",
"336 680 OFFCURVE",
"352 668 CURVE",
"355 607 OFFCURVE",
"341 442 OFFCURVE",
"325 326 CURVE SMOOTH",
"312 235 OFFCURVE",
"276 58 OFFCURVE",
"299 40 CURVE SMOOTH",
"307 34 OFFCURVE",
"358 -2 OFFCURVE",
"413 -2 CURVE"
);
}
);
width = 508;
}
);
leftKerningGroup = o;
leftMetricsKey = o;
rightMetricsKey = i;
unicode = 0064;
},
{
glyphname = e;
lastChange = "2015-11-21 14:32:04 +0000";
layers = (
{
background = {
paths = (
{
closed = 1;
nodes = (
"297 357 OFFCURVE",
"258 381 OFFCURVE",
"230 393 CURVE",
"149 346 OFFCURVE",
"134 216 OFFCURVE",
"166 146 CURVE SMOOTH",
"182 111 OFFCURVE",
"212 79 OFFCURVE",
"249 76 CURVE SMOOTH",
"305 72 OFFCURVE",
"344 91 OFFCURVE",
"362 100 CURVE",
"368 50 LINE",
"340 30 OFFCURVE",
"305 5 OFFCURVE",
"226 -2 CURVE",
"160 -6 OFFCURVE",
"114 13 OFFCURVE",
"74 57 CURVE",
"-28 169 OFFCURVE",
"28 459 OFFCURVE",
"226 483 CURVE",
"294 488 OFFCURVE",
"364 471 OFFCURVE",
"398 430 CURVE",
"387 394 OFFCURVE",
"360 344 OFFCURVE",
"341 321 CURVE"
);
}
);
};
layerId = "71FD7A9F-05F5-4D76-8D4F-547475A05E4C";
name = "Regular Italic";
paths = (
{
closed = 1;
nodes = (
"291 347 OFFCURVE",
"273 394 OFFCURVE",
"229 416 CURVE",
"145 362 OFFCURVE",
"136 216 OFFCURVE",
"167 144 CURVE SMOOTH",
"184 105 OFFCURVE",
"212 81 OFFCURVE",
"247 75 CURVE SMOOTH",
"289 68 OFFCURVE",
"348 87 OFFCURVE",
"363 100 CURVE",
"370 53 LINE",
"361 43 OFFCURVE",
"339 22 OFFCURVE",
"293 8 CURVE SMOOTH",
"235 -10 OFFCURVE",
"141 -15 OFFCURVE",
"80 51 CURVE SMOOTH",
"-28 167 OFFCURVE",
"17 445 OFFCURVE",
"241 486 CURVE",
"351 486 OFFCURVE",
"389 441 OFFCURVE",
"401 393 CURVE SMOOTH",
"436 257 OFFCURVE",
"315 151 OFFCURVE",
"145 174 CURVE",
"85 206 OFFCURVE",
"101 206 OFFCURVE",
"148 229 CURVE",
"227 219 OFFCURVE",
"295 287 OFFCURVE",
"298 304 CURVE"
);
}
);
width = 422;
}
);
leftKerningGroup = o;
leftMetricsKey = o;
rightKerningGroup = o;
rightMetricsKey = "=o";
unicode = 0065;
},
{
glyphname = f;
lastChange = "2015-11-21 14:31:14 +0000";
layers = (
{
background = {
paths = (
{
closed = 1;
nodes = (
"109 -217 OFFCURVE",
"137 -133 OFFCURVE",
"153 13 CURVE SMOOTH",
"161 87 OFFCURVE",
"189 343 OFFCURVE",
"193 390 CURVE",
"224 594 OFFCURVE",
"247 638 OFFCURVE",
"278 679 CURVE",
"290 679 OFFCURVE",
"318 671 OFFCURVE",
"342 657 CURVE",
"359 701 LINE",
"335 721 OFFCURVE",
"297 737 OFFCURVE",
"263 743 CURVE",
"156 717 OFFCURVE",
"107 654 OFFCURVE",
"93 494 CURVE SMOOTH",
"57 90 LINE",
"31 -114 OFFCURVE",
"11 -165 OFFCURVE",
"-4 -185 CURVE",
"-18 -183 OFFCURVE",
"-69 -136 OFFCURVE",
"-106 -106 CURVE",
"-128 -136 OFFCURVE",
"-142 -173 OFFCURVE",
"-150 -202 CURVE",
"-118 -232 OFFCURVE",
"-61 -248 OFFCURVE",
"0 -247 CURVE"
);
}
);
};
layerId = "71FD7A9F-05F5-4D76-8D4F-547475A05E4C";
name = "Regular Italic";
paths = (
{
closed = 1;
nodes = (
"172 400 LINE",
"220 399 OFFCURVE",
"273 398 OFFCURVE",
"295 398 CURVE SMOOTH",
"306 398 OFFCURVE",
"307 414 OFFCURVE",
"315 478 CURVE",
"266 475 OFFCURVE",
"218 474 OFFCURVE",
"201 473 CURVE",
"109 572 LINE",
"91 491 LINE",
"88 470 OFFCURVE",
"79 468 OFFCURVE",
"49 466 CURVE SMOOTH",
"34 465 LINE",
"27 401 LINE",
"31 401 OFFCURVE",
"75 401 OFFCURVE",
"90 401 CURVE"
);
},
{
closed = 1;
nodes = (
"142 710 OFFCURVE",
"106 626 OFFCURVE",
"90 480 CURVE SMOOTH",
"82 406 OFFCURVE",
"66 261 OFFCURVE",
"51 103 CURVE",
"32 -65 OFFCURVE",
"20 -142 OFFCURVE",
"-11 -183 CURVE",
"-39 -169 OFFCURVE",
"-85 -127 OFFCURVE",
"-111 -103 CURVE",
"-129 -135 OFFCURVE",
"-145 -164 OFFCURVE",
"-156 -202 CURVE",
"-136 -232 OFFCURVE",
"-59 -252 OFFCURVE",
"-12 -250 CURVE",
"82 -228 OFFCURVE",
"136 -161 OFFCURVE",
"152 -1 CURVE SMOOTH",
"193 403 LINE",
"217 601 OFFCURVE",
"234 642 OFFCURVE",
"254 672 CURVE",
"268 670 OFFCURVE",
"319 623 OFFCURVE",
"356 593 CURVE",
"374 624 OFFCURVE",
"390 661 OFFCURVE",
"400 695 CURVE",
"368 725 OFFCURVE",
"312 741 OFFCURVE",
"251 740 CURVE"
);
}
);
width = 282;
}
);
unicode = 0066;
},
{
glyphname = g;
lastChange = "2015-11-21 15:39:35 +0000";
layers = (
{
background = {
paths = (
{
closed = 1;
nodes = (
"274 77 OFFCURVE",
"308 147 OFFCURVE",
"316 153 CURVE",
"316 153 OFFCURVE",
"360 282 OFFCURVE",
"341 289 CURVE",
"325 254 OFFCURVE",
"261 157 OFFCURVE",
"209 110 CURVE",
"202 110 OFFCURVE",
"189 121 OFFCURVE",
"179 144 CURVE SMOOTH",
"140 239 OFFCURVE",
"156 371 OFFCURVE",
"226 414 CURVE",
"276 414 OFFCURVE",
"337 349 OFFCURVE",
"348 316 CURVE",
"348 316 OFFCURVE",
"395 357 OFFCURVE",
"395 413 CURVE",
"353 462 OFFCURVE",
"278 483 OFFCURVE",
"210 483 CURVE",
"36 433 OFFCURVE",
"-19 171 OFFCURVE",
"82 41 CURVE SMOOTH",
"113 1 OFFCURVE",
"146 -3 OFFCURVE",
"184 -3 CURVE"
);
},
{
closed = 1;
nodes = (
"438 5 OFFCURVE",
"464 17 OFFCURVE",
"480 28 CURVE",
"476 74 LINE",
"463 69 OFFCURVE",
"437 62 OFFCURVE",
"422 62 CURVE",
"394 91 OFFCURVE",
"438 322 OFFCURVE",
"446 352 CURVE SMOOTH",
"454 383 OFFCURVE",
"463 424 OFFCURVE",
"474 456 CURVE",
"462 467 OFFCURVE",
"441 475 OFFCURVE",
"428 479 CURVE SMOOTH",
"410 484 OFFCURVE",
"343 399 OFFCURVE",
"338 371 CURVE",
"333 364 OFFCURVE",
"331 362 OFFCURVE",
"330 347 CURVE SMOOTH",
"323 243 OFFCURVE",
"282 68 OFFCURVE",
"298 42 CURVE SMOOTH",
"308 26 OFFCURVE",
"359 -2 OFFCURVE",
"409 -1 CURVE"
);
},
{
closed = 1;
nodes = (
"389 710 OFFCURVE",
"353 626 OFFCURVE",
"337 480 CURVE SMOOTH",
"329 406 OFFCURVE",
"313 261 OFFCURVE",
"298 103 CURVE",
"279 -65 OFFCURVE",
"267 -142 OFFCURVE",
"236 -183 CURVE",
"208 -169 OFFCURVE",
"162 -127 OFFCURVE",
"136 -103 CURVE",
"118 -135 OFFCURVE",
"102 -164 OFFCURVE",
"91 -202 CURVE",
"111 -232 OFFCURVE",
"188 -252 OFFCURVE",
"235 -250 CURVE",
"329 -228 OFFCURVE",
"383 -161 OFFCURVE",
"399 -1 CURVE SMOOTH",
"440 403 LINE",
"464 601 OFFCURVE",
"481 642 OFFCURVE",
"501 672 CURVE",
"515 670 OFFCURVE",
"566 623 OFFCURVE",
"603 593 CURVE",
"621 624 OFFCURVE",
"637 661 OFFCURVE",
"647 695 CURVE",
"615 725 OFFCURVE",
"559 741 OFFCURVE",
"498 740 CURVE"
);
}
);
};
layerId = "71FD7A9F-05F5-4D76-8D4F-547475A05E4C";
name = "Regular Italic";
paths = (
{
closed = 1;
nodes = (
"416 482 OFFCURVE",
"394 459 OFFCURVE",
"375 433 CURVE",
"332 468 OFFCURVE",
"269 483 OFFCURVE",
"211 483 CURVE",
"37 433 OFFCURVE",
"-22 170 OFFCURVE",
"79 40 CURVE SMOOTH",
"91 24 OFFCURVE",
"114 13 OFFCURVE",
"127 13 CURVE",
"111 -1 OFFCURVE",
"75 -34 OFFCURVE",
"51 -54 CURVE SMOOTH",
"30 -71 OFFCURVE",
"-11 -95 OFFCURVE",
"-32 -108 CURVE",
"-30 -156 LINE",
"-22 -166 OFFCURVE",
"-12 -175 OFFCURVE",
"-6 -180 CURVE SMOOTH",
"18 -200 OFFCURVE",
"96 -253 OFFCURVE",
"239 -253 CURVE",
"348 -222 OFFCURVE",
"400 -140 OFFCURVE",
"406 70 CURVE SMOOTH",
"408 134 OFFCURVE",
"420 240 OFFCURVE",
"445 352 CURVE SMOOTH",
"452 383 OFFCURVE",
"461 424 OFFCURVE",
"471 456 CURVE",
"459 467 OFFCURVE",
"438 475 OFFCURVE",
"425 479 CURVE SMOOTH"
);
},
{
closed = 1;
nodes = (
"137 238 OFFCURVE",
"157 371 OFFCURVE",
"227 414 CURVE",
"263 414 OFFCURVE",
"305 380 OFFCURVE",
"329 349 CURVE",
"329 347 LINE",
"328 324 OFFCURVE",
"323 282 OFFCURVE",
"319 238 CURVE",
"301 210 OFFCURVE",
"229 122 OFFCURVE",
"211 106 CURVE",
"202 106 OFFCURVE",
"186 120 OFFCURVE",
"176 143 CURVE SMOOTH"
);
},
{
closed = 1;
nodes = (
"128 -58 OFFCURVE",
"182 -3 OFFCURVE",
"297 113 CURVE",
"286 -117 OFFCURVE",
"256 -163 OFFCURVE",
"240 -186 CURVE",
"214 -177 OFFCURVE",
"125 -137 OFFCURVE",
"92 -102 CURVE"
);
}
);
width = 483;
}
);
leftKerningGroup = o;
unicode = 0067;
},
{
glyphname = h;
lastChange = "2015-11-20 19:50:11 +0000";
layers = (
{
background = {
paths = (
{
closed = 1;
nodes = (
"206 -2 OFFCURVE",
"233 37 OFFCURVE",
"249 85 CURVE",
"252 97 OFFCURVE",
"238 99 OFFCURVE",
"222 105 CURVE SMOOTH",
"216 107 OFFCURVE",
"213 104 OFFCURVE",
"210 97 CURVE SMOOTH",
"200 74 OFFCURVE",
"192 64 OFFCURVE",
"184 64 CURVE SMOOTH",
"176 64 OFFCURVE",
"161 81 OFFCURVE",
"160 127 CURVE SMOOTH",
"159 183 OFFCURVE",
"175 300 OFFCURVE",
"192 432 CURVE SMOOTH",
"203 521 OFFCURVE",
"235 675 OFFCURVE",
"222 698 CURVE SMOOTH",
"213 711 OFFCURVE",
"69 746 OFFCURVE",
"57 739 CURVE",
"57 739 OFFCURVE",
"34 702 OFFCURVE",
"52 695 CURVE SMOOTH",
"79 685 OFFCURVE",
"90 637 OFFCURVE",
"88 559 CURVE SMOOTH",
"86 493 OFFCURVE",
"80 442 OFFCURVE",
"65 326 CURVE SMOOTH",
"53 234 OFFCURVE",
"21 54 OFFCURVE",
"45 36 CURVE SMOOTH",
"53 30 OFFCURVE",
"110 -7 OFFCURVE",
"167 -4 CURVE SMOOTH"
);
}
);
};
layerId = "71FD7A9F-05F5-4D76-8D4F-547475A05E4C";
name = "Regular Italic";
paths = (
{
closed = 1;
nodes = (
"357 483 LINE",
"277 437 OFFCURVE",
"206 307 OFFCURVE",
"185 276 CURVE",
"208 457 OFFCURVE",
"251 689 OFFCURVE",
"230 708 CURVE SMOOTH",
"218 719 OFFCURVE",
"88 747 OFFCURVE",
"68 740 CURVE",
"58 698 LINE",
"100 668 LINE",
"103 619 OFFCURVE",
"98 479 OFFCURVE",
"83 353 CURVE SMOOTH",
"67 217 OFFCURVE",
"40 43 OFFCURVE",
"38 32 CURVE",
"38 20 OFFCURVE",
"115 -5 OFFCURVE",
"163 -5 CURVE SMOOTH",
"178 -5 OFFCURVE",
"180 41 OFFCURVE",
"173 132 CURVE",
"215 236 OFFCURVE",
"295 334 OFFCURVE",
"323 360 CURVE",
"295 255 OFFCURVE",
"275 75 OFFCURVE",
"294 44 CURVE SMOOTH",
"304 28 OFFCURVE",
"356 -2 OFFCURVE",
"410 -2 CURVE",
"442 7 OFFCURVE",
"461 17 OFFCURVE",
"473 25 CURVE",
"469 70 LINE",
"455 65 OFFCURVE",
"434 59 OFFCURVE",
"419 59 CURVE",
"399 124 OFFCURVE",
"440 371 OFFCURVE",
"460 444 CURVE"
);
}
);
width = 506;
}
);
leftKerningGroup = l;
leftMetricsKey = l;
rightKerningGroup = i;
rightMetricsKey = i;
unicode = 0068;
},
{
glyphname = i;
lastChange = "2015-11-20 21:23:10 +0000";
layers = (
{
background = {
paths = (
{
closed = 1;
nodes = (
"192 461 OFFCURVE",
"126 479 OFFCURVE",
"78 479 CURVE",
"57 471 OFFCURVE",
"71 317 OFFCURVE",
"73 309 CURVE",
"63 270 OFFCURVE",
"42 159 OFFCURVE",
"39 112 CURVE SMOOTH",
"33 27 OFFCURVE",
"77 0 OFFCURVE",
"149 0 CURVE",
"188 8 OFFCURVE",
"209 21 OFFCURVE",
"221 30 CURVE",
"217 83 LINE",
"203 76 OFFCURVE",
"177 68 OFFCURVE",
"161 68 CURVE",
"146 122 OFFCURVE",
"189 379 OFFCURVE",
"206 444 CURVE"
);
}
);
};
guideLines = (
{
angle = -20;
position = "{74, 30}";
}
);
layerId = "71FD7A9F-05F5-4D76-8D4F-547475A05E4C";
name = "Regular Italic";
paths = (
{
closed = 1;
nodes = (
"74 485 OFFCURVE",
"186 467 OFFCURVE",
"204 454 CURVE",
"202 437 OFFCURVE",
"142 122 OFFCURVE",
"161 60 CURVE",
"176 60 OFFCURVE",
"199 67 OFFCURVE",
"215 72 CURVE",
"219 26 LINE",
"203 14 OFFCURVE",
"170 -1 OFFCURVE",
"152 -4 CURVE",
"106 -5 OFFCURVE",
"71 11 OFFCURVE",
"49 27 CURVE SMOOTH",
"22 47 OFFCURVE",
"65 315 OFFCURVE",
"83 410 CURVE",
"41 437 LINE",
"54 480 LINE"
);
},
{
closed = 1;
nodes = (
"191 704 LINE",
"186 717 OFFCURVE",
"180 725 OFFCURVE",
"166 720 CURVE SMOOTH",
"149 714 OFFCURVE",
"116 699 OFFCURVE",
"101 689 CURVE SMOOTH",
"86 679 OFFCURVE",
"86 670 OFFCURVE",
"93 661 CURVE",
"148 572 LINE",
"157 571 OFFCURVE",
"215 610 OFFCURVE",
"227 622 CURVE"
);
}
);
width = 251;
}
);
leftKerningGroup = i;
rightKerningGroup = i;
unicode = 0069;
},
{
glyphname = j;
lastChange = "2015-11-20 21:20:11 +0000";
layers = (
{
background = {
paths = (
{
closed = 1;
nodes = (
"65 481 OFFCURVE",
"177 463 OFFCURVE",
"195 450 CURVE",
"193 433 OFFCURVE",
"135 122 OFFCURVE",
"154 60 CURVE",
"169 60 OFFCURVE",
"192 67 OFFCURVE",
"208 72 CURVE",
"212 26 LINE",
"196 14 OFFCURVE",
"163 -1 OFFCURVE",
"145 -4 CURVE",
"99 -5 OFFCURVE",
"64 11 OFFCURVE",
"42 27 CURVE SMOOTH",
"15 47 OFFCURVE",
"56 311 OFFCURVE",
"74 406 CURVE",
"32 433 LINE",
"45 476 LINE"
);
}
);
};
guideLines = (
{
alignment = center;
angle = -12;
position = "{223, 497}";
},
{
angle = -103;
position = "{12, 345}";
}
);
layerId = "71FD7A9F-05F5-4D76-8D4F-547475A05E4C";
name = "Regular Italic";
paths = (
{
closed = 1;
nodes = (
"163 472 OFFCURVE",
"75 483 OFFCURVE",
"44 480 CURVE",
"34 437 LINE",
"74 412 LINE",
"77 400 OFFCURVE",
"73 359 OFFCURVE",
"72 336 CURVE SMOOTH",
"70 300 OFFCURVE",
"65 191 OFFCURVE",
"61 144 CURVE",
"32 -58 OFFCURVE",
"17 -101 OFFCURVE",
"-4 -129 CURVE",
"-16 -129 OFFCURVE",
"-30 -123 OFFCURVE",
"-54 -109 CURVE",
"-71 -153 LINE",
"-47 -173 OFFCURVE",
"-19 -187 OFFCURVE",
"0 -193 CURVE",
"112 -167 OFFCURVE",
"142 -113 OFFCURVE",
"166 113 CURVE",
"179 247 OFFCURVE",
"205 431 OFFCURVE",
"203 455 CURVE"
);
},
{
closed = 1;
nodes = (
"178 704 LINE",
"173 717 OFFCURVE",
"167 725 OFFCURVE",
"153 720 CURVE SMOOTH",
"136 714 OFFCURVE",
"103 699 OFFCURVE",
"88 689 CURVE SMOOTH",
"73 679 OFFCURVE",
"73 670 OFFCURVE",
"80 661 CURVE",
"135 572 LINE",
"144 571 OFFCURVE",
"202 610 OFFCURVE",
"214 622 CURVE"
);
}
);
width = 242;
}
);
leftKerningGroup = j;
rightMetricsKey = "=g+25";
unicode = 006A;
},
{
glyphname = k;
lastChange = "2015-11-21 15:01:44 +0000";
layers = (
{
background = {
paths = (
{
closed = 1;
nodes = (
"470 70 LINE",
"456 65 OFFCURVE",
"436 59 OFFCURVE",
"419 59 CURVE",
"395 113 OFFCURVE",
"439 368 OFFCURVE",
"460 444 CURVE",
"360 482 LINE",
"326 482 OFFCURVE",
"229 349 OFFCURVE",
"186 274 CURVE",
"187 283 OFFCURVE",
"205 441 OFFCURVE",
"200 452 CURVE SMOOTH",
"196 461 OFFCURVE",
"63 484 OFFCURVE",
"49 477 CURVE",
"36 434 LINE",
"82 407 LINE",
"73 272 OFFCURVE",
"37 45 OFFCURVE",
"39 34 CURVE SMOOTH",
"41 22 OFFCURVE",
"116 -3 OFFCURVE",
"159 -3 CURVE SMOOTH",
"174 -3 OFFCURVE",
"177 44 OFFCURVE",
"170 133 CURVE",
"233 271 OFFCURVE",
"290 323 OFFCURVE",
"322 359 CURVE",
"305 305 OFFCURVE",
"274 85 OFFCURVE",
"295 42 CURVE SMOOTH",
"300 33 OFFCURVE",
"346 -2 OFFCURVE",
"411 -2 CURVE",
"443 7 OFFCURVE",
"460 16 OFFCURVE",
"474 25 CURVE"
);
}
);
};
layerId = "71FD7A9F-05F5-4D76-8D4F-547475A05E4C";
name = "Regular Italic";
paths = (
{
closed = 1;
nodes = (
"450 70 LINE",
"436 65 OFFCURVE",
"420 61 OFFCURVE",
"405 59 CURVE",
"388 74 OFFCURVE",
"368 127 OFFCURVE",
"366 182 CURVE",
"456 222 OFFCURVE",
"459 414 OFFCURVE",
"447 450 CURVE",
"357 482 LINE",
"326 479 OFFCURVE",
"202 319 OFFCURVE",
"185 265 CURVE",
"206 446 OFFCURVE",
"247 696 OFFCURVE",
"232 707 CURVE SMOOTH",
"219 716 OFFCURVE",
"88 746 OFFCURVE",
"68 739 CURVE",
"58 696 LINE",
"101 665 LINE",
"106 615 OFFCURVE",
"96 491 OFFCURVE",
"81 353 CURVE SMOOTH",
"66 217 OFFCURVE",
"40 44 OFFCURVE",
"38 33 CURVE",
"38 21 OFFCURVE",
"117 -2 OFFCURVE",
"160 -2 CURVE SMOOTH",
"175 -2 OFFCURVE",
"176 44 OFFCURVE",
"170 133 CURVE",
"227 260 OFFCURVE",
"306 346 OFFCURVE",
"324 368 CURVE",
"331 356 OFFCURVE",
"327 231 OFFCURVE",
"287 196 CURVE",
"256 201 LINE",
"255 153 OFFCURVE",
"270 38 OFFCURVE",
"283 27 CURVE",
"303 15 OFFCURVE",
"338 -5 OFFCURVE",
"387 -5 CURVE",
"422 3 OFFCURVE",
"438 14 OFFCURVE",
"454 24 CURVE"
);
}
);
width = 487;
}
);
leftKerningGroup = l;
leftMetricsKey = l;
rightKerningGroup = i;
rightMetricsKey = i;
unicode = 006B;
},
{
glyphname = l;
lastChange = "2015-11-20 20:08:10 +0000";
layers = (
{
background = {
paths = (
{
closed = 1;
nodes = (
"356 483 LINE",
"276 437 OFFCURVE",
"205 307 OFFCURVE",
"184 276 CURVE",
"207 457 OFFCURVE",
"250 689 OFFCURVE",
"229 708 CURVE SMOOTH",
"217 719 OFFCURVE",
"87 747 OFFCURVE",
"67 740 CURVE",
"57 698 LINE",
"99 668 LINE",
"102 619 OFFCURVE",
"97 479 OFFCURVE",
"82 353 CURVE SMOOTH",
"66 217 OFFCURVE",
"39 43 OFFCURVE",
"37 32 CURVE",
"37 20 OFFCURVE",
"114 -5 OFFCURVE",
"162 -5 CURVE SMOOTH",
"177 -5 OFFCURVE",
"179 41 OFFCURVE",
"172 132 CURVE",
"214 236 OFFCURVE",
"294 334 OFFCURVE",
"322 360 CURVE",
"294 255 OFFCURVE",
"274 75 OFFCURVE",
"293 44 CURVE SMOOTH",
"303 28 OFFCURVE",
"355 -2 OFFCURVE",
"409 -2 CURVE",
"441 7 OFFCURVE",
"460 17 OFFCURVE",
"472 25 CURVE",
"468 70 LINE",
"454 65 OFFCURVE",
"433 59 OFFCURVE",
"418 59 CURVE",
"398 124 OFFCURVE",
"439 371 OFFCURVE",
"459 444 CURVE"
);
}
);
};
guideLines = (
{
angle = -18;
position = "{104, 0}";
},
{
angle = -103;
position = "{41, 624}";
}
);
layerId = "71FD7A9F-05F5-4D76-8D4F-547475A05E4C";
name = "Regular Italic";
paths = (
{
closed = 1;
nodes = (
"181 2 OFFCURVE",
"207 11 OFFCURVE",
"233 29 CURVE",
"229 75 LINE",
"211 69 OFFCURVE",
"185 63 OFFCURVE",
"173 63 CURVE",
"167 156 OFFCURVE",
"191 299 OFFCURVE",
"207 431 CURVE SMOOTH",
"218 520 OFFCURVE",
"244 683 OFFCURVE",
"231 706 CURVE SMOOTH",
"222 719 OFFCURVE",
"81 747 OFFCURVE",
"69 740 CURVE",
"58 696 LINE",
"101 665 LINE",
"103 595 OFFCURVE",
"92 442 OFFCURVE",
"77 326 CURVE SMOOTH",
"65 234 OFFCURVE",
"30 47 OFFCURVE",
"54 29 CURVE SMOOTH",
"62 23 OFFCURVE",
"123 -4 OFFCURVE",
"164 -1 CURVE"
);
}
);
width = 265;
}
);
leftKerningGroup = l;
rightKerningGroup = i;
rightMetricsKey = i;
unicode = 006C;
},
{
glyphname = m;
lastChange = "2015-11-20 20:32:44 +0000";
layers = (
{
background = {
paths = (
{
closed = 1;
nodes = (
"474 70 LINE",
"460 65 OFFCURVE",
"440 59 OFFCURVE",
"423 59 CURVE",
"399 113 OFFCURVE",
"443 368 OFFCURVE",
"464 444 CURVE",
"364 482 LINE",
"330 482 OFFCURVE",
"233 349 OFFCURVE",
"190 274 CURVE",
"191 283 OFFCURVE",
"209 441 OFFCURVE",
"204 452 CURVE SMOOTH",
"200 461 OFFCURVE",
"67 484 OFFCURVE",
"53 477 CURVE",
"40 434 LINE",
"86 407 LINE",
"77 272 OFFCURVE",
"41 45 OFFCURVE",
"43 34 CURVE SMOOTH",
"45 22 OFFCURVE",
"120 -3 OFFCURVE",
"163 -3 CURVE SMOOTH",
"178 -3 OFFCURVE",
"181 44 OFFCURVE",
"174 133 CURVE",
"237 271 OFFCURVE",
"294 323 OFFCURVE",
"326 359 CURVE",
"309 305 OFFCURVE",
"278 85 OFFCURVE",
"299 42 CURVE SMOOTH",
"304 33 OFFCURVE",
"350 -2 OFFCURVE",
"415 -2 CURVE",
"447 7 OFFCURVE",
"464 16 OFFCURVE",
"478 25 CURVE"
);
}
);
};
guideLines = (
{
angle = -18;
position = "{-101, 0}";
},
{
position = "{1084, 369}";
}
);
layerId = "71FD7A9F-05F5-4D76-8D4F-547475A05E4C";
name = "Regular Italic";
paths = (
{
closed = 1;
nodes = (
"671 74 LINE",
"658 69 OFFCURVE",
"634 62 OFFCURVE",
"620 62 CURVE",
"597 114 OFFCURVE",
"643 372 OFFCURVE",
"661 449 CURVE",
"559 482 LINE",
"517 459 OFFCURVE",
"434 343 OFFCURVE",
"413 307 CURVE",
"422 370 OFFCURVE",
"427 412 OFFCURVE",
"435 452 CURVE",
"344 483 LINE",
"283 431 OFFCURVE",
"201 300 OFFCURVE",
"191 282 CURVE",
"192 291 OFFCURVE",
"211 441 OFFCURVE",
"203 452 CURVE SMOOTH",
"195 463 OFFCURVE",
"65 484 OFFCURVE",
"53 477 CURVE",
"40 434 LINE",
"86 407 LINE",
"76 273 OFFCURVE",
"43 46 OFFCURVE",
"42 34 CURVE SMOOTH",
"41 23 OFFCURVE",
"122 -2 OFFCURVE",
"168 -2 CURVE SMOOTH",
"183 -2 OFFCURVE",
"183 58 OFFCURVE",
"176 148 CURVE",
"224 237 OFFCURVE",
"281 312 OFFCURVE",
"310 342 CURVE",
"308 333 OFFCURVE",
"298 261 OFFCURVE",
"295 239 CURVE",
"270 106 OFFCURVE",
"266 43 OFFCURVE",
"265 31 CURVE SMOOTH",
"265 20 OFFCURVE",
"340 -3 OFFCURVE",
"385 -3 CURVE SMOOTH",
"401 -3 OFFCURVE",
"404 76 OFFCURVE",
"396 166 CURVE",
"448 272 OFFCURVE",
"506 337 OFFCURVE",
"530 359 CURVE",
"516 306 OFFCURVE",
"481 95 OFFCURVE",
"497 53 CURVE SMOOTH",
"509 27 OFFCURVE",
"554 -2 OFFCURVE",
"612 -2 CURVE",
"635 4 OFFCURVE",
"658 16 OFFCURVE",
"675 28 CURVE"
);
}
);
width = 707;
}
);
leftKerningGroup = i;
leftMetricsKey = i;
rightKerningGroup = i;
rightMetricsKey = i;
unicode = 006D;
},
{
glyphname = n;
lastChange = "2015-11-20 21:20:36 +0000";
layers = (
{
background = {
paths = (
{
closed = 1;
nodes = (
"182 166 OFFCURVE",
"219 416 OFFCURVE",
"199 452 CURVE",
"189 463 OFFCURVE",
"83 478 OFFCURVE",
"52 478 CURVE",
"39 434 LINE",
"86 410 LINE",
"77 216 OFFCURVE",
"29 36 OFFCURVE",
"49 26 CURVE",
"142 -5 LINE",
"202 20 OFFCURVE",
"349 248 OFFCURVE",
"381 363 CURVE",
"350 426 LINE",
"316 269 OFFCURVE",
"192 143 OFFCURVE",
"169 114 CURVE"
);
}
);
};
guideLines = (
{
angle = -12;
position = "{348, 29}";
},
{
position = "{873, 369}";
}
);
layerId = "71FD7A9F-05F5-4D76-8D4F-547475A05E4C";
name = "Regular Italic";
paths = (
{
closed = 1;
nodes = (
"474 70 LINE",
"460 65 OFFCURVE",
"440 59 OFFCURVE",
"423 59 CURVE",
"399 113 OFFCURVE",
"443 368 OFFCURVE",
"464 444 CURVE",
"364 482 LINE",
"330 482 OFFCURVE",
"233 349 OFFCURVE",
"190 274 CURVE",
"191 283 OFFCURVE",
"209 441 OFFCURVE",
"204 452 CURVE SMOOTH",
"200 461 OFFCURVE",
"67 484 OFFCURVE",
"53 477 CURVE",
"40 434 LINE",
"86 407 LINE",
"77 272 OFFCURVE",
"41 45 OFFCURVE",
"43 34 CURVE SMOOTH",
"45 22 OFFCURVE",
"120 -3 OFFCURVE",
"163 -3 CURVE SMOOTH",
"178 -3 OFFCURVE",
"181 44 OFFCURVE",
"174 133 CURVE",
"237 271 OFFCURVE",
"294 323 OFFCURVE",
"326 359 CURVE",
"309 305 OFFCURVE",
"278 85 OFFCURVE",
"299 42 CURVE SMOOTH",
"304 33 OFFCURVE",
"350 -2 OFFCURVE",
"415 -2 CURVE",
"447 7 OFFCURVE",
"464 16 OFFCURVE",
"478 25 CURVE"
);
}
);
width = 511;
}
);
leftKerningGroup = i;
leftMetricsKey = i;
rightKerningGroup = i;
rightMetricsKey = i;
unicode = 006E;
},
{
glyphname = o;
lastChange = "2015-11-21 15:36:00 +0000";
layers = (
{
layerId = "71FD7A9F-05F5-4D76-8D4F-547475A05E4C";
name = "Regular Italic";
paths = (
{
closed = 1;
nodes = (
"377 459 OFFCURVE",
"328 503 OFFCURVE",
"219 481 CURVE SMOOTH",
"33 443 OFFCURVE",
"-31 183 OFFCURVE",
"71 58 CURVE SMOOTH",
"118 0 OFFCURVE",
"191 -22 OFFCURVE",
"275 6 CURVE SMOOTH",
"463 69 OFFCURVE",
"491 316 OFFCURVE",
"407 421 CURVE SMOOTH"
);
},
{
closed = 1;
nodes = (
"207 74 OFFCURVE",
"180 91 OFFCURVE",
"159 142 CURVE SMOOTH",
"122 233 OFFCURVE",
"151 365 OFFCURVE",
"227 407 CURVE",
"263 407 OFFCURVE",
"292 396 OFFCURVE",
"314 345 CURVE SMOOTH",
"351 260 OFFCURVE",
"332 125 OFFCURVE",
"248 74 CURVE"
);
}
);
width = 476;
}
);
leftKerningGroup = o;
rightKerningGroup = o;
unicode = 006F;
},
{
glyphname = p;
lastChange = "2015-11-20 19:49:32 +0000";
layers = (
{
background = {
paths = (
{
closed = 1;
nodes = (
"163 469 OFFCURVE",
"80 480 OFFCURVE",
"49 477 CURVE",
"39 434 LINE",
"79 409 LINE",
"82 397 OFFCURVE",
"80 359 OFFCURVE",
"79 336 CURVE SMOOTH",
"77 300 OFFCURVE",
"72 191 OFFCURVE",
"68 144 CURVE",
"39 -58 OFFCURVE",
"24 -101 OFFCURVE",
"3 -129 CURVE",
"-9 -129 OFFCURVE",
"-23 -123 OFFCURVE",
"-47 -109 CURVE",
"-64 -153 LINE",
"-40 -173 OFFCURVE",
"-12 -187 OFFCURVE",
"7 -193 CURVE",
"114 -167 OFFCURVE",
"144 -113 OFFCURVE",
"168 113 CURVE",
"181 247 OFFCURVE",
"205 428 OFFCURVE",
"203 452 CURVE"
);
}
);
};
guideLines = (
{
angle = -18;
position = "{760, -224}";
},
{
angle = 78;
position = "{33, 445}";
}
);
layerId = "71FD7A9F-05F5-4D76-8D4F-547475A05E4C";
name = "Regular Italic";
paths = (
{
closed = 1;
nodes = (
"394 474 OFFCURVE",
"355 483 OFFCURVE",
"320 480 CURVE",
"265 431 OFFCURVE",
"225 378 OFFCURVE",
"194 330 CURVE",
"197 348 OFFCURVE",
"208 447 OFFCURVE",
"203 455 CURVE SMOOTH",
"195 468 OFFCURVE",
"62 485 OFFCURVE",
"51 480 CURVE",
"41 438 LINE",
"81 413 LINE",
"80 355 OFFCURVE",
"66 145 OFFCURVE",
"53 55 CURVE SMOOTH",
"35 -67 OFFCURVE",
"9 -195 OFFCURVE",
"16 -203 CURVE SMOOTH",
"28 -213 OFFCURVE",
"164 -262 OFFCURVE",
"177 -252 CURVE",
"189 -201 LINE",
"171 -192 OFFCURVE",
"150 -134 OFFCURVE",
"149 -86 CURVE SMOOTH",
"148 -45 OFFCURVE",
"150 -21 OFFCURVE",
"154 28 CURVE",
"199 4 OFFCURVE",
"247 -6 OFFCURVE",
"297 -4 CURVE",
"469 46 OFFCURVE",
"528 304 OFFCURVE",
"420 441 CURVE SMOOTH"
);
},
{
closed = 1;
nodes = (
"242 67 OFFCURVE",
"197 99 OFFCURVE",
"170 138 CURVE",
"186 227 LINE",
"213 284 OFFCURVE",
"291 364 OFFCURVE",
"296 369 CURVE",
"307 364 OFFCURVE",
"318 354 OFFCURVE",
"327 332 CURVE SMOOTH",
"360 250 OFFCURVE",
"356 113 OFFCURVE",
"278 63 CURVE"
);
}
);
width = 498;
}
);
leftKerningGroup = i;
leftMetricsKey = i;
rightKerningGroup = o;
rightMetricsKey = o;
unicode = 0070;
},
{
glyphname = q;
lastChange = "2015-11-20 20:39:25 +0000";
layers = (
{
background = {
paths = (
{
closed = 1;
nodes = (
"267 78 OFFCURVE",
"301 148 OFFCURVE",
"309 154 CURVE",
"309 154 OFFCURVE",
"353 283 OFFCURVE",
"334 290 CURVE",
"318 255 OFFCURVE",
"254 158 OFFCURVE",
"202 111 CURVE",
"195 111 OFFCURVE",
"182 122 OFFCURVE",
"172 145 CURVE SMOOTH",
"133 240 OFFCURVE",
"149 372 OFFCURVE",
"219 415 CURVE",
"269 415 OFFCURVE",
"330 350 OFFCURVE",
"341 317 CURVE",
"341 317 OFFCURVE",
"388 358 OFFCURVE",
"388 414 CURVE",
"346 463 OFFCURVE",
"271 484 OFFCURVE",
"203 484 CURVE",
"29 434 OFFCURVE",
"-26 172 OFFCURVE",
"75 42 CURVE SMOOTH",
"106 2 OFFCURVE",
"139 -2 OFFCURVE",
"177 -2 CURVE"
);
},
{
closed = 1;
nodes = (
"431 6 OFFCURVE",
"457 18 OFFCURVE",
"473 29 CURVE",
"469 75 LINE",
"456 70 OFFCURVE",
"430 63 OFFCURVE",
"415 63 CURVE",
"387 92 OFFCURVE",
"431 323 OFFCURVE",
"439 353 CURVE SMOOTH",
"447 384 OFFCURVE",
"456 425 OFFCURVE",
"467 457 CURVE",
"455 468 OFFCURVE",
"434 476 OFFCURVE",
"421 480 CURVE SMOOTH",
"403 485 OFFCURVE",
"336 400 OFFCURVE",
"331 372 CURVE",
"326 365 OFFCURVE",
"324 363 OFFCURVE",
"323 348 CURVE SMOOTH",
"316 244 OFFCURVE",
"275 69 OFFCURVE",
"291 43 CURVE SMOOTH",
"301 27 OFFCURVE",
"352 -1 OFFCURVE",
"402 0 CURVE"
);
}
);
};
layerId = "71FD7A9F-05F5-4D76-8D4F-547475A05E4C";
name = "Regular Italic";
paths = (
{
closed = 1;
nodes = (
"402 -196 OFFCURVE",
"392 -191 OFFCURVE",
"377 -180 CURVE",
"381 37 OFFCURVE",
"409 292 OFFCURVE",
"466 458 CURVE",
"466 464 OFFCURVE",
"436 477 OFFCURVE",
"425 481 CURVE SMOOTH",
"413 485 OFFCURVE",
"396 471 OFFCURVE",
"368 436 CURVE",
"315 473 OFFCURVE",
"266 485 OFFCURVE",
"203 484 CURVE",
"29 435 OFFCURVE",
"-32 169 OFFCURVE",
"80 36 CURVE SMOOTH",
"107 4 OFFCURVE",
"142 -3 OFFCURVE",
"178 -2 CURVE",
"216 29 OFFCURVE",
"258 78 OFFCURVE",
"293 132 CURVE",
"275 -21 OFFCURVE",
"242 -204 OFFCURVE",
"255 -217 CURVE SMOOTH",
"268 -230 OFFCURVE",
"394 -255 OFFCURVE",
"406 -249 CURVE",
"406 -249 OFFCURVE",
"413 -220 OFFCURVE",
"417 -207 CURVE"
);
},
{
closed = 1;
nodes = (
"191 112 OFFCURVE",
"177 133 OFFCURVE",
"169 154 CURVE SMOOTH",
"139 233 OFFCURVE",
"144 370 OFFCURVE",
"220 417 CURVE",
"261 413 OFFCURVE",
"304 378 OFFCURVE",
"327 344 CURVE",
"313 255 LINE",
"282 195 OFFCURVE",
"215 124 OFFCURVE",
"203 112 CURVE"
);
}
);
width = 484;
}
);
leftKerningGroup = o;
leftMetricsKey = o;
rightMetricsKey = "=g-15";
unicode = 0071;
},
{
glyphname = r;
lastChange = "2015-11-20 21:22:59 +0000";
layers = (
{
anchors = (
{
name = bottom;
position = "{179, 0}";
},
{
name = top;
position = "{229, 480}";
}
);
background = {
paths = (
{
closed = 1;
nodes = (
"475 70 LINE",
"461 65 OFFCURVE",
"441 59 OFFCURVE",
"424 59 CURVE",
"400 113 OFFCURVE",
"444 368 OFFCURVE",
"465 444 CURVE",
"365 482 LINE",
"331 482 OFFCURVE",
"234 349 OFFCURVE",
"191 274 CURVE",
"192 283 OFFCURVE",
"210 441 OFFCURVE",
"205 452 CURVE SMOOTH",
"201 461 OFFCURVE",
"68 484 OFFCURVE",
"54 477 CURVE",
"41 434 LINE",
"87 407 LINE",
"78 272 OFFCURVE",
"42 45 OFFCURVE",
"44 34 CURVE SMOOTH",
"46 22 OFFCURVE",
"121 -3 OFFCURVE",
"164 -3 CURVE SMOOTH",
"179 -3 OFFCURVE",
"182 44 OFFCURVE",
"175 133 CURVE",
"238 271 OFFCURVE",
"295 323 OFFCURVE",
"327 359 CURVE",
"310 305 OFFCURVE",
"279 85 OFFCURVE",
"300 42 CURVE SMOOTH",
"305 33 OFFCURVE",
"351 -2 OFFCURVE",
"416 -2 CURVE",
"448 7 OFFCURVE",
"465 16 OFFCURVE",
"479 25 CURVE"
);
}
);
};
guideLines = (
{
position = "{-1213, 367}";
},
{
angle = -30;
position = "{258, 371}";
}
);
layerId = "71FD7A9F-05F5-4D76-8D4F-547475A05E4C";
name = "Regular Italic";
paths = (
{
closed = 1;
nodes = (
"54 480 LINE",
"77 480 OFFCURVE",
"193 464 OFFCURVE",
"204 453 CURVE",
"211 437 OFFCURVE",
"195 327 OFFCURVE",
"190 271 CURVE",
"209 316 OFFCURVE",
"237 372 OFFCURVE",
"291 452 CURVE",
"300 463 OFFCURVE",
"339 482 OFFCURVE",
"364 482 CURVE",
"437 455 LINE",
"436 443 OFFCURVE",
"395 336 OFFCURVE",
"373 308 CURVE",
"348 324 OFFCURVE",
"332 334 OFFCURVE",
"307 344 CURVE",
"281 318 OFFCURVE",
"226 254 OFFCURVE",
"177 134 CURVE",
"182 62 OFFCURVE",
"181 -4 OFFCURVE",
"165 -5 CURVE SMOOTH",
"127 -7 OFFCURVE",
"55 10 OFFCURVE",
"43 30 CURVE",
"49 72 OFFCURVE",
"84 340 OFFCURVE",
"87 407 CURVE",
"40 433 LINE"
);
}
);
width = 424;
}
);
leftKerningGroup = i;
leftMetricsKey = i;
rightKerningGroup = r;
rightMetricsKey = c;
unicode = 0072;
},
{
glyphname = s;
lastChange = "2015-11-21 15:39:09 +0000";
layers = (
{
background = {
paths = (
{
closed = 1;
nodes = (
"282 357 OFFCURVE",
"243 381 OFFCURVE",
"215 393 CURVE",
"134 346 OFFCURVE",
"119 216 OFFCURVE",
"151 146 CURVE SMOOTH",
"167 111 OFFCURVE",
"197 79 OFFCURVE",
"234 76 CURVE SMOOTH",
"290 72 OFFCURVE",
"329 91 OFFCURVE",
"347 100 CURVE",
"353 50 LINE",
"325 30 OFFCURVE",
"290 5 OFFCURVE",
"211 -2 CURVE",
"145 -6 OFFCURVE",
"99 13 OFFCURVE",
"59 57 CURVE",
"-43 169 OFFCURVE",
"13 459 OFFCURVE",
"211 483 CURVE",
"279 488 OFFCURVE",
"349 471 OFFCURVE",
"383 430 CURVE",
"372 394 OFFCURVE",
"345 344 OFFCURVE",
"326 321 CURVE"
);
}
);
};
layerId = "71FD7A9F-05F5-4D76-8D4F-547475A05E4C";
name = "Regular Italic";
paths = (
{
closed = 1;
nodes = (
"309 20 OFFCURVE",
"367 76 OFFCURVE",
"371 138 CURVE SMOOTH",
"376 243 OFFCURVE",
"295 273 OFFCURVE",
"250 293 CURVE SMOOTH",
"178 325 OFFCURVE",
"139 349 OFFCURVE",
"139 364 CURVE",
"151 385 OFFCURVE",
"198 406 OFFCURVE",
"213 406 CURVE",
"254 390 OFFCURVE",
"293 363 OFFCURVE",
"335 327 CURVE",
"358 363 OFFCURVE",
"376 398 OFFCURVE",
"388 433 CURVE",
"353 466 OFFCURVE",
"296 492 OFFCURVE",
"216 487 CURVE SMOOTH",
"134 482 OFFCURVE",
"55 434 OFFCURVE",
"46 351 CURVE SMOOTH",
"34 250 OFFCURVE",
"113 217 OFFCURVE",
"165 194 CURVE SMOOTH",
"233 164 OFFCURVE",
"274 144 OFFCURVE",
"274 126 CURVE",
"260 97 OFFCURVE",
"211 73 OFFCURVE",
"194 73 CURVE",
"148 88 OFFCURVE",
"100 123 OFFCURVE",
"68 153 CURVE",
"48 120 OFFCURVE",
"16 61 OFFCURVE",
"16 47 CURVE",
"68 -4 OFFCURVE",
"181 -24 OFFCURVE",
"267 6 CURVE SMOOTH"
);
}
);
width = 416;
}
);
leftKerningGroup = o;
unicode = 0073;
},
{
glyphname = t;
lastChange = "2015-11-20 19:25:36 +0000";
layers = (
{
background = {
paths = (
{
closed = 1;
nodes = (
"235 461 OFFCURVE",
"169 479 OFFCURVE",
"121 479 CURVE",
"100 471 OFFCURVE",
"114 317 OFFCURVE",
"116 309 CURVE",
"106 270 OFFCURVE",
"85 159 OFFCURVE",
"82 112 CURVE SMOOTH",
"76 27 OFFCURVE",
"113 4 OFFCURVE",
"151 -2 CURVE SMOOTH",
"190 -8 OFFCURVE",
"249 16 OFFCURVE",
"264 30 CURVE",
"266 42 OFFCURVE",
"263 66 OFFCURVE",
"261 80 CURVE SMOOTH",
"261 85 OFFCURVE",
"256 87 OFFCURVE",
"252 84 CURVE SMOOTH",
"234 72 OFFCURVE",
"209 64 OFFCURVE",
"203 79 CURVE",
"177 154 OFFCURVE",
"232 379 OFFCURVE",
"249 444 CURVE"
);
}
);
};
guideLines = (
{
angle = -103;
position = "{32, 345}";
}
);
layerId = "71FD7A9F-05F5-4D76-8D4F-547475A05E4C";
name = "Regular Italic";
paths = (
{
closed = 1;
nodes = (
"268 475 OFFCURVE",
"222 474 OFFCURVE",
"205 473 CURVE",
"209 500 OFFCURVE",
"215 534 OFFCURVE",
"219 565 CURVE",
"112 572 LINE",
"101 494 LINE",
"98 473 OFFCURVE",
"89 468 OFFCURVE",
"59 466 CURVE SMOOTH",
"44 465 LINE",
"37 401 LINE",
"40 401 OFFCURVE",
"65 401 OFFCURVE",
"84 401 CURVE",
"73 344 OFFCURVE",
"42 149 OFFCURVE",
"48 76 CURVE SMOOTH",
"51 36 OFFCURVE",
"91 -3 OFFCURVE",
"164 -3 CURVE",
"204 4 OFFCURVE",
"227 10 OFFCURVE",
"275 32 CURVE",
"269 86 LINE",
"240 74 OFFCURVE",
"211 67 OFFCURVE",
"182 68 CURVE",
"156 104 OFFCURVE",
"184 288 OFFCURVE",
"198 400 CURVE",
"239 400 OFFCURVE",
"278 402 OFFCURVE",
"297 402 CURVE SMOOTH",
"308 402 OFFCURVE",
"309 414 OFFCURVE",
"317 478 CURVE"
);
}
);
width = 297;
}
);
leftKerningGroup = i;
leftMetricsKey = i;
rightMetricsKey = "=i-10";
unicode = 0074;
},
{
glyphname = u;
lastChange = "2015-11-20 21:14:09 +0000";
layers = (
{
layerId = "71FD7A9F-05F5-4D76-8D4F-547475A05E4C";
name = "Regular Italic";
paths = (
{
closed = 1;
nodes = (
"183 166 OFFCURVE",
"220 416 OFFCURVE",
"200 452 CURVE",
"190 463 OFFCURVE",
"84 478 OFFCURVE",
"53 478 CURVE",
"40 434 LINE",
"87 410 LINE",
"78 216 OFFCURVE",
"30 36 OFFCURVE",
"50 26 CURVE",
"143 -5 LINE",
"203 20 OFFCURVE",
"350 248 OFFCURVE",
"382 363 CURVE",
"351 426 LINE",
"317 269 OFFCURVE",
"193 143 OFFCURVE",
"170 114 CURVE"
);
},
{
closed = 1;
nodes = (
"446 7 OFFCURVE",
"465 20 OFFCURVE",
"477 28 CURVE",
"473 74 LINE",
"459 69 OFFCURVE",
"437 62 OFFCURVE",
"422 62 CURVE",
"406 104 OFFCURVE",
"449 379 OFFCURVE",
"466 444 CURVE",
"452 461 OFFCURVE",
"386 479 OFFCURVE",
"338 479 CURVE",
"323 471 OFFCURVE",
"324 288 OFFCURVE",
"326 280 CURVE",
"305 210 OFFCURVE",
"278 68 OFFCURVE",
"298 36 CURVE SMOOTH",
"308 20 OFFCURVE",
"360 -2 OFFCURVE",
"414 -2 CURVE"
);
}
);
width = 509;
}
);
leftKerningGroup = i;
leftMetricsKey = i;
rightKerningGroup = i;
rightMetricsKey = i;
unicode = 0075;
},
{
glyphname = v;
lastChange = "2015-11-20 19:47:11 +0000";
layers = (
{
background = {
paths = (
{
closed = 1;
nodes = (
"356 474 OFFCURVE",
"317 483 OFFCURVE",
"282 480 CURVE",
"227 431 OFFCURVE",
"187 378 OFFCURVE",
"156 330 CURVE",
"159 348 OFFCURVE",
"170 447 OFFCURVE",
"165 455 CURVE SMOOTH",
"157 468 OFFCURVE",
"24 485 OFFCURVE",
"13 480 CURVE",
"3 438 LINE",
"43 413 LINE",
"42 355 OFFCURVE",
"28 145 OFFCURVE",
"15 55 CURVE SMOOTH",
"-3 -67 OFFCURVE",
"-29 -195 OFFCURVE",
"-22 -203 CURVE SMOOTH",
"-10 -213 OFFCURVE",
"126 -262 OFFCURVE",
"139 -252 CURVE",
"151 -201 LINE",
"133 -192 OFFCURVE",
"112 -134 OFFCURVE",
"111 -86 CURVE SMOOTH",
"110 -45 OFFCURVE",
"112 -21 OFFCURVE",
"116 28 CURVE",
"161 4 OFFCURVE",
"209 -6 OFFCURVE",
"259 -4 CURVE",
"431 46 OFFCURVE",
"490 304 OFFCURVE",
"382 441 CURVE SMOOTH"
);
}
);
};
layerId = "71FD7A9F-05F5-4D76-8D4F-547475A05E4C";
name = "Regular Italic";
paths = (
{
closed = 1;
nodes = (
"287 484 OFFCURVE",
"247 475 OFFCURVE",
"235 457 CURVE",
"248 418 OFFCURVE",
"259 395 OFFCURVE",
"281 344 CURVE",
"298 354 OFFCURVE",
"324 370 OFFCURVE",
"346 374 CURVE",
"343 309 OFFCURVE",
"297 157 OFFCURVE",
"228 69 CURVE",
"217 143 LINE SMOOTH",
"203 239 OFFCURVE",
"179 416 OFFCURVE",
"164 456 CURVE",
"152 467 OFFCURVE",
"33 484 OFFCURVE",
"20 479 CURVE",
"11 436 LINE",
"48 416 LINE",
"60 359 OFFCURVE",
"91 173 OFFCURVE",
"109 33 CURVE",
"121 14 OFFCURVE",
"180 -13 OFFCURVE",
"277 -5 CURVE",
"373 99 OFFCURVE",
"443 320 OFFCURVE",
"443 447 CURVE",
"406 467 OFFCURVE",
"363 477 OFFCURVE",
"321 484 CURVE"
);
}
);
width = 448;
}
);
leftKerningGroup = v;
rightKerningGroup = o;
unicode = 0076;
},
{
glyphname = w;
lastChange = "2015-11-20 19:54:09 +0000";
layers = (
{
background = {
paths = (
{
closed = 1;
nodes = (
"371 99 OFFCURVE",
"279 209 OFFCURVE",
"301 158 CURVE",
"226 69 LINE",
"215 143 LINE SMOOTH",
"201 239 OFFCURVE",
"177 416 OFFCURVE",
"162 456 CURVE",
"150 467 OFFCURVE",
"31 484 OFFCURVE",
"18 479 CURVE",
"9 436 LINE",
"46 416 LINE",
"58 359 OFFCURVE",
"89 173 OFFCURVE",
"107 33 CURVE",
"119 14 OFFCURVE",
"178 -13 OFFCURVE",
"275 -5 CURVE"
);
},
{
closed = 1;
nodes = (
"510 484 OFFCURVE",
"470 475 OFFCURVE",
"458 457 CURVE",
"471 418 OFFCURVE",
"482 395 OFFCURVE",
"504 344 CURVE",
"521 354 OFFCURVE",
"547 370 OFFCURVE",
"569 374 CURVE",
"566 309 OFFCURVE",
"520 157 OFFCURVE",
"451 69 CURVE",
"440 143 LINE SMOOTH",
"426 239 OFFCURVE",
"402 416 OFFCURVE",
"387 456 CURVE",
"375 467 OFFCURVE",
"256 484 OFFCURVE",
"243 479 CURVE",
"234 436 LINE",
"271 416 LINE",
"283 359 OFFCURVE",
"314 173 OFFCURVE",
"332 33 CURVE",
"344 14 OFFCURVE",
"403 -13 OFFCURVE",
"500 -5 CURVE",
"596 99 OFFCURVE",
"666 320 OFFCURVE",
"666 447 CURVE",
"629 467 OFFCURVE",
"586 477 OFFCURVE",
"544 484 CURVE"
);
}
);
};
guideLines = (
{
angle = -12;
position = "{711, 437}";
},
{
angle = -96;
position = "{361, 480}";
}
);
layerId = "71FD7A9F-05F5-4D76-8D4F-547475A05E4C";
name = "Regular Italic";
paths = (
{
closed = 1;
nodes = (
"308 355 LINE",
"304 267 OFFCURVE",
"269 141 OFFCURVE",
"219 84 CURVE",
"204 211 OFFCURVE",
"190 309 OFFCURVE",
"163 455 CURVE",
"152 466 OFFCURVE",
"33 484 OFFCURVE",
"20 477 CURVE",
"10 434 LINE",
"46 416 LINE",
"73 276 OFFCURVE",
"93 144 OFFCURVE",
"109 31 CURVE",
"120 12 OFFCURVE",
"170 -4 OFFCURVE",
"249 -4 CURVE",
"345 118 OFFCURVE",
"357 285 OFFCURVE",
"319 359 CURVE"
);
},
{
closed = 1;
nodes = (
"503 484 OFFCURVE",
"462 480 OFFCURVE",
"440 457 CURVE",
"454 414 OFFCURVE",
"460 395 OFFCURVE",
"481 344 CURVE",
"499 355 OFFCURVE",
"529 372 OFFCURVE",
"552 378 CURVE",
"543 299 OFFCURVE",
"509 183 OFFCURVE",
"448 85 CURVE",
"422 222 OFFCURVE",
"393 429 OFFCURVE",
"386 458 CURVE",
"376 469 OFFCURVE",
"257 486 OFFCURVE",
"245 479 CURVE",
"236 436 LINE",
"273 417 LINE",
"281 392 OFFCURVE",
"289 336 OFFCURVE",
"307 240 CURVE",
"323 194 OFFCURVE",
"311 226 OFFCURVE",
"338 31 CURVE",
"348 12 OFFCURVE",
"375 -5 OFFCURVE",
"486 -5 CURVE",
"576 98 OFFCURVE",
"655 331 OFFCURVE",
"647 447 CURVE",
"624 462 OFFCURVE",
"549 484 OFFCURVE",
"523 484 CURVE SMOOTH"
);
}
);
width = 654;
}
);
leftKerningGroup = v;
leftMetricsKey = v;
rightKerningGroup = o;
rightMetricsKey = v;
unicode = 0077;
},
{
glyphname = x;
lastChange = "2015-11-20 20:04:07 +0000";
layers = (
{
background = {
paths = (
{
closed = 1;
nodes = (
"411 474 OFFCURVE",
"372 483 OFFCURVE",
"337 480 CURVE",
"282 431 OFFCURVE",
"242 378 OFFCURVE",
"211 330 CURVE",
"214 348 OFFCURVE",
"225 447 OFFCURVE",
"220 455 CURVE SMOOTH",
"212 468 OFFCURVE",
"79 485 OFFCURVE",
"68 480 CURVE",
"58 438 LINE",
"98 413 LINE",
"97 355 OFFCURVE",
"83 145 OFFCURVE",
"70 55 CURVE SMOOTH",
"52 -67 OFFCURVE",
"26 -195 OFFCURVE",
"33 -203 CURVE SMOOTH",
"45 -213 OFFCURVE",
"181 -262 OFFCURVE",
"194 -252 CURVE",
"206 -201 LINE",
"188 -192 OFFCURVE",
"167 -134 OFFCURVE",
"166 -86 CURVE SMOOTH",
"165 -45 OFFCURVE",
"167 -21 OFFCURVE",
"171 28 CURVE",
"216 4 OFFCURVE",
"264 -6 OFFCURVE",
"314 -4 CURVE",
"486 46 OFFCURVE",
"545 304 OFFCURVE",
"437 441 CURVE SMOOTH"
);
}
);
};
layerId = "71FD7A9F-05F5-4D76-8D4F-547475A05E4C";
name = "Regular Italic";
paths = (
{
closed = 1;
nodes = (
"465 71 LINE",
"452 66 OFFCURVE",
"438 60 OFFCURVE",
"422 60 CURVE",
"405 60 OFFCURVE",
"361 146 OFFCURVE",
"307 258 CURVE",
"305 275 OFFCURVE",
"289 256 OFFCURVE",
"284 272 CURVE",
"270 331 OFFCURVE",
"251 409 OFFCURVE",
"241 449 CURVE",
"231 460 OFFCURVE",
"93 484 OFFCURVE",
"80 477 CURVE",
"69 433 LINE",
"107 413 LINE",
"139 365 OFFCURVE",
"186 261 OFFCURVE",
"206 201 CURVE",
"211 190 OFFCURVE",
"227 194 OFFCURVE",
"232 183 CURVE",
"245 131 OFFCURVE",
"258 74 OFFCURVE",
"281 32 CURVE SMOOTH",
"285 23 OFFCURVE",
"337 -2 OFFCURVE",
"404 -2 CURVE",
"433 7 OFFCURVE",
"457 16 OFFCURVE",
"470 25 CURVE"
);
},
{
closed = 1;
nodes = (
"228 256 LINE",
"210 201 OFFCURVE",
"158 141 OFFCURVE",
"138 123 CURVE",
"114 133 OFFCURVE",
"87 152 OFFCURVE",
"66 167 CURVE",
"46 131 OFFCURVE",
"15 51 OFFCURVE",
"14 39 CURVE",
"23 14 OFFCURVE",
"50 -3 OFFCURVE",
"79 -3 CURVE SMOOTH",
"96 -3 OFFCURVE",
"139 20 OFFCURVE",
"145 27 CURVE",
"190 67 OFFCURVE",
"268 200 OFFCURVE",
"268 249 CURVE"
);
},
{
closed = 1;
nodes = (
"290 208 LINE",
"293 235 OFFCURVE",
"347 326 OFFCURVE",
"374 354 CURVE",
"397 343 OFFCURVE",
"422 325 OFFCURVE",
"442 307 CURVE",
"462 335 OFFCURVE",
"495 426 OFFCURVE",
"496 438 CURVE",
"488 463 OFFCURVE",
"461 480 OFFCURVE",
"431 480 CURVE SMOOTH",
"415 480 OFFCURVE",
"371 456 OFFCURVE",
"366 450 CURVE",
"321 394 OFFCURVE",
"276 305 OFFCURVE",
"245 237 CURVE"
);
}
);
width = 503;
}
);
leftKerningGroup = z;
leftMetricsKey = s;
rightKerningGroup = k;
rightMetricsKey = c;
unicode = 0078;
},
{
glyphname = y;
lastChange = "2015-11-20 20:25:29 +0000";
layers = (
{
background = {
paths = (
{
closed = 1;
nodes = (
"406 78 LINE",
"393 73 OFFCURVE",
"379 67 OFFCURVE",
"363 67 CURVE",
"346 67 OFFCURVE",
"302 153 OFFCURVE",
"248 265 CURVE",
"246 282 OFFCURVE",
"230 263 OFFCURVE",
"225 279 CURVE",
"211 338 OFFCURVE",
"192 416 OFFCURVE",
"182 456 CURVE",
"172 467 OFFCURVE",
"34 491 OFFCURVE",
"21 484 CURVE",
"10 440 LINE",
"48 420 LINE",
"80 372 OFFCURVE",
"127 268 OFFCURVE",
"147 208 CURVE",
"152 197 OFFCURVE",
"168 201 OFFCURVE",
"173 190 CURVE",
"186 138 OFFCURVE",
"199 81 OFFCURVE",
"222 39 CURVE SMOOTH",
"226 30 OFFCURVE",
"278 5 OFFCURVE",
"345 5 CURVE",
"374 14 OFFCURVE",
"398 23 OFFCURVE",
"411 32 CURVE"
);
}
);
};
layerId = "71FD7A9F-05F5-4D76-8D4F-547475A05E4C";
name = "Regular Italic";
paths = (
{
closed = 1;
nodes = (
"258 48 OFFCURVE",
"252 94 OFFCURVE",
"247 127 CURVE SMOOTH",
"233 221 OFFCURVE",
"193 417 OFFCURVE",
"178 457 CURVE",
"166 468 OFFCURVE",
"34 486 OFFCURVE",
"21 479 CURVE",
"11 439 LINE",
"63 414 LINE",
"79 357 OFFCURVE",
"124 173 OFFCURVE",
"137 33 CURVE",
"144 22 OFFCURVE",
"200 10 OFFCURVE",
"256 -1 CURVE",
"258 15 LINE"
);
},
{
closed = 1;
nodes = (
"300 353 OFFCURVE",
"328 368 OFFCURVE",
"350 373 CURVE",
"356 266 OFFCURVE",
"273 42 OFFCURVE",
"237 4 CURVE",
"212 4 LINE",
"301 -13 LINE",
"415 151 OFFCURVE",
"449 382 OFFCURVE",
"447 447 CURVE",
"409 467 OFFCURVE",
"380 474 OFFCURVE",
"325 484 CURVE",
"299 484 OFFCURVE",
"257 478 OFFCURVE",
"239 458 CURVE",
"253 415 OFFCURVE",
"262 390 OFFCURVE",
"283 343 CURVE"
);
},
{
closed = 1;
nodes = (
"196 15 LINE",
"185 -69 OFFCURVE",
"125 -159 OFFCURVE",
"90 -185 CURVE",
"74 -185 OFFCURVE",
"45 -175 OFFCURVE",
"26 -166 CURVE",
"9 -209 LINE",
"36 -229 OFFCURVE",
"93 -245 OFFCURVE",
"150 -251 CURVE",
"257 -229 OFFCURVE",
"289 -154 OFFCURVE",
"302 -8 CURVE"
);
}
);
width = 453;
}
);
leftKerningGroup = v;
leftMetricsKey = v;
rightKerningGroup = v;
rightMetricsKey = v;
unicode = 0079;
},
{
glyphname = z;
lastChange = "2015-11-20 20:34:40 +0000";
layers = (
{
background = {
paths = (
{
closed = 1;
nodes = (
"452 71 LINE",
"439 66 OFFCURVE",
"425 60 OFFCURVE",
"409 60 CURVE",
"392 60 OFFCURVE",
"347 134 OFFCURVE",
"293 246 CURVE",
"291 263 OFFCURVE",
"276 256 OFFCURVE",
"271 272 CURVE",
"257 331 OFFCURVE",
"240 406 OFFCURVE",
"230 446 CURVE",
"220 457 OFFCURVE",
"67 487 OFFCURVE",
"54 480 CURVE",
"45 429 LINE",
"114 409 OFFCURVE",
"160 299 OFFCURVE",
"193 201 CURVE",
"198 190 OFFCURVE",
"214 194 OFFCURVE",
"219 183 CURVE",
"232 131 OFFCURVE",
"245 74 OFFCURVE",
"268 32 CURVE SMOOTH",
"272 23 OFFCURVE",
"324 -2 OFFCURVE",
"391 -2 CURVE",
"420 7 OFFCURVE",
"444 16 OFFCURVE",
"457 25 CURVE"
);
},
{
closed = 1;
nodes = (
"215 256 LINE",
"197 201 OFFCURVE",
"145 141 OFFCURVE",
"125 123 CURVE",
"101 133 OFFCURVE",
"74 152 OFFCURVE",
"53 167 CURVE",
"33 131 OFFCURVE",
"2 51 OFFCURVE",
"1 39 CURVE",
"10 14 OFFCURVE",
"37 -3 OFFCURVE",
"66 -3 CURVE SMOOTH",
"83 -3 OFFCURVE",
"126 20 OFFCURVE",
"132 27 CURVE",
"177 67 OFFCURVE",
"255 200 OFFCURVE",
"255 249 CURVE"
);
},
{
closed = 1;
nodes = (
"277 208 LINE",
"280 235 OFFCURVE",
"334 326 OFFCURVE",
"361 354 CURVE",
"384 343 OFFCURVE",
"409 325 OFFCURVE",
"429 307 CURVE",
"449 335 OFFCURVE",
"482 426 OFFCURVE",
"483 438 CURVE",
"475 463 OFFCURVE",
"448 480 OFFCURVE",
"418 480 CURVE SMOOTH",
"402 480 OFFCURVE",
"358 456 OFFCURVE",
"353 450 CURVE",
"308 394 OFFCURVE",
"263 305 OFFCURVE",
"232 237 CURVE"
);
}
);
};
layerId = "71FD7A9F-05F5-4D76-8D4F-547475A05E4C";
name = "Regular Italic";
paths = (
{
closed = 1;
nodes = (
"96 -3 OFFCURVE",
"139 21 OFFCURVE",
"145 27 CURVE",
"162 42 OFFCURVE",
"184 59 OFFCURVE",
"200 86 CURVE SMOOTH",
"209 101 OFFCURVE",
"196 72 OFFCURVE",
"216 120 CURVE",
"287 213 OFFCURVE",
"382 358 OFFCURVE",
"439 460 CURVE",
"425 472 OFFCURVE",
"411 477 OFFCURVE",
"396 480 CURVE SMOOTH",
"374 484 OFFCURVE",
"369 469 OFFCURVE",
"358 448 CURVE",
"345 424 OFFCURVE",
"324 403 OFFCURVE",
"307 374 CURVE",
"270 301 OFFCURVE",
"197 189 OFFCURVE",
"175 162 CURVE SMOOTH",
"161 144 OFFCURVE",
"144 129 OFFCURVE",
"137 127 CURVE",
"113 137 OFFCURVE",
"87 152 OFFCURVE",
"66 167 CURVE",
"46 131 OFFCURVE",
"15 51 OFFCURVE",
"14 39 CURVE",
"23 14 OFFCURVE",
"50 -3 OFFCURVE",
"79 -3 CURVE SMOOTH"
);
},
{
closed = 1;
nodes = (
"402 62 OFFCURVE",
"429 112 OFFCURVE",
"438 146 CURVE",
"396 163 LINE",
"389 143 OFFCURVE",
"380 128 OFFCURVE",
"369 116 CURVE",
"324 110 OFFCURVE",
"271 103 OFFCURVE",
"204 150 CURVE",
"135 74 LINE",
"199 10 OFFCURVE",
"275 -34 OFFCURVE",
"366 17 CURVE"
);
},
{
closed = 1;
nodes = (
"105 335 OFFCURVE",
"272 350 OFFCURVE",
"317 347 CURVE",
"359 380 LINE",
"349 403 OFFCURVE",
"399 444 OFFCURVE",
"376 444 CURVE",
"294 435 OFFCURVE",
"164 472 OFFCURVE",
"87 478 CURVE",
"79 468 OFFCURVE",
"50 348 OFFCURVE",
"58 320 CURVE"
);
}
);
width = 458;
}
);
leftKerningGroup = z;
leftMetricsKey = s;
rightMetricsKey = c;
unicode = 007A;
},
{
glyphname = y.001;
lastChange = "2015-11-20 21:45:39 +0000";
layers = (
{
background = {
paths = (
{
closed = 1;
nodes = (
"406 78 LINE",
"393 73 OFFCURVE",
"379 67 OFFCURVE",
"363 67 CURVE",
"346 67 OFFCURVE",
"302 153 OFFCURVE",
"248 265 CURVE",
"246 282 OFFCURVE",
"230 263 OFFCURVE",
"225 279 CURVE",
"211 338 OFFCURVE",
"192 416 OFFCURVE",
"182 456 CURVE",
"172 467 OFFCURVE",
"34 491 OFFCURVE",
"21 484 CURVE",
"10 440 LINE",
"48 420 LINE",
"80 372 OFFCURVE",
"127 268 OFFCURVE",
"147 208 CURVE",
"152 197 OFFCURVE",
"168 201 OFFCURVE",
"173 190 CURVE",
"186 138 OFFCURVE",
"199 81 OFFCURVE",
"222 39 CURVE SMOOTH",
"226 30 OFFCURVE",
"278 5 OFFCURVE",
"345 5 CURVE",
"374 14 OFFCURVE",
"398 23 OFFCURVE",
"411 32 CURVE"
);
}
);
};
layerId = "71FD7A9F-05F5-4D76-8D4F-547475A05E4C";
name = "Regular Italic";
paths = (
{
closed = 1;
nodes = (
"258 48 OFFCURVE",
"252 94 OFFCURVE",
"247 127 CURVE SMOOTH",
"233 221 OFFCURVE",
"193 417 OFFCURVE",
"178 457 CURVE",
"166 468 OFFCURVE",
"34 486 OFFCURVE",
"21 479 CURVE",
"11 439 LINE",
"63 414 LINE",
"79 357 OFFCURVE",
"124 173 OFFCURVE",
"137 33 CURVE",
"144 22 OFFCURVE",
"200 10 OFFCURVE",
"256 -1 CURVE",
"258 15 LINE"
);
},
{
closed = 1;
nodes = (
"406 467 OFFCURVE",
"377 474 OFFCURVE",
"322 484 CURVE",
"296 484 OFFCURVE",
"257 479 OFFCURVE",
"239 459 CURVE",
"253 416 OFFCURVE",
"262 391 OFFCURVE",
"283 344 CURVE",
"300 354 OFFCURVE",
"321 363 OFFCURVE",
"343 370 CURVE",
"349 271 OFFCURVE",
"292 150 OFFCURVE",
"238 55 CURVE SMOOTH",
"192 -27 OFFCURVE",
"94 -129 OFFCURVE",
"24 -153 CURVE",
"-4 -136 OFFCURVE",
"-39 -110 OFFCURVE",
"-65 -86 CURVE",
"-83 -118 OFFCURVE",
"-98 -159 OFFCURVE",
"-116 -210 CURVE",
"-96 -231 OFFCURVE",
"-26 -249 OFFCURVE",
"32 -250 CURVE",
"120 -230 OFFCURVE",
"204 -151 OFFCURVE",
"298 0 CURVE SMOOTH",
"408 177 OFFCURVE",
"446 382 OFFCURVE",
"444 447 CURVE"
);
}
);
width = 453;
}
);
leftKerningGroup = v;
leftMetricsKey = v;
rightKerningGroup = v;
rightMetricsKey = v;
},
{
glyphname = y.004;
lastChange = "2015-11-20 21:46:11 +0000";
layers = (
{
background = {
paths = (
{
closed = 1;
nodes = (
"284 484 OFFCURVE",
"244 475 OFFCURVE",
"232 457 CURVE",
"245 418 OFFCURVE",
"256 395 OFFCURVE",
"278 344 CURVE",
"295 354 OFFCURVE",
"321 370 OFFCURVE",
"343 374 CURVE",
"340 309 OFFCURVE",
"294 157 OFFCURVE",
"225 69 CURVE",
"214 143 LINE SMOOTH",
"200 239 OFFCURVE",
"176 416 OFFCURVE",
"161 456 CURVE",
"149 467 OFFCURVE",
"30 484 OFFCURVE",
"17 479 CURVE",
"8 436 LINE",
"45 416 LINE",
"57 359 OFFCURVE",
"88 173 OFFCURVE",
"106 33 CURVE",
"118 14 OFFCURVE",
"177 -13 OFFCURVE",
"274 -5 CURVE",
"370 99 OFFCURVE",
"440 320 OFFCURVE",
"440 447 CURVE",
"403 467 OFFCURVE",
"360 477 OFFCURVE",
"318 484 CURVE"
);
}
);
};
layerId = "71FD7A9F-05F5-4D76-8D4F-547475A05E4C";
name = "Regular Italic";
paths = (
{
closed = 1;
nodes = (
"229 99 OFFCURVE",
"173 418 OFFCURVE",
"160 457 CURVE",
"148 468 OFFCURVE",
"32 486 OFFCURVE",
"19 479 CURVE",
"6 437 LINE",
"45 417 LINE",
"74 335 OFFCURVE",
"122 3 OFFCURVE",
"124 -95 CURVE",
"192 -90 LINE",
"229 -1 LINE"
);
},
{
closed = 1;
nodes = (
"402 467 OFFCURVE",
"373 474 OFFCURVE",
"318 484 CURVE",
"292 484 OFFCURVE",
"253 479 OFFCURVE",
"235 459 CURVE",
"249 416 OFFCURVE",
"258 391 OFFCURVE",
"279 344 CURVE",
"296 354 OFFCURVE",
"317 363 OFFCURVE",
"339 370 CURVE",
"345 271 OFFCURVE",
"288 150 OFFCURVE",
"234 55 CURVE SMOOTH",
"188 -27 OFFCURVE",
"90 -129 OFFCURVE",
"20 -153 CURVE",
"-8 -136 OFFCURVE",
"-43 -110 OFFCURVE",
"-69 -86 CURVE",
"-87 -118 OFFCURVE",
"-102 -159 OFFCURVE",
"-120 -210 CURVE",
"-100 -231 OFFCURVE",
"-30 -249 OFFCURVE",
"28 -250 CURVE",
"116 -230 OFFCURVE",
"200 -151 OFFCURVE",
"294 0 CURVE SMOOTH",
"404 177 OFFCURVE",
"442 382 OFFCURVE",
"440 447 CURVE"
);
}
);
width = 445;
}
);
leftKerningGroup = v;
rightMetricsKey = v;
},
{
glyphname = f_b.liga;
lastChange = "2015-11-21 14:42:44 +0000";
layers = (
{
background = {
paths = (
{
closed = 1;
nodes = (
"172 400 LINE",
"220 399 OFFCURVE",
"273 398 OFFCURVE",
"295 398 CURVE SMOOTH",
"306 398 OFFCURVE",
"307 414 OFFCURVE",
"315 478 CURVE",
"266 475 OFFCURVE",
"215 474 OFFCURVE",
"198 473 CURVE",
"109 572 LINE",
"91 491 LINE",
"88 470 OFFCURVE",
"79 468 OFFCURVE",
"49 466 CURVE SMOOTH",
"34 465 LINE",
"27 401 LINE",
"31 401 OFFCURVE",
"75 401 OFFCURVE",
"90 401 CURVE"
);
},
{
closed = 1;
nodes = (
"142 710 OFFCURVE",
"106 626 OFFCURVE",
"90 480 CURVE SMOOTH",
"82 406 OFFCURVE",
"68 261 OFFCURVE",
"51 103 CURVE",
"32 -65 OFFCURVE",
"20 -142 OFFCURVE",
"-11 -183 CURVE",
"-39 -169 OFFCURVE",
"-85 -127 OFFCURVE",
"-111 -103 CURVE",
"-129 -135 OFFCURVE",
"-145 -164 OFFCURVE",
"-156 -202 CURVE",
"-136 -232 OFFCURVE",
"-59 -252 OFFCURVE",
"-12 -250 CURVE",
"82 -228 OFFCURVE",
"139 -161 OFFCURVE",
"156 -1 CURVE SMOOTH",
"199 402 LINE",
"223 600 OFFCURVE",
"234 642 OFFCURVE",
"254 672 CURVE",
"268 668 OFFCURVE",
"350 643 OFFCURVE",
"379 610 CURVE",
"397 641 OFFCURVE",
"492 658 OFFCURVE",
"502 692 CURVE",
"478 722 OFFCURVE",
"380 741 OFFCURVE",
"251 740 CURVE"
);
},
{
closed = 1;
nodes = (
"448 2 OFFCURVE",
"474 11 OFFCURVE",
"500 29 CURVE",
"496 75 LINE",
"478 69 OFFCURVE",
"452 63 OFFCURVE",
"440 63 CURVE",
"434 156 OFFCURVE",
"458 299 OFFCURVE",
"474 431 CURVE SMOOTH",
"485 520 OFFCURVE",
"505 662 OFFCURVE",
"502 692 CURVE",
"472 692 OFFCURVE",
"474 707 OFFCURVE",
"459 711 CURVE",
"366 674 LINE",
"378 665 LINE",
"380 595 OFFCURVE",
"359 442 OFFCURVE",
"344 326 CURVE SMOOTH",
"332 234 OFFCURVE",
"297 47 OFFCURVE",
"321 29 CURVE SMOOTH",
"329 23 OFFCURVE",
"390 -4 OFFCURVE",
"431 -1 CURVE"
);
}
);
};
layerId = "71FD7A9F-05F5-4D76-8D4F-547475A05E4C";
name = "Regular Italic";
paths = (
{
closed = 1;
nodes = (
"173 400 LINE",
"221 399 OFFCURVE",
"274 398 OFFCURVE",
"296 398 CURVE SMOOTH",
"307 398 OFFCURVE",
"308 414 OFFCURVE",
"316 478 CURVE",
"267 475 OFFCURVE",
"219 474 OFFCURVE",
"202 473 CURVE",
"110 572 LINE",
"92 491 LINE",
"89 470 OFFCURVE",
"80 468 OFFCURVE",
"50 466 CURVE SMOOTH",
"35 465 LINE",
"28 401 LINE",
"32 401 OFFCURVE",
"76 401 OFFCURVE",
"91 401 CURVE"
);
},
{
closed = 1;
nodes = (
"142 710 OFFCURVE",
"106 626 OFFCURVE",
"90 480 CURVE SMOOTH",
"82 406 OFFCURVE",
"66 261 OFFCURVE",
"51 103 CURVE",
"32 -65 OFFCURVE",
"20 -142 OFFCURVE",
"-11 -183 CURVE",
"-39 -169 OFFCURVE",
"-85 -127 OFFCURVE",
"-111 -103 CURVE",
"-129 -135 OFFCURVE",
"-145 -164 OFFCURVE",
"-156 -202 CURVE",
"-136 -232 OFFCURVE",
"-59 -252 OFFCURVE",
"-12 -250 CURVE",
"82 -228 OFFCURVE",
"138 -161 OFFCURVE",
"155 -1 CURVE SMOOTH",
"199 403 LINE",
"223 601 OFFCURVE",
"234 642 OFFCURVE",
"254 672 CURVE",
"268 670 OFFCURVE",
"344 644 OFFCURVE",
"379 608 CURVE",
"397 639 OFFCURVE",
"490 662 OFFCURVE",
"500 696 CURVE",
"481 715 OFFCURVE",
"396 743 OFFCURVE",
"251 740 CURVE"
);
},
{
closed = 1;
nodes = (
"642 480 OFFCURVE",
"618 484 OFFCURVE",
"579 482 CURVE",
"546 457 OFFCURVE",
"488 381 OFFCURVE",
"464 347 CURVE",
"489 543 OFFCURVE",
"511 674 OFFCURVE",
"500 696 CURVE SMOOTH",
"498 700 OFFCURVE",
"357 730 OFFCURVE",
"344 723 CURVE",
"331 697 LINE",
"338 693 OFFCURVE",
"359 678 OFFCURVE",
"373 666 CURVE",
"375 647 OFFCURVE",
"375 606 OFFCURVE",
"373 569 CURVE SMOOTH",
"364 433 OFFCURVE",
"333 203 OFFCURVE",
"318 123 CURVE SMOOTH",
"312 91 OFFCURVE",
"301 49 OFFCURVE",
"289 18 CURVE",
"296 14 OFFCURVE",
"311 2 OFFCURVE",
"332 -3 CURVE SMOOTH",
"345 -6 OFFCURVE",
"352 0 OFFCURVE",
"389 42 CURVE",
"424 17 OFFCURVE",
"493 -11 OFFCURVE",
"557 -4 CURVE",
"733 45 OFFCURVE",
"782 312 OFFCURVE",
"674 442 CURVE SMOOTH"
);
},
{
closed = 1;
nodes = (
"537 63 LINE SMOOTH",
"537 63 OFFCURVE",
"484 68 OFFCURVE",
"431 137 CURVE",
"448 232 LINE",
"481 290 OFFCURVE",
"538 351 OFFCURVE",
"556 368 CURVE",
"563 368 OFFCURVE",
"579 354 OFFCURVE",
"588 329 CURVE SMOOTH",
"618 247 OFFCURVE",
"616 106 OFFCURVE",
"537 63 CURVE"
);
}
);
width = 755;
}
);
leftMetricsKey = f;
rightMetricsKey = b;
},
{
glyphname = f_h.liga;
lastChange = "2015-11-21 14:40:35 +0000";
layers = (
{
background = {
paths = (
{
closed = 1;
nodes = (
"172 400 LINE",
"220 399 OFFCURVE",
"273 398 OFFCURVE",
"295 398 CURVE SMOOTH",
"306 398 OFFCURVE",
"307 414 OFFCURVE",
"315 478 CURVE",
"266 475 OFFCURVE",
"215 474 OFFCURVE",
"198 473 CURVE",
"109 572 LINE",
"91 491 LINE",
"88 470 OFFCURVE",
"79 468 OFFCURVE",
"49 466 CURVE SMOOTH",
"34 465 LINE",
"27 401 LINE",
"31 401 OFFCURVE",
"75 401 OFFCURVE",
"90 401 CURVE"
);
},
{
closed = 1;
nodes = (
"142 710 OFFCURVE",
"106 626 OFFCURVE",
"90 480 CURVE SMOOTH",
"82 406 OFFCURVE",
"68 261 OFFCURVE",
"51 103 CURVE",
"32 -65 OFFCURVE",
"20 -142 OFFCURVE",
"-11 -183 CURVE",
"-39 -169 OFFCURVE",
"-85 -127 OFFCURVE",
"-111 -103 CURVE",
"-129 -135 OFFCURVE",
"-145 -164 OFFCURVE",
"-156 -202 CURVE",
"-136 -232 OFFCURVE",
"-59 -252 OFFCURVE",
"-12 -250 CURVE",
"82 -228 OFFCURVE",
"139 -161 OFFCURVE",
"156 -1 CURVE SMOOTH",
"199 402 LINE",
"223 600 OFFCURVE",
"234 642 OFFCURVE",
"254 672 CURVE",
"268 668 OFFCURVE",
"350 643 OFFCURVE",
"379 610 CURVE",
"397 641 OFFCURVE",
"490 671 OFFCURVE",
"500 705 CURVE",
"489 718 OFFCURVE",
"374 752 OFFCURVE",
"251 740 CURVE"
);
},
{
closed = 1;
nodes = (
"448 2 OFFCURVE",
"474 11 OFFCURVE",
"500 29 CURVE",
"496 75 LINE",
"478 69 OFFCURVE",
"452 63 OFFCURVE",
"440 63 CURVE",
"434 156 OFFCURVE",
"458 299 OFFCURVE",
"474 431 CURVE SMOOTH",
"485 520 OFFCURVE",
"510 675 OFFCURVE",
"500 705 CURVE",
"489 710 OFFCURVE",
"474 711 OFFCURVE",
"459 715 CURVE",
"366 674 LINE",
"378 665 LINE",
"380 595 OFFCURVE",
"359 442 OFFCURVE",
"344 326 CURVE SMOOTH",
"332 234 OFFCURVE",
"297 47 OFFCURVE",
"321 29 CURVE SMOOTH",
"329 23 OFFCURVE",
"390 -4 OFFCURVE",
"431 -1 CURVE"
);
}
);
};
layerId = "71FD7A9F-05F5-4D76-8D4F-547475A05E4C";
name = "Regular Italic";
paths = (
{
closed = 1;
nodes = (
"173 400 LINE",
"221 399 OFFCURVE",
"274 398 OFFCURVE",
"296 398 CURVE SMOOTH",
"307 398 OFFCURVE",
"308 414 OFFCURVE",
"316 478 CURVE",
"267 475 OFFCURVE",
"219 474 OFFCURVE",
"202 473 CURVE",
"110 572 LINE",
"92 491 LINE",
"89 470 OFFCURVE",
"80 468 OFFCURVE",
"50 466 CURVE SMOOTH",
"35 465 LINE",
"28 401 LINE",
"32 401 OFFCURVE",
"76 401 OFFCURVE",
"91 401 CURVE"
);
},
{
closed = 1;
nodes = (
"623 483 LINE",
"543 437 OFFCURVE",
"472 307 OFFCURVE",
"451 276 CURVE",
"470 425 OFFCURVE",
"502 617 OFFCURVE",
"502 690 CURVE SMOOTH",
"502 698 OFFCURVE",
"466 718 OFFCURVE",
"459 715 CURVE SMOOTH",
"426 701 OFFCURVE",
"398 683 OFFCURVE",
"385 678 CURVE",
"379 673 LINE",
"382 624 OFFCURVE",
"364 479 OFFCURVE",
"349 353 CURVE SMOOTH",
"333 217 OFFCURVE",
"306 43 OFFCURVE",
"304 32 CURVE",
"304 20 OFFCURVE",
"381 -5 OFFCURVE",
"429 -5 CURVE SMOOTH",
"444 -5 OFFCURVE",
"446 41 OFFCURVE",
"439 132 CURVE",
"481 236 OFFCURVE",
"561 334 OFFCURVE",
"589 360 CURVE",
"561 255 OFFCURVE",
"541 75 OFFCURVE",
"560 44 CURVE SMOOTH",
"570 28 OFFCURVE",
"622 -2 OFFCURVE",
"676 -2 CURVE",
"708 7 OFFCURVE",
"727 17 OFFCURVE",
"739 25 CURVE",
"735 70 LINE",
"721 65 OFFCURVE",
"700 59 OFFCURVE",
"685 59 CURVE",
"665 124 OFFCURVE",
"706 371 OFFCURVE",
"726 444 CURVE"
);
},
{
closed = 1;
nodes = (
"142 710 OFFCURVE",
"106 626 OFFCURVE",
"90 480 CURVE SMOOTH",
"82 406 OFFCURVE",
"66 261 OFFCURVE",
"51 103 CURVE",
"32 -65 OFFCURVE",
"20 -142 OFFCURVE",
"-11 -183 CURVE",
"-39 -169 OFFCURVE",
"-85 -127 OFFCURVE",
"-111 -103 CURVE",
"-129 -135 OFFCURVE",
"-145 -164 OFFCURVE",
"-156 -202 CURVE",
"-136 -232 OFFCURVE",
"-59 -252 OFFCURVE",
"-12 -250 CURVE",
"82 -228 OFFCURVE",
"137 -161 OFFCURVE",
"154 -1 CURVE SMOOTH",
"198 403 LINE",
"222 601 OFFCURVE",
"234 642 OFFCURVE",
"254 672 CURVE",
"268 669 OFFCURVE",
"344 646 OFFCURVE",
"379 610 CURVE",
"397 641 OFFCURVE",
"492 658 OFFCURVE",
"502 692 CURVE",
"465 735 OFFCURVE",
"312 741 OFFCURVE",
"251 740 CURVE"
);
}
);
width = 772;
}
);
leftMetricsKey = f;
rightMetricsKey = i;
},
{
glyphname = f_k.liga;
lastChange = "2015-11-21 14:44:58 +0000";
layers = (
{
background = {
paths = (
{
closed = 1;
nodes = (
"173 400 LINE",
"221 399 OFFCURVE",
"274 398 OFFCURVE",
"296 398 CURVE SMOOTH",
"307 398 OFFCURVE",
"308 414 OFFCURVE",
"316 478 CURVE",
"267 475 OFFCURVE",
"219 474 OFFCURVE",
"202 473 CURVE",
"110 572 LINE",
"92 491 LINE",
"89 470 OFFCURVE",
"80 468 OFFCURVE",
"50 466 CURVE SMOOTH",
"35 465 LINE",
"28 401 LINE",
"32 401 OFFCURVE",
"76 401 OFFCURVE",
"91 401 CURVE"
);
},
{
closed = 1;
nodes = (
"142 710 OFFCURVE",
"106 626 OFFCURVE",
"90 480 CURVE SMOOTH",
"82 406 OFFCURVE",
"66 261 OFFCURVE",
"51 103 CURVE",
"32 -65 OFFCURVE",
"20 -142 OFFCURVE",
"-11 -183 CURVE",
"-39 -169 OFFCURVE",
"-85 -127 OFFCURVE",
"-111 -103 CURVE",
"-129 -135 OFFCURVE",
"-145 -164 OFFCURVE",
"-156 -202 CURVE",
"-136 -232 OFFCURVE",
"-59 -252 OFFCURVE",
"-12 -250 CURVE",
"82 -228 OFFCURVE",
"138 -161 OFFCURVE",
"155 -1 CURVE SMOOTH",
"199 403 LINE",
"223 601 OFFCURVE",
"234 642 OFFCURVE",
"254 672 CURVE",
"268 670 OFFCURVE",
"344 644 OFFCURVE",
"379 608 CURVE",
"397 639 OFFCURVE",
"490 662 OFFCURVE",
"500 696 CURVE",
"481 715 OFFCURVE",
"396 743 OFFCURVE",
"251 740 CURVE"
);
},
{
closed = 1;
nodes = (
"642 480 OFFCURVE",
"618 484 OFFCURVE",
"579 482 CURVE",
"546 457 OFFCURVE",
"488 381 OFFCURVE",
"464 347 CURVE",
"489 543 OFFCURVE",
"511 674 OFFCURVE",
"500 696 CURVE SMOOTH",
"498 700 OFFCURVE",
"357 730 OFFCURVE",
"344 723 CURVE",
"331 697 LINE",
"338 693 OFFCURVE",
"359 678 OFFCURVE",
"373 666 CURVE",
"375 647 OFFCURVE",
"375 606 OFFCURVE",
"373 569 CURVE SMOOTH",
"364 433 OFFCURVE",
"333 203 OFFCURVE",
"318 123 CURVE SMOOTH",
"312 91 OFFCURVE",
"301 49 OFFCURVE",
"289 18 CURVE",
"296 14 OFFCURVE",
"311 2 OFFCURVE",
"332 -3 CURVE SMOOTH",
"345 -6 OFFCURVE",
"352 0 OFFCURVE",
"389 42 CURVE",
"424 17 OFFCURVE",
"493 -11 OFFCURVE",
"557 -4 CURVE",
"733 45 OFFCURVE",
"782 312 OFFCURVE",
"674 442 CURVE SMOOTH"
);
},
{
closed = 1;
nodes = (
"537 63 LINE SMOOTH",
"537 63 OFFCURVE",
"484 68 OFFCURVE",
"431 137 CURVE",
"448 232 LINE",
"481 290 OFFCURVE",
"538 351 OFFCURVE",
"556 368 CURVE",
"563 368 OFFCURVE",
"579 354 OFFCURVE",
"588 329 CURVE SMOOTH",
"618 247 OFFCURVE",
"616 106 OFFCURVE",
"537 63 CURVE"
);
}
);
};
layerId = "71FD7A9F-05F5-4D76-8D4F-547475A05E4C";
name = "Regular Italic";
paths = (
{
closed = 1;
nodes = (
"720 70 LINE",
"706 65 OFFCURVE",
"690 61 OFFCURVE",
"675 59 CURVE",
"658 74 OFFCURVE",
"638 127 OFFCURVE",
"636 182 CURVE",
"726 222 OFFCURVE",
"729 414 OFFCURVE",
"717 450 CURVE",
"627 482 LINE",
"596 479 OFFCURVE",
"472 319 OFFCURVE",
"455 265 CURVE",
"476 446 OFFCURVE",
"515 685 OFFCURVE",
"500 696 CURVE SMOOTH",
"487 705 OFFCURVE",
"358 740 OFFCURVE",
"338 733 CURVE",
"328 696 LINE",
"371 665 LINE",
"376 615 OFFCURVE",
"366 491 OFFCURVE",
"351 353 CURVE SMOOTH",
"336 217 OFFCURVE",
"310 44 OFFCURVE",
"308 33 CURVE",
"308 21 OFFCURVE",
"387 -2 OFFCURVE",
"430 -2 CURVE SMOOTH",
"445 -2 OFFCURVE",
"446 44 OFFCURVE",
"440 133 CURVE",
"497 260 OFFCURVE",
"576 346 OFFCURVE",
"594 368 CURVE",
"601 356 OFFCURVE",
"597 231 OFFCURVE",
"557 196 CURVE",
"526 201 LINE",
"525 153 OFFCURVE",
"540 38 OFFCURVE",
"553 27 CURVE",
"573 15 OFFCURVE",
"608 -5 OFFCURVE",
"657 -5 CURVE",
"692 3 OFFCURVE",
"708 14 OFFCURVE",
"724 24 CURVE"
);
},
{
closed = 1;
nodes = (
"173 400 LINE",
"221 399 OFFCURVE",
"274 398 OFFCURVE",
"296 398 CURVE SMOOTH",
"307 398 OFFCURVE",
"308 414 OFFCURVE",
"316 478 CURVE",
"267 475 OFFCURVE",
"219 474 OFFCURVE",
"202 473 CURVE",
"110 572 LINE",
"92 491 LINE",
"89 470 OFFCURVE",
"80 468 OFFCURVE",
"50 466 CURVE SMOOTH",
"35 465 LINE",
"28 401 LINE",
"32 401 OFFCURVE",
"76 401 OFFCURVE",
"91 401 CURVE"
);
},
{
closed = 1;
nodes = (
"142 710 OFFCURVE",
"106 626 OFFCURVE",
"90 480 CURVE SMOOTH",
"82 406 OFFCURVE",
"66 261 OFFCURVE",
"51 103 CURVE",
"32 -65 OFFCURVE",
"20 -142 OFFCURVE",
"-11 -183 CURVE",
"-39 -169 OFFCURVE",
"-85 -127 OFFCURVE",
"-111 -103 CURVE",
"-129 -135 OFFCURVE",
"-145 -164 OFFCURVE",
"-156 -202 CURVE",
"-136 -232 OFFCURVE",
"-59 -252 OFFCURVE",
"-12 -250 CURVE",
"82 -228 OFFCURVE",
"138 -161 OFFCURVE",
"155 -1 CURVE SMOOTH",
"199 403 LINE",
"223 601 OFFCURVE",
"234 642 OFFCURVE",
"254 672 CURVE",
"268 670 OFFCURVE",
"344 644 OFFCURVE",
"379 608 CURVE",
"397 639 OFFCURVE",
"490 662 OFFCURVE",
"500 696 CURVE",
"481 715 OFFCURVE",
"396 743 OFFCURVE",
"251 740 CURVE"
);
}
);
width = 757;
}
);
rightMetricsKey = k;
},
{
glyphname = fi.liga;
lastChange = "2015-11-21 14:31:21 +0000";
layers = (
{
background = {
paths = (
{
closed = 1;
nodes = (
"333 485 OFFCURVE",
"445 467 OFFCURVE",
"463 454 CURVE",
"461 437 OFFCURVE",
"401 122 OFFCURVE",
"420 60 CURVE",
"435 60 OFFCURVE",
"458 67 OFFCURVE",
"474 72 CURVE",
"478 26 LINE",
"462 14 OFFCURVE",
"429 -1 OFFCURVE",
"411 -4 CURVE",
"365 -5 OFFCURVE",
"330 11 OFFCURVE",
"308 27 CURVE SMOOTH",
"281 47 OFFCURVE",
"324 315 OFFCURVE",
"342 410 CURVE",
"300 437 LINE",
"313 480 LINE"
);
},
{
closed = 1;
nodes = (
"450 704 LINE",
"445 717 OFFCURVE",
"439 725 OFFCURVE",
"425 720 CURVE SMOOTH",
"408 714 OFFCURVE",
"375 699 OFFCURVE",
"360 689 CURVE SMOOTH",
"345 679 OFFCURVE",
"345 670 OFFCURVE",
"352 661 CURVE",
"407 572 LINE",
"416 571 OFFCURVE",
"474 610 OFFCURVE",
"486 622 CURVE"
);
}
);
};
layerId = "71FD7A9F-05F5-4D76-8D4F-547475A05E4C";
name = "Regular Italic";
paths = (
{
closed = 1;
nodes = (
"82 -228 OFFCURVE",
"136 -161 OFFCURVE",
"152 -1 CURVE SMOOTH",
"193 404 LINE",
"217 602 OFFCURVE",
"234 642 OFFCURVE",
"254 672 CURVE",
"268 670 OFFCURVE",
"375 599 OFFCURVE",
"412 569 CURVE",
"430 600 OFFCURVE",
"446 637 OFFCURVE",
"456 671 CURVE",
"450 692 OFFCURVE",
"379 743 OFFCURVE",
"251 740 CURVE",
"142 710 OFFCURVE",
"106 626 OFFCURVE",
"90 480 CURVE SMOOTH",
"82 406 OFFCURVE",
"66 261 OFFCURVE",
"51 103 CURVE",
"32 -65 OFFCURVE",
"20 -142 OFFCURVE",
"-11 -183 CURVE",
"-39 -169 OFFCURVE",
"-85 -127 OFFCURVE",
"-111 -103 CURVE",
"-129 -135 OFFCURVE",
"-145 -164 OFFCURVE",
"-156 -202 CURVE",
"-136 -232 OFFCURVE",
"-59 -252 OFFCURVE",
"-12 -250 CURVE"
);
},
{
closed = 1;
nodes = (
"456 67 OFFCURVE",
"433 60 OFFCURVE",
"418 60 CURVE",
"399 122 OFFCURVE",
"461 434 OFFCURVE",
"463 451 CURVE",
"408 480 LINE",
"344 477 OFFCURVE",
"218 470 OFFCURVE",
"201 469 CURVE",
"109 572 LINE",
"91 491 LINE",
"88 470 OFFCURVE",
"79 468 OFFCURVE",
"49 466 CURVE SMOOTH",
"34 465 LINE",
"27 401 LINE",
"90 401 LINE",
"172 403 LINE SMOOTH",
"208 404 OFFCURVE",
"310 399 OFFCURVE",
"339 395 CURVE",
"321 300 OFFCURVE",
"279 47 OFFCURVE",
"306 27 CURVE SMOOTH",
"328 11 OFFCURVE",
"363 -5 OFFCURVE",
"409 -4 CURVE",
"427 -1 OFFCURVE",
"460 14 OFFCURVE",
"476 26 CURVE",
"472 72 LINE"
);
}
);
width = 508;
}
);
leftMetricsKey = f;
rightMetricsKey = i;
},
{
glyphname = fl.liga;
lastChange = "2015-11-21 14:41:35 +0000";
layers = (
{
background = {
paths = (
{
closed = 1;
nodes = (
"173 400 LINE",
"221 399 OFFCURVE",
"274 398 OFFCURVE",
"296 398 CURVE SMOOTH",
"307 398 OFFCURVE",
"308 414 OFFCURVE",
"316 478 CURVE",
"267 475 OFFCURVE",
"219 474 OFFCURVE",
"202 473 CURVE",
"110 572 LINE",
"92 491 LINE",
"89 470 OFFCURVE",
"80 468 OFFCURVE",
"50 466 CURVE SMOOTH",
"35 465 LINE",
"28 401 LINE",
"32 401 OFFCURVE",
"76 401 OFFCURVE",
"91 401 CURVE"
);
},
{
closed = 1;
nodes = (
"623 483 LINE",
"543 437 OFFCURVE",
"472 307 OFFCURVE",
"451 276 CURVE",
"470 425 OFFCURVE",
"502 617 OFFCURVE",
"502 690 CURVE SMOOTH",
"502 698 OFFCURVE",
"466 718 OFFCURVE",
"459 715 CURVE SMOOTH",
"426 701 OFFCURVE",
"398 683 OFFCURVE",
"385 678 CURVE",
"379 673 LINE",
"382 624 OFFCURVE",
"364 479 OFFCURVE",
"349 353 CURVE SMOOTH",
"333 217 OFFCURVE",
"306 43 OFFCURVE",
"304 32 CURVE",
"304 20 OFFCURVE",
"381 -5 OFFCURVE",
"429 -5 CURVE SMOOTH",
"444 -5 OFFCURVE",
"446 41 OFFCURVE",
"439 132 CURVE",
"481 236 OFFCURVE",
"561 334 OFFCURVE",
"589 360 CURVE",
"561 255 OFFCURVE",
"541 75 OFFCURVE",
"560 44 CURVE SMOOTH",
"570 28 OFFCURVE",
"622 -2 OFFCURVE",
"676 -2 CURVE",
"708 7 OFFCURVE",
"727 17 OFFCURVE",
"739 25 CURVE",
"735 70 LINE",
"721 65 OFFCURVE",
"700 59 OFFCURVE",
"685 59 CURVE",
"665 124 OFFCURVE",
"706 371 OFFCURVE",
"726 444 CURVE"
);
},
{
closed = 1;
nodes = (
"142 710 OFFCURVE",
"106 626 OFFCURVE",
"90 480 CURVE SMOOTH",
"82 406 OFFCURVE",
"66 261 OFFCURVE",
"51 103 CURVE",
"32 -65 OFFCURVE",
"20 -142 OFFCURVE",
"-11 -183 CURVE",
"-39 -169 OFFCURVE",
"-85 -127 OFFCURVE",
"-111 -103 CURVE",
"-129 -135 OFFCURVE",
"-145 -164 OFFCURVE",
"-156 -202 CURVE",
"-136 -232 OFFCURVE",
"-59 -252 OFFCURVE",
"-12 -250 CURVE",
"82 -228 OFFCURVE",
"137 -161 OFFCURVE",
"154 -1 CURVE SMOOTH",
"198 403 LINE",
"222 601 OFFCURVE",
"234 642 OFFCURVE",
"254 672 CURVE",
"268 669 OFFCURVE",
"344 646 OFFCURVE",
"379 610 CURVE",
"397 641 OFFCURVE",
"492 658 OFFCURVE",
"502 692 CURVE",
"465 735 OFFCURVE",
"312 741 OFFCURVE",
"251 740 CURVE"
);
}
);
};
layerId = "71FD7A9F-05F5-4D76-8D4F-547475A05E4C";
name = "Regular Italic";
paths = (
{
closed = 1;
nodes = (
"172 400 LINE",
"220 399 OFFCURVE",
"273 398 OFFCURVE",
"295 398 CURVE SMOOTH",
"306 398 OFFCURVE",
"307 414 OFFCURVE",
"315 478 CURVE",
"266 475 OFFCURVE",
"215 474 OFFCURVE",
"198 473 CURVE",
"109 572 LINE",
"91 491 LINE",
"88 470 OFFCURVE",
"79 468 OFFCURVE",
"49 466 CURVE SMOOTH",
"34 465 LINE",
"27 401 LINE",
"31 401 OFFCURVE",
"75 401 OFFCURVE",
"90 401 CURVE"
);
},
{
closed = 1;
nodes = (
"142 710 OFFCURVE",
"106 626 OFFCURVE",
"90 480 CURVE SMOOTH",
"82 406 OFFCURVE",
"68 261 OFFCURVE",
"51 103 CURVE",
"32 -65 OFFCURVE",
"20 -142 OFFCURVE",
"-11 -183 CURVE",
"-39 -169 OFFCURVE",
"-85 -127 OFFCURVE",
"-111 -103 CURVE",
"-129 -135 OFFCURVE",
"-145 -164 OFFCURVE",
"-156 -202 CURVE",
"-136 -232 OFFCURVE",
"-59 -252 OFFCURVE",
"-12 -250 CURVE",
"82 -228 OFFCURVE",
"139 -161 OFFCURVE",
"156 -1 CURVE SMOOTH",
"199 402 LINE",
"223 600 OFFCURVE",
"234 642 OFFCURVE",
"254 672 CURVE",
"268 668 OFFCURVE",
"350 643 OFFCURVE",
"379 610 CURVE",
"397 641 OFFCURVE",
"492 658 OFFCURVE",
"502 692 CURVE",
"478 722 OFFCURVE",
"380 741 OFFCURVE",
"251 740 CURVE"
);
},
{
closed = 1;
nodes = (
"448 2 OFFCURVE",
"474 11 OFFCURVE",
"500 29 CURVE",
"496 75 LINE",
"478 69 OFFCURVE",
"452 63 OFFCURVE",
"440 63 CURVE",
"434 156 OFFCURVE",
"458 299 OFFCURVE",
"474 431 CURVE SMOOTH",
"485 520 OFFCURVE",
"505 662 OFFCURVE",
"502 692 CURVE",
"472 692 OFFCURVE",
"474 707 OFFCURVE",
"459 711 CURVE",
"366 674 LINE",
"378 665 LINE",
"380 595 OFFCURVE",
"359 442 OFFCURVE",
"344 326 CURVE SMOOTH",
"332 234 OFFCURVE",
"297 47 OFFCURVE",
"321 29 CURVE SMOOTH",
"329 23 OFFCURVE",
"390 -4 OFFCURVE",
"431 -1 CURVE"
);
}
);
width = 532;
}
);
leftMetricsKey = f;
rightMetricsKey = l;
},
{
glyphname = comma;
lastChange = "2015-11-21 15:07:46 +0000";
layers = (
{
background = {
paths = (
{
closed = 1;
nodes = (
"112 133 LINE",
"105 145 OFFCURVE",
"99 152 OFFCURVE",
"85 146 CURVE SMOOTH",
"69 138 OFFCURVE",
"39 119 OFFCURVE",
"24 108 CURVE SMOOTH",
"13 100 OFFCURVE",
"13 89 OFFCURVE",
"19 80 CURVE",
"67 2 LINE",
"76 2 OFFCURVE",
"145 41 OFFCURVE",
"156 55 CURVE"
);
}
);
};
layerId = "71FD7A9F-05F5-4D76-8D4F-547475A05E4C";
name = "Regular Italic";
paths = (
{
closed = 1;
nodes = (
"99 -47 OFFCURVE",
"123 -5 OFFCURVE",
"130 64 CURVE SMOOTH",
"134 104 OFFCURVE",
"107 147 OFFCURVE",
"95 147 CURVE SMOOTH",
"80 147 OFFCURVE",
"41 120 OFFCURVE",
"24 108 CURVE SMOOTH",
"15 102 OFFCURVE",
"14 90 OFFCURVE",
"20 78 CURVE SMOOTH",
"52 18 OFFCURVE",
"20 -46 OFFCURVE",
"-3 -82 CURVE",
"14 -93 OFFCURVE",
"32 -100 OFFCURVE",
"51 -105 CURVE"
);
}
);
width = 171;
}
);
unicode = 002C;
},
{
glyphname = period;
lastChange = "2015-11-21 14:57:20 +0000";
layers = (
{
layerId = "71FD7A9F-05F5-4D76-8D4F-547475A05E4C";
name = "Regular Italic";
paths = (
{
closed = 1;
nodes = (
"112 133 LINE",
"105 145 OFFCURVE",
"99 152 OFFCURVE",
"85 146 CURVE SMOOTH",
"69 138 OFFCURVE",
"39 119 OFFCURVE",
"24 108 CURVE SMOOTH",
"13 100 OFFCURVE",
"13 89 OFFCURVE",
"19 80 CURVE",
"67 2 LINE",
"76 2 OFFCURVE",
"145 41 OFFCURVE",
"156 55 CURVE"
);
}
);
width = 205;
}
);
unicode = 002E;
},
